<svg version="1.1" viewBox="0.0 0.0 857.0 530.0" fill="none" stroke="none" stroke-linecap="square" stroke-miterlimit="10" width="857" height="530" xmlns:xlink="http://www.w3.org/1999/xlink" xmlns="http://www.w3.org/2000/svg"><path fill="#ffffff" d="M0 0L857.0 0L857.0 530.0L0 530.0L0 0Z" fill-rule="nonzero"/><path stroke="#333333" stroke-width="1.0" stroke-linecap="butt" d="M86.5 449.5L830.5 449.5" fill-rule="nonzero"/><path stroke="#cccccc" stroke-width="1.0" stroke-linecap="butt" d="M86.5 356.5L830.5 356.5" fill-rule="nonzero"/><path stroke="#cccccc" stroke-width="1.0" stroke-linecap="butt" d="M86.5 262.5L830.5 262.5" fill-rule="nonzero"/><path stroke="#cccccc" stroke-width="1.0" stroke-linecap="butt" d="M86.5 169.5L830.5 169.5" fill-rule="nonzero"/><path stroke="#cccccc" stroke-width="1.0" stroke-linecap="butt" d="M86.5 75.5L830.5 75.5" fill-rule="nonzero"/><clipPath id="id_0"><path d="M86.5 75.666664L830.5 75.666664L830.5 449.5L86.5 449.5L86.5 75.666664Z" clip-rule="nonzero"/></clipPath><path stroke="#000000" stroke-width="2.0" stroke-linecap="butt" stroke-opacity="0.0" clip-path="url(#id_0)" d="M153.0 450.0L110.0 450.0L110.0 392.0C110.0 390.89542 110.89543 390.0 112.0 390.0L151.0 390.0C152.10457 390.0 153.0 390.89542 153.0 392.0Z" fill-rule="nonzero"/><path fill="#4285f4" clip-path="url(#id_0)" d="M153.0 450.0L110.0 450.0L110.0 392.0C110.0 390.89542 110.89543 390.0 112.0 390.0L151.0 390.0C152.10457 390.0 153.0 390.89542 153.0 392.0Z" fill-rule="nonzero"/><path stroke="#000000" stroke-width="2.0" stroke-linecap="butt" stroke-opacity="0.0" clip-path="url(#id_0)" d="M218.0 450.0L175.0 450.0L175.0 384.0C175.0 382.89542 175.89543 382.0 177.0 382.0L216.0 382.0C217.10457 382.0 218.0 382.89542 218.0 384.0Z" fill-rule="nonzero"/><path fill="#4285f4" clip-path="url(#id_0)" d="M218.0 450.0L175.0 450.0L175.0 384.0C175.0 382.89542 175.89543 382.0 177.0 382.0L216.0 382.0C217.10457 382.0 218.0 382.89542 218.0 384.0Z" fill-rule="nonzero"/><path stroke="#000000" stroke-width="2.0" stroke-linecap="butt" stroke-opacity="0.0" clip-path="url(#id_0)" d="M284.0 450.0L241.0 450.0L241.0 367.0C241.0 365.89542 241.89543 365.0 243.0 365.0L282.0 365.0C283.10458 365.0 284.0 365.89542 284.0 367.0Z" fill-rule="nonzero"/><path fill="#4285f4" clip-path="url(#id_0)" d="M284.0 450.0L241.0 450.0L241.0 367.0C241.0 365.89542 241.89543 365.0 243.0 365.0L282.0 365.0C283.10458 365.0 284.0 365.89542 284.0 367.0Z" fill-rule="nonzero"/><path stroke="#000000" stroke-width="2.0" stroke-linecap="butt" stroke-opacity="0.0" clip-path="url(#id_0)" d="M349.0 450.0L306.0 450.0L306.0 334.0C306.0 332.89542 306.89542 332.0 308.0 332.0L347.0 332.0C348.10458 332.0 349.0 332.89542 349.0 334.0Z" fill-rule="nonzero"/><path fill="#4285f4" clip-path="url(#id_0)" d="M349.0 450.0L306.0 450.0L306.0 334.0C306.0 332.89542 306.89542 332.0 308.0 332.0L347.0 332.0C348.10458 332.0 349.0 332.89542 349.0 334.0Z" fill-rule="nonzero"/><path stroke="#000000" stroke-width="2.0" stroke-linecap="butt" stroke-opacity="0.0" clip-path="url(#id_0)" d="M415.0 450.0L372.0 450.0L372.0 300.0C372.0 298.89542 372.89542 298.0 374.0 298.0L413.0 298.0C414.10458 298.0 415.0 298.89542 415.0 300.0Z" fill-rule="nonzero"/><path fill="#4285f4" clip-path="url(#id_0)" d="M415.0 450.0L372.0 450.0L372.0 300.0C372.0 298.89542 372.89542 298.0 374.0 298.0L413.0 298.0C414.10458 298.0 415.0 298.89542 415.0 300.0Z" fill-rule="nonzero"/><path stroke="#000000" stroke-width="2.0" stroke-linecap="butt" stroke-opacity="0.0" clip-path="url(#id_0)" d="M481.0 450.0L438.0 450.0L438.0 276.0C438.0 274.89542 438.89542 274.0 440.0 274.0L479.0 274.0C480.10458 274.0 481.0 274.89542 481.0 276.0Z" fill-rule="nonzero"/><path fill="#4285f4" clip-path="url(#id_0)" d="M481.0 450.0L438.0 450.0L438.0 276.0C438.0 274.89542 438.89542 274.0 440.0 274.0L479.0 274.0C480.10458 274.0 481.0 274.89542 481.0 276.0Z" fill-rule="nonzero"/><path stroke="#000000" stroke-width="2.0" stroke-linecap="butt" stroke-opacity="0.0" clip-path="url(#id_0)" d="M546.0 450.0L503.0 450.0L503.0 248.0C503.0 246.89543 503.89542 246.0 505.0 246.0L544.0 246.0C545.10455 246.0 546.0 246.89543 546.0 248.0Z" fill-rule="nonzero"/><path fill="#4285f4" clip-path="url(#id_0)" d="M546.0 450.0L503.0 450.0L503.0 248.0C503.0 246.89543 503.89542 246.0 505.0 246.0L544.0 246.0C545.10455 246.0 546.0 246.89543 546.0 248.0Z" fill-rule="nonzero"/><path stroke="#000000" stroke-width="2.0" stroke-linecap="butt" stroke-opacity="0.0" clip-path="url(#id_0)" d="M612.0 450.0L569.0 450.0L569.0 223.0C569.0 221.89543 569.89545 221.0 571.0 221.0L610.0 221.0C611.10455 221.0 612.0 221.89543 612.0 223.0Z" fill-rule="nonzero"/><path fill="#4285f4" clip-path="url(#id_0)" d="M612.0 450.0L569.0 450.0L569.0 223.0C569.0 221.89543 569.89545 221.0 571.0 221.0L610.0 221.0C611.10455 221.0 612.0 221.89543 612.0 223.0Z" fill-rule="nonzero"/><path stroke="#000000" stroke-width="2.0" stroke-linecap="butt" stroke-opacity="0.0" clip-path="url(#id_0)" d="M677.0 450.0L634.0 450.0L634.0 205.0C634.0 203.89543 634.89545 203.0 636.0 203.0L675.0 203.0C676.10455 203.0 677.0 203.89543 677.0 205.0Z" fill-rule="nonzero"/><path fill="#4285f4" clip-path="url(#id_0)" d="M677.0 450.0L634.0 450.0L634.0 205.0C634.0 203.89543 634.89545 203.0 636.0 203.0L675.0 203.0C676.10455 203.0 677.0 203.89543 677.0 205.0Z" fill-rule="nonzero"/><path stroke="#000000" stroke-width="2.0" stroke-linecap="butt" stroke-opacity="0.0" clip-path="url(#id_0)" d="M743.0 450.0L700.0 450.0L700.0 184.0C700.0 182.89543 700.89545 182.0 702.0 182.0L741.0 182.0C742.10455 182.0 743.0 182.89543 743.0 184.0Z" fill-rule="nonzero"/><path fill="#4285f4" clip-path="url(#id_0)" d="M743.0 450.0L700.0 450.0L700.0 184.0C700.0 182.89543 700.89545 182.0 702.0 182.0L741.0 182.0C742.10455 182.0 743.0 182.89543 743.0 184.0Z" fill-rule="nonzero"/><path stroke="#000000" stroke-width="2.0" stroke-linecap="butt" stroke-opacity="0.0" clip-path="url(#id_0)" d="M808.0 450.0L765.0 450.0L765.0 162.0C765.0 160.89543 765.89545 160.0 767.0 160.0L806.0 160.0C807.10455 160.0 808.0 160.89543 808.0 162.0Z" fill-rule="nonzero"/><path fill="#4285f4" clip-path="url(#id_0)" d="M808.0 450.0L765.0 450.0L765.0 162.0C765.0 160.89543 765.89545 160.0 767.0 160.0L806.0 160.0C807.10455 160.0 808.0 160.89543 808.0 162.0Z" fill-rule="nonzero"/><path fill="#424242" d="M450.09375 496.25L452.3125 491.96875L453.59375 491.96875L450.65625 497.3125L450.65625 500.5L449.53125 500.5L449.53125 497.3125L446.59375 491.96875L447.875 491.96875L450.09375 496.25ZM456.95312 500.625Q455.65625 500.625 454.84375 499.78125Q454.04688 498.92188 454.04688 497.5L454.04688 497.3125Q454.04688 496.35938 454.40625 495.625Q454.76562 494.875 455.40625 494.46875Q456.0625 494.04688 456.8125 494.04688Q458.04688 494.04688 458.73438 494.85938Q459.42188 495.67188 459.42188 497.1875L459.42188 497.64062L455.125 497.64062Q455.15625 498.57812 455.67188 499.15625Q456.20312 499.73438 457.01562 499.73438Q457.57812 499.73438 457.96875 499.5Q458.375 499.26562 458.6875 498.875L459.34375 499.39062Q458.54688 500.625 456.95312 500.625ZM456.8125 494.9375Q456.15625 494.9375 455.70312 495.42188Q455.26562 495.89062 455.17188 496.75L458.34375 496.75L458.34375 496.67188Q458.29688 495.84375 457.89062 495.39062Q457.5 494.9375 456.8125 494.9375ZM464.23438 500.5Q464.14062 500.3125 464.07812 499.82812Q463.32812 500.625 462.28125 500.625Q461.34375 500.625 460.73438 500.09375Q460.14062 499.5625 460.14062 498.73438Q460.14062 497.75 460.89062 497.20312Q461.64062 496.65625 463.01562 496.65625L464.0625 496.65625L464.0625 496.15625Q464.0625 495.59375 463.71875 495.26562Q463.39062 494.92188 462.71875 494.92188Q462.14062 494.92188 461.75 495.21875Q461.35938 495.5 461.35938 495.92188L460.26562 495.92188Q460.26562 495.4375 460.59375 495.0Q460.9375 494.5625 461.51562 494.3125Q462.09375 494.04688 462.78125 494.04688Q463.89062 494.04688 464.5 494.59375Q465.125 495.14062 465.15625 496.09375L465.15625 499.01562Q465.15625 499.89062 465.375 500.40625L465.375 500.5L464.23438 500.5ZM462.4375 499.67188Q462.95312 499.67188 463.40625 499.40625Q463.85938 499.14062 464.0625 498.71875L464.0625 497.42188L463.21875 497.42188Q461.21875 497.42188 461.21875 498.59375Q461.21875 499.09375 461.5625 499.39062Q461.90625 499.67188 462.4375 499.67188ZM470.39062 495.125Q470.14062 495.09375 469.85938 495.09375Q468.78125 495.09375 468.40625 496.0L468.40625 500.5L467.32812 500.5L467.32812 494.15625L468.375 494.15625L468.39062 494.89062Q468.92188 494.04688 469.90625 494.04688Q470.21875 494.04688 470.39062 494.125L470.39062 495.125Z" fill-rule="nonzero"/><path fill="#424242" d="M29.96875 335.8958L36.921875 333.09894L29.96875 330.3177L29.96875 328.84894L38.5 328.84894L38.5 329.97394L35.171875 329.97394L31.59375 329.86456L38.5 332.67706L38.5 333.53644L31.609375 336.3333L35.171875 336.22394L38.5 336.22394L38.5 337.34894L29.96875 337.34894L29.96875 335.8958ZM38.5 326.3333L38.5 327.41144L32.15625 327.41144L32.15625 326.3333L38.5 326.3333ZM30.484375 327.5052Q30.21875 327.5052 30.03125 327.34894Q29.84375 327.17706 29.84375 326.86456Q29.84375 326.55206 30.03125 326.3958Q30.21875 326.22394 30.484375 326.22394Q30.734375 326.22394 30.921875 326.3958Q31.09375 326.55206 31.09375 326.86456Q31.09375 327.17706 30.921875 327.34894Q30.734375 327.5052 30.484375 327.5052ZM32.15625 323.48956L32.953125 323.4583Q32.046875 322.72394 32.046875 321.55206Q32.046875 319.53644 34.3125 319.5208L38.5 319.5208L38.5 320.61456L34.296875 320.61456Q33.625 320.61456 33.296875 320.92706Q32.96875 321.22394 32.96875 321.8802Q32.96875 322.41144 33.25 322.8177Q33.53125 323.2083 33.984375 323.42706L38.5 323.42706L38.5 324.5052L32.15625 324.5052L32.15625 323.48956ZM37.875 313.59894Q38.625 314.22394 38.625 315.4583Q38.625 316.47394 38.03125 317.0052Q37.4375 317.53644 36.28125 317.53644L32.15625 317.53644L32.15625 316.4583L36.25 316.4583Q37.703125 316.4583 37.703125 315.28644Q37.703125 314.03644 36.765625 313.6302L32.15625 313.6302L32.15625 312.53644L38.5 312.53644L38.5 313.5677L37.875 313.59894ZM30.625 309.03644L32.15625 309.03644L32.15625 307.86456L33.0 307.86456L33.0 309.03644L36.921875 309.03644Q37.3125 309.03644 37.5 308.8802Q37.6875 308.72394 37.6875 308.34894Q37.6875 308.16144 37.625 307.8333L38.5 307.8333Q38.625 308.2552 38.625 308.66144Q38.625 309.3802 38.1875 309.7552Q37.734375 310.1302 36.921875 310.1302L33.0 310.1302L33.0 311.28644L32.15625 311.28644L32.15625 310.1302L30.625 310.1302L30.625 309.03644ZM38.625 303.8802Q38.625 305.17706 37.78125 305.98956Q36.921875 306.78644 35.5 306.78644L35.3125 306.78644Q34.359375 306.78644 33.625 306.42706Q32.875 306.0677 32.46875 305.42706Q32.046875 304.7708 32.046875 304.0208Q32.046875 302.78644 32.859375 302.09894Q33.671875 301.41144 35.1875 301.41144L35.640625 301.41144L35.640625 305.7083Q36.578125 305.67706 37.15625 305.16144Q37.734375 304.6302 37.734375 303.8177Q37.734375 303.2552 37.5 302.86456Q37.265625 302.4583 36.875 302.1458L37.390625 301.48956Q38.625 302.28644 38.625 303.8802ZM32.9375 304.0208Q32.9375 304.67706 33.421875 305.1302Q33.890625 305.5677 34.75 305.66144L34.75 302.48956L34.671875 302.48956Q33.84375 302.53644 33.390625 302.9427Q32.9375 303.3333 32.9375 304.0208ZM36.8125 296.8177Q36.375 296.8177 36.140625 297.16144Q35.890625 297.48956 35.71875 298.3177Q35.546875 299.1302 35.296875 299.61456Q35.046875 300.09894 34.71875 300.3333Q34.375 300.55206 33.90625 300.55206Q33.125 300.55206 32.59375 299.8958Q32.046875 299.23956 32.046875 298.2083Q32.046875 297.1302 32.609375 296.47394Q33.15625 295.80206 34.015625 295.80206L34.015625 296.8802Q33.578125 296.8802 33.265625 297.2708Q32.9375 297.6458 32.9375 298.2083Q32.9375 298.80206 33.203125 299.1458Q33.453125 299.47394 33.859375 299.47394Q34.25 299.47394 34.453125 299.16144Q34.65625 298.84894 34.84375 298.03644Q35.015625 297.22394 35.265625 296.72394Q35.515625 296.22394 35.875 295.98956Q36.234375 295.73956 36.734375 295.73956Q37.59375 295.73956 38.109375 296.42706Q38.625 297.09894 38.625 298.17706Q38.625 298.9427 38.359375 299.53644Q38.078125 300.11456 37.59375 300.4427Q37.109375 300.7708 36.546875 300.7708L36.546875 299.6927Q37.09375 299.66144 37.421875 299.2552Q37.734375 298.84894 37.734375 298.17706Q37.734375 297.5677 37.484375 297.1927Q37.234375 296.8177 36.8125 296.8177ZM35.265625 291.80206Q34.34375 291.80206 33.59375 291.4427Q32.84375 291.0677 32.453125 290.41144Q32.046875 289.7552 32.046875 288.92706Q32.046875 287.6302 32.9375 286.8333Q33.828125 286.0208 35.328125 286.0208L35.40625 286.0208Q36.328125 286.0208 37.0625 286.3802Q37.796875 286.73956 38.21875 287.3958Q38.625 288.05206 38.625 288.91144Q38.625 290.1927 37.734375 291.0052Q36.828125 291.80206 35.34375 291.80206L35.265625 291.80206ZM35.40625 290.7083Q36.453125 290.7083 37.09375 290.22394Q37.734375 289.72394 37.734375 288.91144Q37.734375 288.0833 37.09375 287.59894Q36.4375 287.11456 35.265625 287.11456Q34.234375 287.11456 33.59375 287.61456Q32.9375 288.09894 32.9375 288.92706Q32.9375 289.72394 33.578125 290.22394Q34.203125 290.7083 35.40625 290.7083ZM38.5 283.97394L33.0 283.97394L33.0 284.97394L32.15625 284.97394L32.15625 283.97394L31.515625 283.97394Q30.484375 283.97394 29.9375 283.4427Q29.375 282.8958 29.375 281.8958Q29.375 281.5208 29.46875 281.1458L30.359375 281.2083Q30.296875 281.48956 30.296875 281.78644Q30.296875 282.3177 30.609375 282.61456Q30.921875 282.8958 31.484375 282.8958L32.15625 282.8958L32.15625 281.53644L33.0 281.53644L33.0 282.8958L38.5 282.8958L38.5 283.97394ZM38.5 276.1302L38.5 277.2552L29.96875 277.2552L29.96875 276.1302L38.5 276.1302ZM32.15625 273.48956L32.953125 273.4583Q32.046875 272.72394 32.046875 271.55206Q32.046875 269.53644 34.3125 269.5208L38.5 269.5208L38.5 270.61456L34.296875 270.61456Q33.625 270.61456 33.296875 270.92706Q32.96875 271.22394 32.96875 271.8802Q32.96875 272.41144 33.25 272.8177Q33.53125 273.2083 33.984375 273.42706L38.5 273.42706L38.5 274.5052L32.15625 274.5052L32.15625 273.48956ZM30.625 266.03644L32.15625 266.03644L32.15625 264.86456L33.0 264.86456L33.0 266.03644L36.921875 266.03644Q37.3125 266.03644 37.5 265.8802Q37.6875 265.72394 37.6875 265.34894Q37.6875 265.16144 37.625 264.8333L38.5 264.8333Q38.625 265.2552 38.625 265.66144Q38.625 266.3802 38.1875 266.7552Q37.734375 267.1302 36.921875 267.1302L33.0 267.1302L33.0 268.28644L32.15625 268.28644L32.15625 267.1302L30.625 267.1302L30.625 266.03644ZM38.625 260.8802Q38.625 262.17706 37.78125 262.98956Q36.921875 263.78644 35.5 263.78644L35.3125 263.78644Q34.359375 263.78644 33.625 263.42706Q32.875 263.0677 32.46875 262.42706Q32.046875 261.7708 32.046875 261.0208Q32.046875 259.78644 32.859375 259.09894Q33.671875 258.41144 35.1875 258.41144L35.640625 258.41144L35.640625 262.7083Q36.578125 262.67706 37.15625 262.16144Q37.734375 261.6302 37.734375 260.8177Q37.734375 260.2552 37.5 259.86456Q37.265625 259.4583 36.875 259.1458L37.390625 258.48956Q38.625 259.28644 38.625 260.8802ZM32.9375 261.0208Q32.9375 261.67706 33.421875 262.1302Q33.890625 262.5677 34.75 262.66144L34.75 259.48956L34.671875 259.48956Q33.84375 259.53644 33.390625 259.9427Q32.9375 260.3333 32.9375 261.0208ZM33.125 254.4427Q33.09375 254.6927 33.09375 254.97395Q33.09375 256.05206 34.0 256.42706L38.5 256.42706L38.5 257.5052L32.15625 257.5052L32.15625 256.4583L32.890625 256.4427Q32.046875 255.91145 32.046875 254.92708Q32.046875 254.61458 32.125 254.4427L33.125 254.4427ZM32.15625 252.48958L32.953125 252.45833Q32.046875 251.72395 32.046875 250.55208Q32.046875 248.53645 34.3125 248.52083L38.5 248.52083L38.5 249.61458L34.296875 249.61458Q33.625 249.61458 33.296875 249.92708Q32.96875 250.22395 32.96875 250.8802Q32.96875 251.41145 33.25 251.8177Q33.53125 252.20833 33.984375 252.42708L38.5 252.42708L38.5 253.5052L32.15625 253.5052L32.15625 252.48958ZM38.625 243.8802Q38.625 245.17708 37.78125 245.98958Q36.921875 246.78645 35.5 246.78645L35.3125 246.78645Q34.359375 246.78645 33.625 246.42708Q32.875 246.0677 32.46875 245.42708Q32.046875 244.77083 32.046875 244.02083Q32.046875 242.78645 32.859375 242.09895Q33.671875 241.41145 35.1875 241.41145L35.640625 241.41145L35.640625 245.70833Q36.578125 245.67708 37.15625 245.16145Q37.734375 244.6302 37.734375 243.8177Q37.734375 243.2552 37.5 242.86458Q37.265625 242.45833 36.875 242.14583L37.390625 241.48958Q38.625 242.28645 38.625 243.8802ZM32.9375 244.02083Q32.9375 244.67708 33.421875 245.1302Q33.890625 245.5677 34.75 245.66145L34.75 242.48958L34.671875 242.48958Q33.84375 242.53645 33.390625 242.9427Q32.9375 243.33333 32.9375 244.02083ZM30.625 239.03644L32.15625 239.03644L32.15625 237.86456L33.0 237.86456L33.0 239.03644L36.921875 239.03644Q37.3125 239.03644 37.5 238.88019Q37.6875 238.72394 37.6875 238.34894Q37.6875 238.16144 37.625 237.83331L38.5 237.83331Q38.625 238.25519 38.625 238.66144Q38.625 239.38019 38.1875 239.75519Q37.734375 240.13019 36.921875 240.13019L33.0 240.13019L33.0 241.28645L32.15625 241.28645L32.15625 240.13019L30.625 240.13019L30.625 239.03644ZM29.96875 227.33331L35.765625 227.33331Q36.96875 227.34894 37.75 228.09894Q38.515625 228.84894 38.609375 230.13019L38.625 230.44269Q38.625 231.83331 37.875 232.67706Q37.109375 233.50519 35.78125 233.50519L29.96875 233.50519L29.96875 232.39581L35.75 232.39581Q36.671875 232.39581 37.1875 231.89581Q37.703125 231.38019 37.703125 230.44269Q37.703125 229.47394 37.1875 228.97394Q36.671875 228.47394 35.75 228.47394L29.96875 228.47394L29.96875 227.33331ZM36.8125 221.81769Q36.375 221.81769 36.140625 222.16144Q35.890625 222.48956 35.71875 223.31769Q35.546875 224.13019 35.296875 224.61456Q35.046875 225.09894 34.71875 225.33331Q34.375 225.55206 33.90625 225.55206Q33.125 225.55206 32.59375 224.89581Q32.046875 224.23956 32.046875 223.20831Q32.046875 222.13019 32.609375 221.47394Q33.15625 220.80206 34.015625 220.80206L34.015625 221.88019Q33.578125 221.88019 33.265625 222.27081Q32.9375 222.64581 32.9375 223.20831Q32.9375 223.80206 33.203125 224.14581Q33.453125 224.47394 33.859375 224.47394Q34.25 224.47394 34.453125 224.16144Q34.65625 223.84894 34.84375 223.03644Q35.015625 222.22394 35.265625 221.72394Q35.515625 221.22394 35.875 220.98956Q36.234375 220.73956 36.734375 220.73956Q37.59375 220.73956 38.109375 221.42706Q38.625 222.09894 38.625 223.17706Q38.625 223.94269 38.359375 224.53644Q38.078125 225.11456 37.59375 225.44269Q37.109375 225.77081 36.546875 225.77081L36.546875 224.69269Q37.09375 224.66144 37.421875 224.25519Q37.734375 223.84894 37.734375 223.17706Q37.734375 222.56769 37.484375 222.19269Q37.234375 221.81769 36.8125 221.81769ZM38.5 215.59894Q38.3125 215.69269 37.828125 215.75519Q38.625 216.50519 38.625 217.55206Q38.625 218.48956 38.09375 219.09894Q37.5625 219.69269 36.734375 219.69269Q35.75 219.69269 35.203125 218.94269Q34.65625 218.19269 34.65625 216.81769L34.65625 215.77081L34.15625 215.77081Q33.59375 215.77081 33.265625 216.11456Q32.921875 216.44269 32.921875 217.11456Q32.921875 217.69269 33.21875 218.08331Q33.5 218.47394 33.921875 218.47394L33.921875 219.56769Q33.4375 219.56769 33.0 219.23956Q32.5625 218.89581 32.3125 218.31769Q32.046875 217.73956 32.046875 217.05206Q32.046875 215.94269 32.59375 215.33331Q33.140625 214.70831 34.09375 214.67706L37.015625 214.67706Q37.890625 214.67706 38.40625 214.45831L38.5 214.45831L38.5 215.59894ZM37.671875 217.39581Q37.671875 216.88019 37.40625 216.42706Q37.140625 215.97394 36.71875 215.77081L35.421875 215.77081L35.421875 216.61456Q35.421875 218.61456 36.59375 218.61456Q37.09375 218.61456 37.390625 218.27081Q37.671875 217.92706 37.671875 217.39581ZM35.28125 212.77081Q33.796875 212.77081 32.921875 212.08331Q32.046875 211.39581 32.046875 210.27081Q32.046875 209.11456 32.859375 208.45831L32.15625 208.41144L32.15625 207.41144L38.34375 207.41144Q39.578125 207.41144 40.28125 208.14581Q41.0 208.88019 41.0 210.09894Q41.0 210.78644 40.703125 211.44269Q40.40625 212.09894 39.90625 212.44269L39.25 211.88019Q40.109375 211.19269 40.109375 210.17706Q40.109375 209.39581 39.65625 208.95831Q39.21875 208.50519 38.40625 208.50519L37.859375 208.50519Q38.625 209.16144 38.625 210.28644Q38.625 211.39581 37.734375 212.08331Q36.828125 212.77081 35.28125 212.77081ZM35.40625 211.67706Q36.46875 211.67706 37.09375 211.23956Q37.703125 210.80206 37.703125 210.00519Q37.703125 208.98956 36.765625 208.50519L33.875 208.50519Q32.96875 209.00519 32.96875 210.00519Q32.96875 210.78644 33.578125 211.23956Q34.1875 211.67706 35.40625 211.67706ZM38.625 202.88019Q38.625 204.17706 37.78125 204.98956Q36.921875 205.78644 35.5 205.78644L35.3125 205.78644Q34.359375 205.78644 33.625 205.42706Q32.875 205.06769 32.46875 204.42706Q32.046875 203.77081 32.046875 203.02081Q32.046875 201.78644 32.859375 201.09894Q33.671875 200.41144 35.1875 200.41144L35.640625 200.41144L35.640625 204.70831Q36.578125 204.67706 37.15625 204.16144Q37.734375 203.63019 37.734375 202.81769Q37.734375 202.25519 37.5 201.86456Q37.265625 201.45831 36.875 201.14581L37.390625 200.48956Q38.625 201.28644 38.625 202.88019ZM32.9375 203.02081Q32.9375 203.67706 33.421875 204.13019Q33.890625 204.56769 34.75 204.66144L34.75 201.48956L34.671875 201.48956Q33.84375 201.53644 33.390625 201.94269Q32.9375 202.33331 32.9375 203.02081Z" fill-rule="nonzero"/><path fill="#757575" d="M79.5625 450.35938Q79.5625 452.26562 78.90625 453.20312Q78.265625 454.125 76.875 454.125Q75.515625 454.125 74.859375 453.21875Q74.203125 452.3125 74.171875 450.5L74.171875 449.0625Q74.171875 447.17188 74.8125 446.26562Q75.46875 445.34375 76.859375 445.34375Q78.234375 445.34375 78.890625 446.23438Q79.546875 447.10938 79.5625 448.95312L79.5625 450.35938ZM78.46875 448.875Q78.46875 447.5 78.078125 446.875Q77.703125 446.23438 76.859375 446.23438Q76.03125 446.23438 75.640625 446.875Q75.265625 447.5 75.265625 448.79688L75.265625 450.53125Q75.265625 451.90625 75.65625 452.57812Q76.0625 453.23438 76.875 453.23438Q77.671875 453.23438 78.0625 452.60938Q78.453125 451.98438 78.46875 450.65625L78.46875 448.875Z" fill-rule="nonzero"/><path fill="#757575" d="M67.703125 356.2604L68.140625 352.0104L72.515625 352.0104L72.515625 353.0104L69.0625 353.0104L68.796875 355.33853Q69.4375 354.96353 70.234375 354.96353Q71.390625 354.96353 72.078125 355.74478Q72.765625 356.5104 72.765625 357.8229Q72.765625 359.1354 72.046875 359.90103Q71.34375 360.66666 70.0625 360.66666Q68.9375 360.66666 68.21875 360.04166Q67.5 359.40103 67.40625 358.29166L68.421875 358.29166Q68.53125 359.02603 68.953125 359.40103Q69.375 359.77603 70.0625 359.77603Q70.8125 359.77603 71.25 359.2604Q71.6875 358.74478 71.6875 357.83853Q71.6875 356.97916 71.21875 356.46353Q70.75 355.9479 69.96875 355.9479Q69.265625 355.9479 68.859375 356.24478L68.578125 356.47916L67.703125 356.2604ZM79.5625 356.90103Q79.5625 358.80728 78.90625 359.74478Q78.265625 360.66666 76.875 360.66666Q75.515625 360.66666 74.859375 359.7604Q74.203125 358.85416 74.171875 357.04166L74.171875 355.60416Q74.171875 353.71353 74.8125 352.80728Q75.46875 351.8854 76.859375 351.8854Q78.234375 351.8854 78.890625 352.77603Q79.546875 353.65103 79.5625 355.49478L79.5625 356.90103ZM78.46875 355.41666Q78.46875 354.04166 78.078125 353.41666Q77.703125 352.77603 76.859375 352.77603Q76.03125 352.77603 75.640625 353.41666Q75.265625 354.04166 75.265625 355.33853L75.265625 357.0729Q75.265625 358.4479 75.65625 359.11978Q76.0625 359.77603 76.875 359.77603Q77.671875 359.77603 78.0625 359.15103Q78.453125 358.52603 78.46875 357.1979L78.46875 355.41666Z" fill-rule="nonzero"/><path fill="#757575" d="M63.765625 267.08334L62.6875 267.08334L62.6875 259.8646L60.5 260.66147L60.5 259.6771L63.609375 258.50522L63.765625 258.50522L63.765625 267.08334ZM72.5625 263.44272Q72.5625 265.34897 71.90625 266.28647Q71.265625 267.20834 69.875 267.20834Q68.515625 267.20834 67.859375 266.3021Q67.203125 265.39584 67.171875 263.58334L67.171875 262.14584Q67.171875 260.25522 67.8125 259.34897Q68.46875 258.4271 69.859375 258.4271Q71.234375 258.4271 71.890625 259.31772Q72.546875 260.19272 72.5625 262.03647L72.5625 263.44272ZM71.46875 261.95834Q71.46875 260.58334 71.078125 259.95834Q70.703125 259.31772 69.859375 259.31772Q69.03125 259.31772 68.640625 259.95834Q68.265625 260.58334 68.265625 261.88022L68.265625 263.6146Q68.265625 264.9896 68.65625 265.66147Q69.0625 266.31772 69.875 266.31772Q70.671875 266.31772 71.0625 265.69272Q71.453125 265.06772 71.46875 263.7396L71.46875 261.95834ZM79.5625 263.44272Q79.5625 265.34897 78.90625 266.28647Q78.265625 267.20834 76.875 267.20834Q75.515625 267.20834 74.859375 266.3021Q74.203125 265.39584 74.171875 263.58334L74.171875 262.14584Q74.171875 260.25522 74.8125 259.34897Q75.46875 258.4271 76.859375 258.4271Q78.234375 258.4271 78.890625 259.31772Q79.546875 260.19272 79.5625 262.03647L79.5625 263.44272ZM78.46875 261.95834Q78.46875 260.58334 78.078125 259.95834Q77.703125 259.31772 76.859375 259.31772Q76.03125 259.31772 75.640625 259.95834Q75.265625 260.58334 75.265625 261.88022L75.265625 263.6146Q75.265625 264.9896 75.65625 265.66147Q76.0625 266.31772 76.875 266.31772Q77.671875 266.31772 78.0625 265.69272Q78.453125 265.06772 78.46875 263.7396L78.46875 261.95834Z" fill-rule="nonzero"/><path fill="#757575" d="M63.765625 173.625L62.6875 173.625L62.6875 166.40625L60.5 167.20312L60.5 166.21875L63.609375 165.04688L63.765625 165.04688L63.765625 173.625ZM67.703125 169.34375L68.140625 165.09375L72.515625 165.09375L72.515625 166.09375L69.0625 166.09375L68.796875 168.42188Q69.4375 168.04688 70.234375 168.04688Q71.390625 168.04688 72.078125 168.82812Q72.765625 169.59375 72.765625 170.90625Q72.765625 172.21875 72.046875 172.98438Q71.34375 173.75 70.0625 173.75Q68.9375 173.75 68.21875 173.125Q67.5 172.48438 67.40625 171.375L68.421875 171.375Q68.53125 172.10938 68.953125 172.48438Q69.375 172.85938 70.0625 172.85938Q70.8125 172.85938 71.25 172.34375Q71.6875 171.82812 71.6875 170.92188Q71.6875 170.0625 71.21875 169.54688Q70.75 169.03125 69.96875 169.03125Q69.265625 169.03125 68.859375 169.32812L68.578125 169.5625L67.703125 169.34375ZM79.5625 169.98438Q79.5625 171.89062 78.90625 172.82812Q78.265625 173.75 76.875 173.75Q75.515625 173.75 74.859375 172.84375Q74.203125 171.9375 74.171875 170.125L74.171875 168.6875Q74.171875 166.79688 74.8125 165.89062Q75.46875 164.96875 76.859375 164.96875Q78.234375 164.96875 78.890625 165.85938Q79.546875 166.73438 79.5625 168.57812L79.5625 169.98438ZM78.46875 168.5Q78.46875 167.125 78.078125 166.5Q77.703125 165.85938 76.859375 165.85938Q76.03125 165.85938 75.640625 166.5Q75.265625 167.125 75.265625 168.42188L75.265625 170.15625Q75.265625 171.53125 75.65625 172.20312Q76.0625 172.85938 76.875 172.85938Q77.671875 172.85938 78.0625 172.23438Q78.453125 171.60938 78.46875 170.28125L78.46875 168.5Z" fill-rule="nonzero"/><path fill="#757575" d="M65.796875 80.166664L60.203125 80.166664L60.203125 79.385414L63.15625 76.104164Q63.8125 75.354164 64.0625 74.90104Q64.3125 74.43229 64.3125 73.93229Q64.3125 73.260414 63.90625 72.83854Q63.515625 72.40104 62.828125 72.40104Q62.03125 72.40104 61.578125 72.86979Q61.125 73.322914 61.125 74.15104L60.046875 74.15104Q60.046875 72.96354 60.796875 72.24479Q61.5625 71.510414 62.828125 71.510414Q64.03125 71.510414 64.71875 72.135414Q65.40625 72.760414 65.40625 73.80729Q65.40625 75.05729 63.796875 76.80729L61.515625 79.27604L65.796875 79.27604L65.796875 80.166664ZM72.5625 76.52604Q72.5625 78.43229 71.90625 79.36979Q71.265625 80.291664 69.875 80.291664Q68.515625 80.291664 67.859375 79.385414Q67.203125 78.479164 67.171875 76.666664L67.171875 75.229164Q67.171875 73.33854 67.8125 72.43229Q68.46875 71.510414 69.859375 71.510414Q71.234375 71.510414 71.890625 72.40104Q72.546875 73.27604 72.5625 75.11979L72.5625 76.52604ZM71.46875 75.041664Q71.46875 73.666664 71.078125 73.041664Q70.703125 72.40104 69.859375 72.40104Q69.03125 72.40104 68.640625 73.041664Q68.265625 73.666664 68.265625 74.96354L68.265625 76.697914Q68.265625 78.072914 68.65625 78.74479Q69.0625 79.40104 69.875 79.40104Q70.671875 79.40104 71.0625 78.77604Q71.453125 78.15104 71.46875 76.822914L71.46875 75.041664ZM79.5625 76.52604Q79.5625 78.43229 78.90625 79.36979Q78.265625 80.291664 76.875 80.291664Q75.515625 80.291664 74.859375 79.385414Q74.203125 78.479164 74.171875 76.666664L74.171875 75.229164Q74.171875 73.33854 74.8125 72.43229Q75.46875 71.510414 76.859375 71.510414Q78.234375 71.510414 78.890625 72.40104Q79.546875 73.27604 79.5625 75.11979L79.5625 76.52604ZM78.46875 75.041664Q78.46875 73.666664 78.078125 73.041664Q77.703125 72.40104 76.859375 72.40104Q76.03125 72.40104 75.640625 73.041664Q75.265625 73.666664 75.265625 74.96354L75.265625 76.697914Q75.265625 78.072914 75.65625 78.74479Q76.0625 79.40104 76.875 79.40104Q77.671875 79.40104 78.0625 78.77604Q78.453125 78.15104 78.46875 76.822914L78.46875 75.041664Z" fill-rule="nonzero"/><path fill="#757575" d="M123.04357 467.5L117.44982 467.5L117.44982 466.71875L120.40295 463.4375Q121.0592 462.6875 121.3092 462.23438Q121.5592 461.76562 121.5592 461.26562Q121.5592 460.59375 121.15295 460.17188Q120.76232 459.73438 120.07482 459.73438Q119.27795 459.73438 118.82482 460.20312Q118.3717 460.65625 118.3717 461.48438L117.29357 461.48438Q117.29357 460.29688 118.04357 459.57812Q118.8092 458.84375 120.07482 458.84375Q121.27795 458.84375 121.96545 459.46875Q122.65295 460.09375 122.65295 461.14062Q122.65295 462.39062 121.04357 464.14062L118.76232 466.60938L123.04357 466.60938L123.04357 467.5ZM129.8092 463.85938Q129.8092 465.76562 129.15295 466.70312Q128.51233 467.625 127.1217 467.625Q125.76232 467.625 125.10607 466.71875Q124.44982 465.8125 124.41857 464.0L124.41857 462.5625Q124.41857 460.67188 125.0592 459.76562Q125.71545 458.84375 127.10607 458.84375Q128.48108 458.84375 129.13733 459.73438Q129.79358 460.60938 129.8092 462.45312L129.8092 463.85938ZM128.71545 462.375Q128.71545 461.0 128.32483 460.375Q127.94982 459.73438 127.10607 459.73438Q126.27795 459.73438 125.88732 460.375Q125.51232 461.0 125.51232 462.29688L125.51232 464.03125Q125.51232 465.40625 125.90295 466.07812Q126.3092 466.73438 127.1217 466.73438Q127.91857 466.73438 128.3092 466.10938Q128.69983 465.48438 128.71545 464.15625L128.71545 462.375ZM135.01233 467.5L133.9342 467.5L133.9342 460.28125L131.7467 461.07812L131.7467 460.09375L134.85608 458.92188L135.01233 458.92188L135.01233 467.5ZM142.01233 467.5L140.9342 467.5L140.9342 460.28125L138.7467 461.07812L138.7467 460.09375L141.85608 458.92188L142.01233 458.92188L142.01233 467.5Z" fill-rule="nonzero"/><path fill="#757575" d="M188.59424 467.5L183.00049 467.5L183.00049 466.71875L185.95361 463.4375Q186.60986 462.6875 186.85986 462.23438Q187.10986 461.76562 187.10986 461.26562Q187.10986 460.59375 186.70361 460.17188Q186.31299 459.73438 185.62549 459.73438Q184.82861 459.73438 184.37549 460.20312Q183.92236 460.65625 183.92236 461.48438L182.84424 461.48438Q182.84424 460.29688 183.59424 459.57812Q184.35986 458.84375 185.62549 458.84375Q186.82861 458.84375 187.51611 459.46875Q188.20361 460.09375 188.20361 461.14062Q188.20361 462.39062 186.59424 464.14062L184.31299 466.60938L188.59424 466.60938L188.59424 467.5ZM195.35986 463.85938Q195.35986 465.76562 194.70361 466.70312Q194.06299 467.625 192.67236 467.625Q191.31299 467.625 190.65674 466.71875Q190.00049 465.8125 189.96924 464.0L189.96924 462.5625Q189.96924 460.67188 190.60986 459.76562Q191.26611 458.84375 192.65674 458.84375Q194.03174 458.84375 194.68799 459.73438Q195.34424 460.60938 195.35986 462.45312L195.35986 463.85938ZM194.26611 462.375Q194.26611 461.0 193.87549 460.375Q193.50049 459.73438 192.65674 459.73438Q191.82861 459.73438 191.43799 460.375Q191.06299 461.0 191.06299 462.29688L191.06299 464.03125Q191.06299 465.40625 191.45361 466.07812Q191.85986 466.73438 192.67236 466.73438Q193.46924 466.73438 193.85986 466.10938Q194.25049 465.48438 194.26611 464.15625L194.26611 462.375ZM200.56299 467.5L199.48486 467.5L199.48486 460.28125L197.29736 461.07812L197.29736 460.09375L200.40674 458.92188L200.56299 458.92188L200.56299 467.5ZM209.59424 467.5L204.00049 467.5L204.00049 466.71875L206.95361 463.4375Q207.60986 462.6875 207.85986 462.23438Q208.10986 461.76562 208.10986 461.26562Q208.10986 460.59375 207.70361 460.17188Q207.31299 459.73438 206.62549 459.73438Q205.82861 459.73438 205.37549 460.20312Q204.92236 460.65625 204.92236 461.48438L203.84424 461.48438Q203.84424 460.29688 204.59424 459.57812Q205.35986 458.84375 206.62549 458.84375Q207.82861 458.84375 208.51611 459.46875Q209.20361 460.09375 209.20361 461.14062Q209.20361 462.39062 207.59424 464.14062L205.31299 466.60938L209.59424 466.60938L209.59424 467.5Z" fill-rule="nonzero"/><path fill="#757575" d="M254.1449 467.5L248.55115 467.5L248.55115 466.71875L251.50427 463.4375Q252.16052 462.6875 252.41052 462.23438Q252.66052 461.76562 252.66052 461.26562Q252.66052 460.59375 252.25427 460.17188Q251.86365 459.73438 251.17615 459.73438Q250.37927 459.73438 249.92615 460.20312Q249.47302 460.65625 249.47302 461.48438L248.3949 461.48438Q248.3949 460.29688 249.1449 459.57812Q249.91052 458.84375 251.17615 458.84375Q252.37927 458.84375 253.06677 459.46875Q253.75427 460.09375 253.75427 461.14062Q253.75427 462.39062 252.1449 464.14062L249.86365 466.60938L254.1449 466.60938L254.1449 467.5ZM260.91052 463.85938Q260.91052 465.76562 260.25427 466.70312Q259.61365 467.625 258.22302 467.625Q256.86365 467.625 256.2074 466.71875Q255.55115 465.8125 255.5199 464.0L255.5199 462.5625Q255.5199 460.67188 256.16052 459.76562Q256.81677 458.84375 258.2074 458.84375Q259.5824 458.84375 260.23865 459.73438Q260.8949 460.60938 260.91052 462.45312L260.91052 463.85938ZM259.81677 462.375Q259.81677 461.0 259.42615 460.375Q259.05115 459.73438 258.2074 459.73438Q257.37927 459.73438 256.98865 460.375Q256.61365 461.0 256.61365 462.29688L256.61365 464.03125Q256.61365 465.40625 257.00427 466.07812Q257.41052 466.73438 258.22302 466.73438Q259.0199 466.73438 259.41052 466.10938Q259.80115 465.48438 259.81677 464.15625L259.81677 462.375ZM266.11365 467.5L265.03552 467.5L265.03552 460.28125L262.84802 461.07812L262.84802 460.09375L265.9574 458.92188L266.11365 458.92188L266.11365 467.5ZM271.12927 462.70312L271.94177 462.70312Q272.72302 462.6875 273.16052 462.29688Q273.59802 461.90625 273.59802 461.23438Q273.59802 459.73438 272.09802 459.73438Q271.3949 459.73438 270.97302 460.14062Q270.56677 460.54688 270.56677 461.20312L269.47302 461.20312Q269.47302 460.1875 270.2074 459.51562Q270.9574 458.84375 272.09802 458.84375Q273.30115 458.84375 273.98865 459.48438Q274.67615 460.125 274.67615 461.26562Q274.67615 461.82812 274.31677 462.34375Q273.9574 462.85938 273.3324 463.125Q274.03552 463.34375 274.41052 463.85938Q274.80115 464.375 274.80115 465.125Q274.80115 466.26562 274.05115 466.95312Q273.30115 467.625 272.09802 467.625Q270.91052 467.625 270.1449 466.96875Q269.3949 466.3125 269.3949 465.25L270.48865 465.25Q270.48865 465.92188 270.92615 466.32812Q271.36365 466.73438 272.11365 466.73438Q272.8949 466.73438 273.30115 466.32812Q273.72302 465.90625 273.72302 465.14062Q273.72302 464.40625 273.2699 464.01562Q272.81677 463.60938 271.94177 463.59375L271.12927 463.59375L271.12927 462.70312Z" fill-rule="nonzero"/><path fill="#757575" d="M319.69556 467.5L314.1018 467.5L314.1018 466.71875L317.05493 463.4375Q317.71118 462.6875 317.96118 462.23438Q318.21118 461.76562 318.21118 461.26562Q318.21118 460.59375 317.80493 460.17188Q317.4143 459.73438 316.7268 459.73438Q315.92993 459.73438 315.4768 460.20312Q315.02368 460.65625 315.02368 461.48438L313.94556 461.48438Q313.94556 460.29688 314.69556 459.57812Q315.46118 458.84375 316.7268 458.84375Q317.92993 458.84375 318.61743 459.46875Q319.30493 460.09375 319.30493 461.14062Q319.30493 462.39062 317.69556 464.14062L315.4143 466.60938L319.69556 466.60938L319.69556 467.5ZM326.46118 463.85938Q326.46118 465.76562 325.80493 466.70312Q325.1643 467.625 323.77368 467.625Q322.4143 467.625 321.75806 466.71875Q321.1018 465.8125 321.07056 464.0L321.07056 462.5625Q321.07056 460.67188 321.71118 459.76562Q322.36743 458.84375 323.75806 458.84375Q325.13306 458.84375 325.7893 459.73438Q326.44556 460.60938 326.46118 462.45312L326.46118 463.85938ZM325.36743 462.375Q325.36743 461.0 324.9768 460.375Q324.6018 459.73438 323.75806 459.73438Q322.92993 459.73438 322.5393 460.375Q322.1643 461.0 322.1643 462.29688L322.1643 464.03125Q322.1643 465.40625 322.55493 466.07812Q322.96118 466.73438 323.77368 466.73438Q324.57056 466.73438 324.96118 466.10938Q325.3518 465.48438 325.36743 464.15625L325.36743 462.375ZM331.6643 467.5L330.58618 467.5L330.58618 460.28125L328.39868 461.07812L328.39868 460.09375L331.50806 458.92188L331.6643 458.92188L331.6643 467.5ZM339.67993 464.64062L340.86743 464.64062L340.86743 465.51562L339.67993 465.51562L339.67993 467.5L338.6018 467.5L338.6018 465.51562L334.71118 465.51562L334.71118 464.875L338.52368 458.96875L339.67993 458.96875L339.67993 464.64062ZM335.94556 464.64062L338.6018 464.64062L338.6018 460.45312L338.46118 460.6875L335.94556 464.64062Z" fill-rule="nonzero"/><path fill="#757575" d="M385.24622 467.5L379.65247 467.5L379.65247 466.71875L382.6056 463.4375Q383.26184 462.6875 383.51184 462.23438Q383.76184 461.76562 383.76184 461.26562Q383.76184 460.59375 383.3556 460.17188Q382.96497 459.73438 382.27747 459.73438Q381.4806 459.73438 381.02747 460.20312Q380.57434 460.65625 380.57434 461.48438L379.49622 461.48438Q379.49622 460.29688 380.24622 459.57812Q381.01184 458.84375 382.27747 458.84375Q383.4806 458.84375 384.1681 459.46875Q384.8556 460.09375 384.8556 461.14062Q384.8556 462.39062 383.24622 464.14062L380.96497 466.60938L385.24622 466.60938L385.24622 467.5ZM392.01184 463.85938Q392.01184 465.76562 391.3556 466.70312Q390.71497 467.625 389.32434 467.625Q387.96497 467.625 387.30872 466.71875Q386.65247 465.8125 386.62122 464.0L386.62122 462.5625Q386.62122 460.67188 387.26184 459.76562Q387.9181 458.84375 389.30872 458.84375Q390.68372 458.84375 391.33997 459.73438Q391.99622 460.60938 392.01184 462.45312L392.01184 463.85938ZM390.9181 462.375Q390.9181 461.0 390.52747 460.375Q390.15247 459.73438 389.30872 459.73438Q388.4806 459.73438 388.08997 460.375Q387.71497 461.0 387.71497 462.29688L387.71497 464.03125Q387.71497 465.40625 388.1056 466.07812Q388.51184 466.73438 389.32434 466.73438Q390.12122 466.73438 390.51184 466.10938Q390.90247 465.48438 390.9181 464.15625L390.9181 462.375ZM397.21497 467.5L396.13684 467.5L396.13684 460.28125L393.94934 461.07812L393.94934 460.09375L397.05872 458.92188L397.21497 458.92188L397.21497 467.5ZM401.15247 463.21875L401.58997 458.96875L405.96497 458.96875L405.96497 459.96875L402.51184 459.96875L402.24622 462.29688Q402.88684 461.92188 403.68372 461.92188Q404.83997 461.92188 405.52747 462.70312Q406.21497 463.46875 406.21497 464.78125Q406.21497 466.09375 405.49622 466.85938Q404.7931 467.625 403.51184 467.625Q402.38684 467.625 401.6681 467.0Q400.94934 466.35938 400.8556 465.25L401.87122 465.25Q401.9806 465.98438 402.40247 466.35938Q402.82434 466.73438 403.51184 466.73438Q404.26184 466.73438 404.69934 466.21875Q405.13684 465.70312 405.13684 464.79688Q405.13684 463.9375 404.6681 463.42188Q404.19934 462.90625 403.4181 462.90625Q402.71497 462.90625 402.30872 463.20312L402.02747 463.4375L401.15247 463.21875Z" fill-rule="nonzero"/><path fill="#757575" d="M450.79688 467.5L445.20312 467.5L445.20312 466.71875L448.15625 463.4375Q448.8125 462.6875 449.0625 462.23438Q449.3125 461.76562 449.3125 461.26562Q449.3125 460.59375 448.90625 460.17188Q448.51562 459.73438 447.82812 459.73438Q447.03125 459.73438 446.57812 460.20312Q446.125 460.65625 446.125 461.48438L445.04688 461.48438Q445.04688 460.29688 445.79688 459.57812Q446.5625 458.84375 447.82812 458.84375Q449.03125 458.84375 449.71875 459.46875Q450.40625 460.09375 450.40625 461.14062Q450.40625 462.39062 448.79688 464.14062L446.51562 466.60938L450.79688 466.60938L450.79688 467.5ZM457.5625 463.85938Q457.5625 465.76562 456.90625 466.70312Q456.26562 467.625 454.875 467.625Q453.51562 467.625 452.85938 466.71875Q452.20312 465.8125 452.17188 464.0L452.17188 462.5625Q452.17188 460.67188 452.8125 459.76562Q453.46875 458.84375 454.85938 458.84375Q456.23438 458.84375 456.89062 459.73438Q457.54688 460.60938 457.5625 462.45312L457.5625 463.85938ZM456.46875 462.375Q456.46875 461.0 456.07812 460.375Q455.70312 459.73438 454.85938 459.73438Q454.03125 459.73438 453.64062 460.375Q453.26562 461.0 453.26562 462.29688L453.26562 464.03125Q453.26562 465.40625 453.65625 466.07812Q454.0625 466.73438 454.875 466.73438Q455.67188 466.73438 456.0625 466.10938Q456.45312 465.48438 456.46875 464.15625L456.46875 462.375ZM462.76562 467.5L461.6875 467.5L461.6875 460.28125L459.5 461.07812L459.5 460.09375L462.60938 458.92188L462.76562 458.92188L462.76562 467.5ZM470.46875 458.96875L470.46875 459.875L470.26562 459.875Q469.0 459.90625 468.25 460.64062Q467.5 461.35938 467.375 462.67188Q468.0625 461.90625 469.21875 461.90625Q470.32812 461.90625 471.0 462.6875Q471.67188 463.46875 471.67188 464.71875Q471.67188 466.03125 470.95312 466.82812Q470.23438 467.625 469.01562 467.625Q467.79688 467.625 467.03125 466.6875Q466.28125 465.73438 466.28125 464.25L466.28125 463.84375Q466.28125 461.48438 467.28125 460.23438Q468.28125 458.98438 470.26562 458.96875L470.46875 458.96875ZM469.04688 462.8125Q468.48438 462.8125 468.01562 463.14062Q467.54688 463.46875 467.35938 463.98438L467.35938 464.375Q467.35938 465.4375 467.82812 466.07812Q468.3125 466.71875 469.01562 466.71875Q469.75 466.71875 470.17188 466.1875Q470.59375 465.64062 470.59375 464.76562Q470.59375 463.89062 470.17188 463.35938Q469.75 462.8125 469.04688 462.8125Z" fill-rule="nonzero"/><path fill="#757575" d="M516.34753 467.5L510.75378 467.5L510.75378 466.71875L513.7069 463.4375Q514.36316 462.6875 514.61316 462.23438Q514.86316 461.76562 514.86316 461.26562Q514.86316 460.59375 514.4569 460.17188Q514.0663 459.73438 513.3788 459.73438Q512.5819 459.73438 512.1288 460.20312Q511.67566 460.65625 511.67566 461.48438L510.59753 461.48438Q510.59753 460.29688 511.34753 459.57812Q512.11316 458.84375 513.3788 458.84375Q514.5819 458.84375 515.2694 459.46875Q515.9569 460.09375 515.9569 461.14062Q515.9569 462.39062 514.34753 464.14062L512.0663 466.60938L516.34753 466.60938L516.34753 467.5ZM523.11316 463.85938Q523.11316 465.76562 522.4569 466.70312Q521.8163 467.625 520.42566 467.625Q519.0663 467.625 518.41003 466.71875Q517.7538 465.8125 517.72253 464.0L517.72253 462.5625Q517.72253 460.67188 518.36316 459.76562Q519.0194 458.84375 520.41003 458.84375Q521.78503 458.84375 522.4413 459.73438Q523.09753 460.60938 523.11316 462.45312L523.11316 463.85938ZM522.0194 462.375Q522.0194 461.0 521.6288 460.375Q521.2538 459.73438 520.41003 459.73438Q519.5819 459.73438 519.1913 460.375Q518.8163 461.0 518.8163 462.29688L518.8163 464.03125Q518.8163 465.40625 519.2069 466.07812Q519.61316 466.73438 520.42566 466.73438Q521.22253 466.73438 521.61316 466.10938Q522.0038 465.48438 522.0194 464.15625L522.0194 462.375ZM528.3163 467.5L527.23816 467.5L527.23816 460.28125L525.05066 461.07812L525.05066 460.09375L528.16003 458.92188L528.3163 458.92188L528.3163 467.5ZM537.2694 459.57812L533.73816 467.5L532.59753 467.5L536.11316 459.85938L531.5038 459.85938L531.5038 458.96875L537.2694 458.96875L537.2694 459.57812Z" fill-rule="nonzero"/><path fill="#757575" d="M581.8982 467.5L576.30444 467.5L576.30444 466.71875L579.25757 463.4375Q579.9138 462.6875 580.1638 462.23438Q580.4138 461.76562 580.4138 461.26562Q580.4138 460.59375 580.00757 460.17188Q579.61694 459.73438 578.92944 459.73438Q578.13257 459.73438 577.67944 460.20312Q577.2263 460.65625 577.2263 461.48438L576.1482 461.48438Q576.1482 460.29688 576.8982 459.57812Q577.6638 458.84375 578.92944 458.84375Q580.13257 458.84375 580.82007 459.46875Q581.50757 460.09375 581.50757 461.14062Q581.50757 462.39062 579.8982 464.14062L577.61694 466.60938L581.8982 466.60938L581.8982 467.5ZM588.6638 463.85938Q588.6638 465.76562 588.00757 466.70312Q587.36694 467.625 585.9763 467.625Q584.61694 467.625 583.9607 466.71875Q583.30444 465.8125 583.2732 464.0L583.2732 462.5625Q583.2732 460.67188 583.9138 459.76562Q584.57007 458.84375 585.9607 458.84375Q587.3357 458.84375 587.99194 459.73438Q588.6482 460.60938 588.6638 462.45312L588.6638 463.85938ZM587.57007 462.375Q587.57007 461.0 587.17944 460.375Q586.80444 459.73438 585.9607 459.73438Q585.13257 459.73438 584.74194 460.375Q584.36694 461.0 584.36694 462.29688L584.36694 464.03125Q584.36694 465.40625 584.75757 466.07812Q585.1638 466.73438 585.9763 466.73438Q586.7732 466.73438 587.1638 466.10938Q587.55444 465.48438 587.57007 464.15625L587.57007 462.375ZM593.86694 467.5L592.7888 467.5L592.7888 460.28125L590.6013 461.07812L590.6013 460.09375L593.7107 458.92188L593.86694 458.92188L593.86694 467.5ZM602.49194 461.1875Q602.49194 461.82812 602.1482 462.32812Q601.80444 462.82812 601.24194 463.10938Q601.8982 463.39062 602.2888 463.95312Q602.67944 464.5 602.67944 465.20312Q602.67944 466.29688 601.92944 466.96875Q601.19507 467.625 599.9763 467.625Q598.74194 467.625 597.99194 466.96875Q597.25757 466.29688 597.25757 465.20312Q597.25757 464.5 597.63257 463.95312Q598.00757 463.39062 598.67944 463.10938Q598.11694 462.82812 597.7888 462.32812Q597.4607 461.82812 597.4607 461.1875Q597.4607 460.10938 598.1482 459.48438Q598.8357 458.84375 599.9763 458.84375Q601.1013 458.84375 601.7888 459.48438Q602.49194 460.10938 602.49194 461.1875ZM601.6013 465.17188Q601.6013 464.45312 601.1482 464.01562Q600.69507 463.5625 599.9607 463.5625Q599.2263 463.5625 598.7732 464.01562Q598.3357 464.45312 598.3357 465.1875Q598.3357 465.90625 598.7732 466.32812Q599.2107 466.73438 599.9763 466.73438Q600.7263 466.73438 601.1638 466.3125Q601.6013 465.89062 601.6013 465.17188ZM599.9763 459.73438Q599.3357 459.73438 598.92944 460.14062Q598.5388 460.53125 598.5388 461.21875Q598.5388 461.85938 598.92944 462.26562Q599.32007 462.67188 599.9607 462.67188Q600.61694 462.67188 601.00757 462.26562Q601.3982 461.85938 601.3982 461.21875Q601.3982 460.5625 600.99194 460.15625Q600.5857 459.73438 599.9763 459.73438Z" fill-rule="nonzero"/><path fill="#757575" d="M647.44885 467.5L641.8551 467.5L641.8551 466.71875L644.8082 463.4375Q645.4645 462.6875 645.7145 462.23438Q645.9645 461.76562 645.9645 461.26562Q645.9645 460.59375 645.5582 460.17188Q645.1676 459.73438 644.4801 459.73438Q643.6832 459.73438 643.2301 460.20312Q642.777 460.65625 642.777 461.48438L641.69885 461.48438Q641.69885 460.29688 642.44885 459.57812Q643.2145 458.84375 644.4801 458.84375Q645.6832 458.84375 646.3707 459.46875Q647.0582 460.09375 647.0582 461.14062Q647.0582 462.39062 645.44885 464.14062L643.1676 466.60938L647.44885 466.60938L647.44885 467.5ZM654.2145 463.85938Q654.2145 465.76562 653.5582 466.70312Q652.9176 467.625 651.527 467.625Q650.1676 467.625 649.51135 466.71875Q648.8551 465.8125 648.82385 464.0L648.82385 462.5625Q648.82385 460.67188 649.4645 459.76562Q650.1207 458.84375 651.51135 458.84375Q652.88635 458.84375 653.5426 459.73438Q654.19885 460.60938 654.2145 462.45312L654.2145 463.85938ZM653.1207 462.375Q653.1207 461.0 652.7301 460.375Q652.3551 459.73438 651.51135 459.73438Q650.6832 459.73438 650.2926 460.375Q649.9176 461.0 649.9176 462.29688L649.9176 464.03125Q649.9176 465.40625 650.3082 466.07812Q650.7145 466.73438 651.527 466.73438Q652.32385 466.73438 652.7145 466.10938Q653.1051 465.48438 653.1207 464.15625L653.1207 462.375ZM659.4176 467.5L658.3395 467.5L658.3395 460.28125L656.152 461.07812L656.152 460.09375L659.26135 458.92188L659.4176 458.92188L659.4176 467.5ZM667.01135 463.75Q666.6832 464.15625 666.19885 464.40625Q665.7301 464.64062 665.1676 464.64062Q664.4332 464.64062 663.88635 464.28125Q663.3395 463.92188 663.0426 463.26562Q662.7457 462.59375 662.7457 461.79688Q662.7457 460.95312 663.0582 460.26562Q663.38635 459.57812 663.9801 459.21875Q664.5895 458.84375 665.38635 458.84375Q666.652 458.84375 667.3707 459.79688Q668.1051 460.75 668.1051 462.375L668.1051 462.6875Q668.1051 465.1875 667.1207 466.32812Q666.13635 467.46875 664.152 467.5L663.9332 467.5L663.9332 466.59375L664.1676 466.59375Q665.51135 466.5625 666.2301 465.89062Q666.94885 465.21875 667.01135 463.75ZM665.3395 463.75Q665.88635 463.75 666.3395 463.42188Q666.8082 463.07812 667.027 462.59375L667.027 462.15625Q667.027 461.09375 666.5582 460.42188Q666.0895 459.75 665.38635 459.75Q664.6676 459.75 664.2301 460.29688Q663.8082 460.84375 663.8082 461.75Q663.8082 462.625 664.2145 463.1875Q664.63635 463.75 665.3395 463.75Z" fill-rule="nonzero"/><path fill="#757575" d="M712.9995 467.5L707.40576 467.5L707.40576 466.71875L710.3589 463.4375Q711.01514 462.6875 711.26514 462.23438Q711.51514 461.76562 711.51514 461.26562Q711.51514 460.59375 711.1089 460.17188Q710.71826 459.73438 710.03076 459.73438Q709.2339 459.73438 708.78076 460.20312Q708.32764 460.65625 708.32764 461.48438L707.2495 461.48438Q707.2495 460.29688 707.9995 459.57812Q708.76514 458.84375 710.03076 458.84375Q711.2339 458.84375 711.9214 459.46875Q712.6089 460.09375 712.6089 461.14062Q712.6089 462.39062 710.9995 464.14062L708.71826 466.60938L712.9995 466.60938L712.9995 467.5ZM719.76514 463.85938Q719.76514 465.76562 719.1089 466.70312Q718.46826 467.625 717.07764 467.625Q715.71826 467.625 715.062 466.71875Q714.40576 465.8125 714.3745 464.0L714.3745 462.5625Q714.3745 460.67188 715.01514 459.76562Q715.6714 458.84375 717.062 458.84375Q718.437 458.84375 719.09326 459.73438Q719.7495 460.60938 719.76514 462.45312L719.76514 463.85938ZM718.6714 462.375Q718.6714 461.0 718.28076 460.375Q717.90576 459.73438 717.062 459.73438Q716.2339 459.73438 715.84326 460.375Q715.46826 461.0 715.46826 462.29688L715.46826 464.03125Q715.46826 465.40625 715.8589 466.07812Q716.26514 466.73438 717.07764 466.73438Q717.8745 466.73438 718.26514 466.10938Q718.65576 465.48438 718.6714 464.15625L718.6714 462.375ZM726.9995 467.5L721.40576 467.5L721.40576 466.71875L724.3589 463.4375Q725.01514 462.6875 725.26514 462.23438Q725.51514 461.76562 725.51514 461.26562Q725.51514 460.59375 725.1089 460.17188Q724.71826 459.73438 724.03076 459.73438Q723.2339 459.73438 722.78076 460.20312Q722.32764 460.65625 722.32764 461.48438L721.2495 461.48438Q721.2495 460.29688 721.9995 459.57812Q722.76514 458.84375 724.03076 458.84375Q725.2339 458.84375 725.9214 459.46875Q726.6089 460.09375 726.6089 461.14062Q726.6089 462.39062 724.9995 464.14062L722.71826 466.60938L726.9995 466.60938L726.9995 467.5ZM733.76514 463.85938Q733.76514 465.76562 733.1089 466.70312Q732.46826 467.625 731.07764 467.625Q729.71826 467.625 729.062 466.71875Q728.40576 465.8125 728.3745 464.0L728.3745 462.5625Q728.3745 460.67188 729.01514 459.76562Q729.6714 458.84375 731.062 458.84375Q732.437 458.84375 733.09326 459.73438Q733.7495 460.60938 733.76514 462.45312L733.76514 463.85938ZM732.6714 462.375Q732.6714 461.0 732.28076 460.375Q731.90576 459.73438 731.062 459.73438Q730.2339 459.73438 729.84326 460.375Q729.46826 461.0 729.46826 462.29688L729.46826 464.03125Q729.46826 465.40625 729.8589 466.07812Q730.26514 466.73438 731.07764 466.73438Q731.8745 466.73438 732.26514 466.10938Q732.65576 465.48438 732.6714 464.15625L732.6714 462.375Z" fill-rule="nonzero"/><path fill="#757575" d="M778.5502 467.5L772.9564 467.5L772.9564 466.71875L775.90955 463.4375Q776.5658 462.6875 776.8158 462.23438Q777.0658 461.76562 777.0658 461.26562Q777.0658 460.59375 776.65955 460.17188Q776.2689 459.73438 775.5814 459.73438Q774.78455 459.73438 774.3314 460.20312Q773.8783 460.65625 773.8783 461.48438L772.8002 461.48438Q772.8002 460.29688 773.5502 459.57812Q774.3158 458.84375 775.5814 458.84375Q776.78455 458.84375 777.47205 459.46875Q778.15955 460.09375 778.15955 461.14062Q778.15955 462.39062 776.5502 464.14062L774.2689 466.60938L778.5502 466.60938L778.5502 467.5ZM785.3158 463.85938Q785.3158 465.76562 784.65955 466.70312Q784.0189 467.625 782.6283 467.625Q781.2689 467.625 780.6127 466.71875Q779.9564 465.8125 779.9252 464.0L779.9252 462.5625Q779.9252 460.67188 780.5658 459.76562Q781.22205 458.84375 782.6127 458.84375Q783.9877 458.84375 784.6439 459.73438Q785.3002 460.60938 785.3158 462.45312L785.3158 463.85938ZM784.22205 462.375Q784.22205 461.0 783.8314 460.375Q783.4564 459.73438 782.6127 459.73438Q781.78455 459.73438 781.3939 460.375Q781.0189 461.0 781.0189 462.29688L781.0189 464.03125Q781.0189 465.40625 781.40955 466.07812Q781.8158 466.73438 782.6283 466.73438Q783.4252 466.73438 783.8158 466.10938Q784.2064 465.48438 784.22205 464.15625L784.22205 462.375ZM792.5502 467.5L786.9564 467.5L786.9564 466.71875L789.90955 463.4375Q790.5658 462.6875 790.8158 462.23438Q791.0658 461.76562 791.0658 461.26562Q791.0658 460.59375 790.65955 460.17188Q790.2689 459.73438 789.5814 459.73438Q788.78455 459.73438 788.3314 460.20312Q787.8783 460.65625 787.8783 461.48438L786.8002 461.48438Q786.8002 460.29688 787.5502 459.57812Q788.3158 458.84375 789.5814 458.84375Q790.78455 458.84375 791.47205 459.46875Q792.15955 460.09375 792.15955 461.14062Q792.15955 462.39062 790.5502 464.14062L788.2689 466.60938L792.5502 466.60938L792.5502 467.5ZM797.5189 467.5L796.4408 467.5L796.4408 460.28125L794.2533 461.07812L794.2533 460.09375L797.3627 458.92188L797.5189 458.92188L797.5189 467.5Z" fill-rule="nonzero"/><path fill="#757575" d="M276.07812 31.28125L280.71875 42.875L285.375 31.28125L287.79688 31.28125L287.79688 45.5L285.92188 45.5L285.92188 39.96875L286.10938 33.984375L281.4375 45.5L280.0 45.5L275.34375 34.015625L275.53125 39.96875L275.53125 45.5L273.65625 45.5L273.65625 31.28125L276.07812 31.28125ZM292.32812 45.5L290.53125 45.5L290.53125 34.9375L292.32812 34.9375L292.32812 45.5ZM290.375 32.125Q290.375 31.6875 290.64062 31.390625Q290.92188 31.078125 291.4375 31.078125Q291.96875 31.078125 292.23438 31.390625Q292.51562 31.6875 292.51562 32.125Q292.51562 32.5625 292.23438 32.859375Q291.96875 33.15625 291.4375 33.15625Q290.92188 33.15625 290.64062 32.859375Q290.375 32.5625 290.375 32.125ZM297.07812 34.9375L297.14062 36.265625Q298.34375 34.734375 300.29688 34.734375Q303.65625 34.734375 303.67188 38.515625L303.67188 45.5L301.875 45.5L301.875 38.5Q301.85938 37.359375 301.34375 36.8125Q300.84375 36.265625 299.75 36.265625Q298.875 36.265625 298.20312 36.734375Q297.54688 37.203125 297.17188 37.96875L297.17188 45.5L295.375 45.5L295.375 34.9375L297.07812 34.9375ZM312.89062 44.453125Q311.84375 45.703125 309.79688 45.703125Q308.10938 45.703125 307.21875 44.71875Q306.34375 43.734375 306.32812 41.8125L306.32812 34.9375L308.14062 34.9375L308.14062 41.765625Q308.14062 44.15625 310.09375 44.15625Q312.15625 44.15625 312.84375 42.625L312.84375 34.9375L314.65625 34.9375L314.65625 45.5L312.9375 45.5L312.89062 44.453125ZM319.8125 32.375L319.8125 34.9375L321.79688 34.9375L321.79688 36.328125L319.8125 36.328125L319.8125 42.875Q319.8125 43.515625 320.07812 43.84375Q320.34375 44.15625 320.98438 44.15625Q321.29688 44.15625 321.84375 44.03125L321.84375 45.5Q321.125 45.703125 320.45312 45.703125Q319.25 45.703125 318.625 44.96875Q318.01562 44.234375 318.01562 42.875L318.01562 36.328125L316.09375 36.328125L316.09375 34.9375L318.01562 34.9375L318.01562 32.375L319.8125 32.375ZM328.75 45.703125Q326.60938 45.703125 325.25 44.296875Q323.90625 42.875 323.90625 40.515625L323.90625 40.171875Q323.90625 38.609375 324.5 37.375Q325.10938 36.140625 326.1875 35.4375Q327.26562 34.734375 328.53125 34.734375Q330.59375 34.734375 331.73438 36.09375Q332.875 37.453125 332.875 39.984375L332.875 40.734375L325.71875 40.734375Q325.75 42.296875 326.625 43.265625Q327.5 44.21875 328.84375 44.21875Q329.8125 44.21875 330.46875 43.828125Q331.14062 43.4375 331.64062 42.796875L332.73438 43.65625Q331.40625 45.703125 328.75 45.703125ZM328.53125 36.21875Q327.4375 36.21875 326.6875 37.015625Q325.95312 37.8125 325.78125 39.25L331.0625 39.25L331.0625 39.109375Q330.98438 37.734375 330.3125 36.984375Q329.65625 36.21875 328.53125 36.21875ZM341.51562 42.703125Q341.51562 41.96875 340.96875 41.5625Q340.42188 41.15625 339.04688 40.859375Q337.67188 40.5625 336.85938 40.15625Q336.0625 39.75 335.67188 39.1875Q335.29688 38.609375 335.29688 37.828125Q335.29688 36.53125 336.39062 35.640625Q337.48438 34.734375 339.20312 34.734375Q341.0 34.734375 342.10938 35.671875Q343.23438 36.59375 343.23438 38.03125L341.40625 38.03125Q341.40625 37.296875 340.78125 36.765625Q340.15625 36.21875 339.20312 36.21875Q338.20312 36.21875 337.64062 36.65625Q337.09375 37.078125 337.09375 37.78125Q337.09375 38.421875 337.60938 38.765625Q338.125 39.09375 339.48438 39.40625Q340.84375 39.703125 341.67188 40.125Q342.51562 40.53125 342.92188 41.125Q343.32812 41.71875 343.32812 42.5625Q343.32812 43.984375 342.1875 44.84375Q341.0625 45.703125 339.25 45.703125Q337.98438 45.703125 337.0 45.25Q336.03125 44.796875 335.46875 44.0Q334.92188 43.1875 334.92188 42.25L336.73438 42.25Q336.78125 43.15625 337.45312 43.6875Q338.14062 44.21875 339.25 44.21875Q340.28125 44.21875 340.89062 43.8125Q341.51562 43.390625 341.51562 42.703125ZM349.89062 40.125Q349.89062 38.5625 350.5 37.328125Q351.10938 36.078125 352.1875 35.40625Q353.28125 34.734375 354.6875 34.734375Q356.84375 34.734375 358.17188 36.234375Q359.51562 37.71875 359.51562 40.203125L359.51562 40.328125Q359.51562 41.875 358.92188 43.109375Q358.32812 44.328125 357.21875 45.015625Q356.125 45.703125 354.70312 45.703125Q352.5625 45.703125 351.21875 44.203125Q349.89062 42.703125 349.89062 40.25L349.89062 40.125ZM351.70312 40.328125Q351.70312 42.09375 352.51562 43.15625Q353.34375 44.21875 354.70312 44.21875Q356.07812 44.21875 356.89062 43.140625Q357.70312 42.0625 357.70312 40.125Q357.70312 38.375 356.875 37.296875Q356.04688 36.21875 354.6875 36.21875Q353.34375 36.21875 352.51562 37.28125Q351.70312 38.34375 351.70312 40.328125ZM362.25 45.5L362.25 36.328125L360.59375 36.328125L360.59375 34.9375L362.25 34.9375L362.25 33.84375Q362.25 32.15625 363.15625 31.234375Q364.07812 30.296875 365.73438 30.296875Q366.35938 30.296875 366.96875 30.453125L366.875 31.921875Q366.42188 31.84375 365.90625 31.84375Q365.01562 31.84375 364.53125 32.359375Q364.0625 32.859375 364.0625 33.8125L364.0625 34.9375L366.3125 34.9375L366.3125 36.328125L364.0625 36.328125L364.0625 45.5L362.25 45.5ZM375.65625 45.5L373.78125 45.5L373.78125 31.28125L375.65625 31.28125L375.65625 45.5ZM380.07812 34.9375L380.14062 36.265625Q381.34375 34.734375 383.29688 34.734375Q386.65625 34.734375 386.67188 38.515625L386.67188 45.5L384.875 45.5L384.875 38.5Q384.85938 37.359375 384.34375 36.8125Q383.84375 36.265625 382.75 36.265625Q381.875 36.265625 381.20312 36.734375Q380.54688 37.203125 380.17188 37.96875L380.17188 45.5L378.375 45.5L378.375 34.9375L380.07812 34.9375ZM391.8125 32.375L391.8125 34.9375L393.79688 34.9375L393.79688 36.328125L391.8125 36.328125L391.8125 42.875Q391.8125 43.515625 392.07812 43.84375Q392.34375 44.15625 392.98438 44.15625Q393.29688 44.15625 393.84375 44.03125L393.84375 45.5Q393.125 45.703125 392.45312 45.703125Q391.25 45.703125 390.625 44.96875Q390.01562 44.234375 390.01562 42.875L390.01562 36.328125L388.09375 36.328125L388.09375 34.9375L390.01562 34.9375L390.01562 32.375L391.8125 32.375ZM400.75 45.703125Q398.60938 45.703125 397.25 44.296875Q395.90625 42.875 395.90625 40.515625L395.90625 40.171875Q395.90625 38.609375 396.5 37.375Q397.10938 36.140625 398.1875 35.4375Q399.26562 34.734375 400.53125 34.734375Q402.59375 34.734375 403.73438 36.09375Q404.875 37.453125 404.875 39.984375L404.875 40.734375L397.71875 40.734375Q397.75 42.296875 398.625 43.265625Q399.5 44.21875 400.84375 44.21875Q401.8125 44.21875 402.46875 43.828125Q403.14062 43.4375 403.64062 42.796875L404.73438 43.65625Q403.40625 45.703125 400.75 45.703125ZM400.53125 36.21875Q399.4375 36.21875 398.6875 37.015625Q397.95312 37.8125 397.78125 39.25L403.0625 39.25L403.0625 39.109375Q402.98438 37.734375 402.3125 36.984375Q401.65625 36.21875 400.53125 36.21875ZM412.46875 36.546875Q412.0625 36.484375 411.59375 36.484375Q409.8125 36.484375 409.17188 38.0L409.17188 45.5L407.375 45.5L407.375 34.9375L409.125 34.9375L409.15625 36.15625Q410.04688 34.734375 411.67188 34.734375Q412.20312 34.734375 412.46875 34.875L412.46875 36.546875ZM416.07812 34.9375L416.14062 36.265625Q417.34375 34.734375 419.29688 34.734375Q422.65625 34.734375 422.67188 38.515625L422.67188 45.5L420.875 45.5L420.875 38.5Q420.85938 37.359375 420.34375 36.8125Q419.84375 36.265625 418.75 36.265625Q417.875 36.265625 417.20312 36.734375Q416.54688 37.203125 416.17188 37.96875L416.17188 45.5L414.375 45.5L414.375 34.9375L416.07812 34.9375ZM429.75 45.703125Q427.60938 45.703125 426.25 44.296875Q424.90625 42.875 424.90625 40.515625L424.90625 40.171875Q424.90625 38.609375 425.5 37.375Q426.10938 36.140625 427.1875 35.4375Q428.26562 34.734375 429.53125 34.734375Q431.59375 34.734375 432.73438 36.09375Q433.875 37.453125 433.875 39.984375L433.875 40.734375L426.71875 40.734375Q426.75 42.296875 427.625 43.265625Q428.5 44.21875 429.84375 44.21875Q430.8125 44.21875 431.46875 43.828125Q432.14062 43.4375 432.64062 42.796875L433.73438 43.65625Q432.40625 45.703125 429.75 45.703125ZM429.53125 36.21875Q428.4375 36.21875 427.6875 37.015625Q426.95312 37.8125 426.78125 39.25L432.0625 39.25L432.0625 39.109375Q431.98438 37.734375 431.3125 36.984375Q430.65625 36.21875 429.53125 36.21875ZM438.8125 32.375L438.8125 34.9375L440.79688 34.9375L440.79688 36.328125L438.8125 36.328125L438.8125 42.875Q438.8125 43.515625 439.07812 43.84375Q439.34375 44.15625 439.98438 44.15625Q440.29688 44.15625 440.84375 44.03125L440.84375 45.5Q440.125 45.703125 439.45312 45.703125Q438.25 45.703125 437.625 44.96875Q437.01562 44.234375 437.01562 42.875L437.01562 36.328125L435.09375 36.328125L435.09375 34.9375L437.01562 34.9375L437.01562 32.375L438.8125 32.375ZM458.65625 31.28125L458.65625 40.953125Q458.65625 42.953125 457.39062 44.234375Q456.14062 45.515625 454.0 45.671875L453.5 45.703125Q451.15625 45.703125 449.76562 44.4375Q448.39062 43.171875 448.375 40.96875L448.375 31.28125L450.21875 31.28125L450.21875 40.90625Q450.21875 42.453125 451.0625 43.3125Q451.92188 44.15625 453.5 44.15625Q455.09375 44.15625 455.9375 43.3125Q456.78125 42.46875 456.78125 40.921875L456.78125 31.28125L458.65625 31.28125ZM467.51562 42.703125Q467.51562 41.96875 466.96875 41.5625Q466.42188 41.15625 465.04688 40.859375Q463.67188 40.5625 462.85938 40.15625Q462.0625 39.75 461.67188 39.1875Q461.29688 38.609375 461.29688 37.828125Q461.29688 36.53125 462.39062 35.640625Q463.48438 34.734375 465.20312 34.734375Q467.0 34.734375 468.10938 35.671875Q469.23438 36.59375 469.23438 38.03125L467.40625 38.03125Q467.40625 37.296875 466.78125 36.765625Q466.15625 36.21875 465.20312 36.21875Q464.20312 36.21875 463.64062 36.65625Q463.09375 37.078125 463.09375 37.78125Q463.09375 38.421875 463.60938 38.765625Q464.125 39.09375 465.48438 39.40625Q466.84375 39.703125 467.67188 40.125Q468.51562 40.53125 468.92188 41.125Q469.32812 41.71875 469.32812 42.5625Q469.32812 43.984375 468.1875 44.84375Q467.0625 45.703125 465.25 45.703125Q463.98438 45.703125 463.0 45.25Q462.03125 44.796875 461.46875 44.0Q460.92188 43.1875 460.92188 42.25L462.73438 42.25Q462.78125 43.15625 463.45312 43.6875Q464.14062 44.21875 465.25 44.21875Q466.28125 44.21875 466.89062 43.8125Q467.51562 43.390625 467.51562 42.703125ZM477.89062 45.5Q477.73438 45.1875 477.64062 44.390625Q476.375 45.703125 474.625 45.703125Q473.0625 45.703125 472.0625 44.8125Q471.0625 43.921875 471.0625 42.5625Q471.0625 40.921875 472.3125 40.015625Q473.57812 39.09375 475.84375 39.09375L477.60938 39.09375L477.60938 38.265625Q477.60938 37.3125 477.03125 36.75Q476.46875 36.1875 475.375 36.1875Q474.40625 36.1875 473.75 36.6875Q473.09375 37.171875 473.09375 37.859375L471.28125 37.859375Q471.28125 37.078125 471.84375 36.34375Q472.40625 35.59375 473.35938 35.171875Q474.32812 34.734375 475.48438 34.734375Q477.3125 34.734375 478.34375 35.65625Q479.375 36.5625 479.42188 38.171875L479.42188 43.03125Q479.42188 44.484375 479.78125 45.34375L479.78125 45.5L477.89062 45.5ZM474.89062 44.125Q475.75 44.125 476.5 43.6875Q477.26562 43.25 477.60938 42.546875L477.60938 40.375L476.1875 40.375Q472.875 40.375 472.875 42.3125Q472.875 43.171875 473.4375 43.65625Q474.0 44.125 474.89062 44.125ZM481.9375 40.125Q481.9375 37.65625 483.07812 36.203125Q484.21875 34.734375 486.10938 34.734375Q488.04688 34.734375 489.125 36.109375L489.21875 34.9375L490.85938 34.9375L490.85938 45.25Q490.85938 47.296875 489.64062 48.46875Q488.4375 49.65625 486.375 49.65625Q485.23438 49.65625 484.14062 49.171875Q483.04688 48.6875 482.46875 47.828125L483.40625 46.75Q484.57812 48.1875 486.25 48.1875Q487.57812 48.1875 488.3125 47.4375Q489.04688 46.703125 489.04688 45.359375L489.04688 44.4375Q487.96875 45.703125 486.09375 45.703125Q484.23438 45.703125 483.07812 44.203125Q481.9375 42.703125 481.9375 40.125ZM483.75 40.328125Q483.75 42.125 484.48438 43.140625Q485.21875 44.15625 486.53125 44.15625Q488.25 44.15625 489.04688 42.609375L489.04688 37.78125Q488.21875 36.265625 486.5625 36.265625Q485.23438 36.265625 484.48438 37.296875Q483.75 38.328125 483.75 40.328125ZM497.75 45.703125Q495.60938 45.703125 494.25 44.296875Q492.90625 42.875 492.90625 40.515625L492.90625 40.171875Q492.90625 38.609375 493.5 37.375Q494.10938 36.140625 495.1875 35.4375Q496.26562 34.734375 497.53125 34.734375Q499.59375 34.734375 500.73438 36.09375Q501.875 37.453125 501.875 39.984375L501.875 40.734375L494.71875 40.734375Q494.75 42.296875 495.625 43.265625Q496.5 44.21875 497.84375 44.21875Q498.8125 44.21875 499.46875 43.828125Q500.14062 43.4375 500.64062 42.796875L501.73438 43.65625Q500.40625 45.703125 497.75 45.703125ZM497.53125 36.21875Q496.4375 36.21875 495.6875 37.015625Q494.95312 37.8125 494.78125 39.25L500.0625 39.25L500.0625 39.109375Q499.98438 37.734375 499.3125 36.984375Q498.65625 36.21875 497.53125 36.21875ZM511.53125 39.9375L511.53125 45.5L509.65625 45.5L509.65625 31.28125L514.8906 31.28125Q517.2344 31.28125 518.5469 32.46875Q519.875 33.65625 519.875 35.625Q519.875 37.703125 518.5781 38.828125Q517.28125 39.9375 514.875 39.9375L511.53125 39.9375ZM511.53125 38.40625L514.8906 38.40625Q516.40625 38.40625 517.2031 37.703125Q518.0 36.984375 518.0 35.640625Q518.0 34.375 517.2031 33.625Q516.40625 32.859375 515.0 32.828125L511.53125 32.828125L511.53125 38.40625ZM526.75 45.703125Q524.6094 45.703125 523.25 44.296875Q521.90625 42.875 521.90625 40.515625L521.90625 40.171875Q521.90625 38.609375 522.5 37.375Q523.1094 36.140625 524.1875 35.4375Q525.2656 34.734375 526.53125 34.734375Q528.59375 34.734375 529.7344 36.09375Q530.875 37.453125 530.875 39.984375L530.875 40.734375L523.71875 40.734375Q523.75 42.296875 524.625 43.265625Q525.5 44.21875 526.84375 44.21875Q527.8125 44.21875 528.46875 43.828125Q529.1406 43.4375 529.6406 42.796875L530.7344 43.65625Q529.40625 45.703125 526.75 45.703125ZM526.53125 36.21875Q525.4375 36.21875 524.6875 37.015625Q523.9531 37.8125 523.78125 39.25L529.0625 39.25L529.0625 39.109375Q528.9844 37.734375 528.3125 36.984375Q527.65625 36.21875 526.53125 36.21875ZM538.46875 36.546875Q538.0625 36.484375 537.59375 36.484375Q535.8125 36.484375 535.1719 38.0L535.1719 45.5L533.375 45.5L533.375 34.9375L535.125 34.9375L535.15625 36.15625Q536.0469 34.734375 537.6719 34.734375Q538.2031 34.734375 538.46875 34.875L538.46875 36.546875ZM549.9844 38.421875L553.7031 31.28125L555.8281 31.28125L550.9219 40.203125L550.9219 45.5L549.0469 45.5L549.0469 40.203125L544.1406 31.28125L546.2969 31.28125L549.9844 38.421875ZM561.75 45.703125Q559.6094 45.703125 558.25 44.296875Q556.90625 42.875 556.90625 40.515625L556.90625 40.171875Q556.90625 38.609375 557.5 37.375Q558.1094 36.140625 559.1875 35.4375Q560.2656 34.734375 561.53125 34.734375Q563.59375 34.734375 564.7344 36.09375Q565.875 37.453125 565.875 39.984375L565.875 40.734375L558.71875 40.734375Q558.75 42.296875 559.625 43.265625Q560.5 44.21875 561.84375 44.21875Q562.8125 44.21875 563.46875 43.828125Q564.1406 43.4375 564.6406 42.796875L565.7344 43.65625Q564.40625 45.703125 561.75 45.703125ZM561.53125 36.21875Q560.4375 36.21875 559.6875 37.015625Q558.9531 37.8125 558.78125 39.25L564.0625 39.25L564.0625 39.109375Q563.9844 37.734375 563.3125 36.984375Q562.65625 36.21875 561.53125 36.21875ZM574.8906 45.5Q574.7344 45.1875 574.6406 44.390625Q573.375 45.703125 571.625 45.703125Q570.0625 45.703125 569.0625 44.8125Q568.0625 43.921875 568.0625 42.5625Q568.0625 40.921875 569.3125 40.015625Q570.5781 39.09375 572.84375 39.09375L574.6094 39.09375L574.6094 38.265625Q574.6094 37.3125 574.03125 36.75Q573.46875 36.1875 572.375 36.1875Q571.40625 36.1875 570.75 36.6875Q570.09375 37.171875 570.09375 37.859375L568.28125 37.859375Q568.28125 37.078125 568.84375 36.34375Q569.40625 35.59375 570.3594 35.171875Q571.3281 34.734375 572.4844 34.734375Q574.3125 34.734375 575.34375 35.65625Q576.375 36.5625 576.4219 38.171875L576.4219 43.03125Q576.4219 44.484375 576.78125 45.34375L576.78125 45.5L574.8906 45.5ZM571.8906 44.125Q572.75 44.125 573.5 43.6875Q574.2656 43.25 574.6094 42.546875L574.6094 40.375L573.1875 40.375Q569.875 40.375 569.875 42.3125Q569.875 43.171875 570.4375 43.65625Q571.0 44.125 571.8906 44.125ZM584.46875 36.546875Q584.0625 36.484375 583.59375 36.484375Q581.8125 36.484375 581.1719 38.0L581.1719 45.5L579.375 45.5L579.375 34.9375L581.125 34.9375L581.15625 36.15625Q582.0469 34.734375 583.6719 34.734375Q584.2031 34.734375 584.46875 34.875L584.46875 36.546875Z" fill-rule="nonzero"/></svg>