<svg version="1.1" viewBox="0.0 0.0 946.0 585.0" fill="none" stroke="none" stroke-linecap="square" stroke-miterlimit="10" width="946" height="585" xmlns:xlink="http://www.w3.org/1999/xlink" xmlns="http://www.w3.org/2000/svg"><path fill="#ffffff" d="M0 0L946.0 0L946.0 585.0L0 585.0L0 0Z" fill-rule="nonzero"/><path stroke="#333333" stroke-width="1.0" stroke-linecap="butt" d="M106.5 501.5L916.5 501.5" fill-rule="nonzero"/><path stroke="#cccccc" stroke-width="1.0" stroke-linecap="butt" d="M106.5 396.5L916.5 396.5" fill-rule="nonzero"/><path stroke="#cccccc" stroke-width="1.0" stroke-linecap="butt" d="M106.5 291.5L916.5 291.5" fill-rule="nonzero"/><path stroke="#cccccc" stroke-width="1.0" stroke-linecap="butt" d="M106.5 185.5L916.5 185.5" fill-rule="nonzero"/><path stroke="#cccccc" stroke-width="1.0" stroke-linecap="butt" d="M106.5 80.5L916.5 80.5" fill-rule="nonzero"/><clipPath id="id_0"><path d="M106.25 80.25L916.75 80.25L916.75 501.75L106.25 501.75L106.25 80.25Z" clip-rule="nonzero"/></clipPath><path stroke="#000000" stroke-width="2.0" stroke-linecap="butt" stroke-opacity="0.0" clip-path="url(#id_0)" d="M149.0 502.0L122.0 502.0L122.0 500.0C122.0 498.89542 122.89543 498.0 124.0 498.0L147.0 498.0C148.10457 498.0 149.0 498.89542 149.0 500.0Z" fill-rule="nonzero"/><path fill="#4285f4" clip-path="url(#id_0)" d="M149.0 502.0L122.0 502.0L122.0 500.0C122.0 498.89542 122.89543 498.0 124.0 498.0L147.0 498.0C148.10457 498.0 149.0 498.89542 149.0 500.0Z" fill-rule="nonzero"/><path stroke="#000000" stroke-width="2.0" stroke-linecap="butt" stroke-opacity="0.0" clip-path="url(#id_0)" d="M190.0 502.0L163.0 502.0L163.0 498.0C163.0 496.89542 163.89543 496.0 165.0 496.0L188.0 496.0C189.10457 496.0 190.0 496.89542 190.0 498.0Z" fill-rule="nonzero"/><path fill="#4285f4" clip-path="url(#id_0)" d="M190.0 502.0L163.0 502.0L163.0 498.0C163.0 496.89542 163.89543 496.0 165.0 496.0L188.0 496.0C189.10457 496.0 190.0 496.89542 190.0 498.0Z" fill-rule="nonzero"/><path stroke="#000000" stroke-width="2.0" stroke-linecap="butt" stroke-opacity="0.0" clip-path="url(#id_0)" d="M232.0 502.0L205.0 502.0L205.0 496.0C205.0 494.89542 205.89543 494.0 207.0 494.0L230.0 494.0C231.10457 494.0 232.0 494.89542 232.0 496.0Z" fill-rule="nonzero"/><path fill="#4285f4" clip-path="url(#id_0)" d="M232.0 502.0L205.0 502.0L205.0 496.0C205.0 494.89542 205.89543 494.0 207.0 494.0L230.0 494.0C231.10457 494.0 232.0 494.89542 232.0 496.0Z" fill-rule="nonzero"/><path stroke="#000000" stroke-width="2.0" stroke-linecap="butt" stroke-opacity="0.0" clip-path="url(#id_0)" d="M274.0 502.0L247.0 502.0L247.0 495.0C247.0 493.89542 247.89543 493.0 249.0 493.0L272.0 493.0C273.10458 493.0 274.0 493.89542 274.0 495.0Z" fill-rule="nonzero"/><path fill="#4285f4" clip-path="url(#id_0)" d="M274.0 502.0L247.0 502.0L247.0 495.0C247.0 493.89542 247.89543 493.0 249.0 493.0L272.0 493.0C273.10458 493.0 274.0 493.89542 274.0 495.0Z" fill-rule="nonzero"/><path stroke="#000000" stroke-width="2.0" stroke-linecap="butt" stroke-opacity="0.0" clip-path="url(#id_0)" d="M316.0 502.0L289.0 502.0L289.0 493.0C289.0 491.89542 289.89542 491.0 291.0 491.0L314.0 491.0C315.10458 491.0 316.0 491.89542 316.0 493.0Z" fill-rule="nonzero"/><path fill="#4285f4" clip-path="url(#id_0)" d="M316.0 502.0L289.0 502.0L289.0 493.0C289.0 491.89542 289.89542 491.0 291.0 491.0L314.0 491.0C315.10458 491.0 316.0 491.89542 316.0 493.0Z" fill-rule="nonzero"/><path stroke="#000000" stroke-width="2.0" stroke-linecap="butt" stroke-opacity="0.0" clip-path="url(#id_0)" d="M358.0 502.0L331.0 502.0L331.0 490.0C331.0 488.89542 331.89542 488.0 333.0 488.0L356.0 488.0C357.10458 488.0 358.0 488.89542 358.0 490.0Z" fill-rule="nonzero"/><path fill="#4285f4" clip-path="url(#id_0)" d="M358.0 502.0L331.0 502.0L331.0 490.0C331.0 488.89542 331.89542 488.0 333.0 488.0L356.0 488.0C357.10458 488.0 358.0 488.89542 358.0 490.0Z" fill-rule="nonzero"/><path stroke="#000000" stroke-width="2.0" stroke-linecap="butt" stroke-opacity="0.0" clip-path="url(#id_0)" d="M400.0 502.0L373.0 502.0L373.0 486.0C373.0 484.89542 373.89542 484.0 375.0 484.0L398.0 484.0C399.10458 484.0 400.0 484.89542 400.0 486.0Z" fill-rule="nonzero"/><path fill="#4285f4" clip-path="url(#id_0)" d="M400.0 502.0L373.0 502.0L373.0 486.0C373.0 484.89542 373.89542 484.0 375.0 484.0L398.0 484.0C399.10458 484.0 400.0 484.89542 400.0 486.0Z" fill-rule="nonzero"/><path stroke="#000000" stroke-width="2.0" stroke-linecap="butt" stroke-opacity="0.0" clip-path="url(#id_0)" d="M442.0 502.0L415.0 502.0L415.0 478.0C415.0 476.89542 415.89542 476.0 417.0 476.0L440.0 476.0C441.10458 476.0 442.0 476.89542 442.0 478.0Z" fill-rule="nonzero"/><path fill="#4285f4" clip-path="url(#id_0)" d="M442.0 502.0L415.0 502.0L415.0 478.0C415.0 476.89542 415.89542 476.0 417.0 476.0L440.0 476.0C441.10458 476.0 442.0 476.89542 442.0 478.0Z" fill-rule="nonzero"/><path stroke="#000000" stroke-width="2.0" stroke-linecap="butt" stroke-opacity="0.0" clip-path="url(#id_0)" d="M484.0 502.0L457.0 502.0L457.0 467.0C457.0 465.89542 457.89542 465.0 459.0 465.0L482.0 465.0C483.10458 465.0 484.0 465.89542 484.0 467.0Z" fill-rule="nonzero"/><path fill="#4285f4" clip-path="url(#id_0)" d="M484.0 502.0L457.0 502.0L457.0 467.0C457.0 465.89542 457.89542 465.0 459.0 465.0L482.0 465.0C483.10458 465.0 484.0 465.89542 484.0 467.0Z" fill-rule="nonzero"/><path stroke="#000000" stroke-width="2.0" stroke-linecap="butt" stroke-opacity="0.0" clip-path="url(#id_0)" d="M526.0 502.0L499.0 502.0L499.0 454.0C499.0 452.89542 499.89542 452.0 501.0 452.0L524.0 452.0C525.10455 452.0 526.0 452.89542 526.0 454.0Z" fill-rule="nonzero"/><path fill="#4285f4" clip-path="url(#id_0)" d="M526.0 502.0L499.0 502.0L499.0 454.0C499.0 452.89542 499.89542 452.0 501.0 452.0L524.0 452.0C525.10455 452.0 526.0 452.89542 526.0 454.0Z" fill-rule="nonzero"/><path stroke="#000000" stroke-width="2.0" stroke-linecap="butt" stroke-opacity="0.0" clip-path="url(#id_0)" d="M567.0 502.0L540.0 502.0L540.0 460.0C540.0 458.89542 540.89545 458.0 542.0 458.0L565.0 458.0C566.10455 458.0 567.0 458.89542 567.0 460.0Z" fill-rule="nonzero"/><path fill="#4285f4" clip-path="url(#id_0)" d="M567.0 502.0L540.0 502.0L540.0 460.0C540.0 458.89542 540.89545 458.0 542.0 458.0L565.0 458.0C566.10455 458.0 567.0 458.89542 567.0 460.0Z" fill-rule="nonzero"/><path stroke="#000000" stroke-width="2.0" stroke-linecap="butt" stroke-opacity="0.0" clip-path="url(#id_0)" d="M609.0 502.0L582.0 502.0L582.0 431.0C582.0 429.89542 582.89545 429.0 584.0 429.0L607.0 429.0C608.10455 429.0 609.0 429.89542 609.0 431.0Z" fill-rule="nonzero"/><path fill="#4285f4" clip-path="url(#id_0)" d="M609.0 502.0L582.0 502.0L582.0 431.0C582.0 429.89542 582.89545 429.0 584.0 429.0L607.0 429.0C608.10455 429.0 609.0 429.89542 609.0 431.0Z" fill-rule="nonzero"/><path stroke="#000000" stroke-width="2.0" stroke-linecap="butt" stroke-opacity="0.0" clip-path="url(#id_0)" d="M651.0 502.0L624.0 502.0L624.0 357.0C624.0 355.89542 624.89545 355.0 626.0 355.0L649.0 355.0C650.10455 355.0 651.0 355.89542 651.0 357.0Z" fill-rule="nonzero"/><path fill="#4285f4" clip-path="url(#id_0)" d="M651.0 502.0L624.0 502.0L624.0 357.0C624.0 355.89542 624.89545 355.0 626.0 355.0L649.0 355.0C650.10455 355.0 651.0 355.89542 651.0 357.0Z" fill-rule="nonzero"/><path stroke="#000000" stroke-width="2.0" stroke-linecap="butt" stroke-opacity="0.0" clip-path="url(#id_0)" d="M693.0 502.0L666.0 502.0L666.0 362.0C666.0 360.89542 666.89545 360.0 668.0 360.0L691.0 360.0C692.10455 360.0 693.0 360.89542 693.0 362.0Z" fill-rule="nonzero"/><path fill="#4285f4" clip-path="url(#id_0)" d="M693.0 502.0L666.0 502.0L666.0 362.0C666.0 360.89542 666.89545 360.0 668.0 360.0L691.0 360.0C692.10455 360.0 693.0 360.89542 693.0 362.0Z" fill-rule="nonzero"/><path stroke="#000000" stroke-width="2.0" stroke-linecap="butt" stroke-opacity="0.0" clip-path="url(#id_0)" d="M735.0 502.0L708.0 502.0L708.0 300.0C708.0 298.89542 708.89545 298.0 710.0 298.0L733.0 298.0C734.10455 298.0 735.0 298.89542 735.0 300.0Z" fill-rule="nonzero"/><path fill="#4285f4" clip-path="url(#id_0)" d="M735.0 502.0L708.0 502.0L708.0 300.0C708.0 298.89542 708.89545 298.0 710.0 298.0L733.0 298.0C734.10455 298.0 735.0 298.89542 735.0 300.0Z" fill-rule="nonzero"/><path stroke="#000000" stroke-width="2.0" stroke-linecap="butt" stroke-opacity="0.0" clip-path="url(#id_0)" d="M777.0 502.0L750.0 502.0L750.0 322.0C750.0 320.89542 750.89545 320.0 752.0 320.0L775.0 320.0C776.10455 320.0 777.0 320.89542 777.0 322.0Z" fill-rule="nonzero"/><path fill="#4285f4" clip-path="url(#id_0)" d="M777.0 502.0L750.0 502.0L750.0 322.0C750.0 320.89542 750.89545 320.0 752.0 320.0L775.0 320.0C776.10455 320.0 777.0 320.89542 777.0 322.0Z" fill-rule="nonzero"/><path stroke="#000000" stroke-width="2.0" stroke-linecap="butt" stroke-opacity="0.0" clip-path="url(#id_0)" d="M819.0 502.0L792.0 502.0L792.0 283.0C792.0 281.89542 792.89545 281.0 794.0 281.0L817.0 281.0C818.10455 281.0 819.0 281.89542 819.0 283.0Z" fill-rule="nonzero"/><path fill="#4285f4" clip-path="url(#id_0)" d="M819.0 502.0L792.0 502.0L792.0 283.0C792.0 281.89542 792.89545 281.0 794.0 281.0L817.0 281.0C818.10455 281.0 819.0 281.89542 819.0 283.0Z" fill-rule="nonzero"/><path stroke="#000000" stroke-width="2.0" stroke-linecap="butt" stroke-opacity="0.0" clip-path="url(#id_0)" d="M861.0 502.0L834.0 502.0L834.0 131.0C834.0 129.89543 834.89545 129.0 836.0 129.0L859.0 129.0C860.10455 129.0 861.0 129.89543 861.0 131.0Z" fill-rule="nonzero"/><path fill="#4285f4" clip-path="url(#id_0)" d="M861.0 502.0L834.0 502.0L834.0 131.0C834.0 129.89543 834.89545 129.0 836.0 129.0L859.0 129.0C860.10455 129.0 861.0 129.89543 861.0 131.0Z" fill-rule="nonzero"/><path stroke="#000000" stroke-width="2.0" stroke-linecap="butt" stroke-opacity="0.0" clip-path="url(#id_0)" d="M902.0 502.0L875.0 502.0L875.0 160.0C875.0 158.89543 875.89545 158.0 877.0 158.0L900.0 158.0C901.10455 158.0 902.0 158.89543 902.0 160.0Z" fill-rule="nonzero"/><path fill="#4285f4" clip-path="url(#id_0)" d="M902.0 502.0L875.0 502.0L875.0 160.0C875.0 158.89543 875.89545 158.0 877.0 158.0L900.0 158.0C901.10455 158.0 902.0 158.89543 902.0 160.0Z" fill-rule="nonzero"/><path fill="#424242" d="M503.09375 548.5L505.3125 544.21875L506.59375 544.21875L503.65625 549.5625L503.65625 552.75L502.53125 552.75L502.53125 549.5625L499.59375 544.21875L500.875 544.21875L503.09375 548.5ZM509.95312 552.875Q508.65625 552.875 507.84375 552.03125Q507.04688 551.1719 507.04688 549.75L507.04688 549.5625Q507.04688 548.6094 507.40625 547.875Q507.76562 547.125 508.40625 546.71875Q509.0625 546.2969 509.8125 546.2969Q511.04688 546.2969 511.73438 547.1094Q512.4219 547.9219 512.4219 549.4375L512.4219 549.8906L508.125 549.8906Q508.15625 550.8281 508.67188 551.40625Q509.20312 551.9844 510.01562 551.9844Q510.57812 551.9844 510.96875 551.75Q511.375 551.5156 511.6875 551.125L512.34375 551.6406Q511.54688 552.875 509.95312 552.875ZM509.8125 547.1875Q509.15625 547.1875 508.70312 547.6719Q508.26562 548.1406 508.17188 549.0L511.34375 549.0L511.34375 548.9219Q511.29688 548.09375 510.89062 547.6406Q510.5 547.1875 509.8125 547.1875ZM517.2344 552.75Q517.1406 552.5625 517.0781 552.0781Q516.3281 552.875 515.28125 552.875Q514.34375 552.875 513.7344 552.34375Q513.1406 551.8125 513.1406 550.9844Q513.1406 550.0 513.8906 549.4531Q514.6406 548.90625 516.0156 548.90625L517.0625 548.90625L517.0625 548.40625Q517.0625 547.84375 516.71875 547.5156Q516.3906 547.1719 515.71875 547.1719Q515.1406 547.1719 514.75 547.46875Q514.3594 547.75 514.3594 548.1719L513.2656 548.1719Q513.2656 547.6875 513.59375 547.25Q513.9375 546.8125 514.5156 546.5625Q515.09375 546.2969 515.78125 546.2969Q516.8906 546.2969 517.5 546.84375Q518.125 547.3906 518.15625 548.34375L518.15625 551.2656Q518.15625 552.1406 518.375 552.65625L518.375 552.75L517.2344 552.75ZM515.4375 551.9219Q515.9531 551.9219 516.40625 551.65625Q516.8594 551.3906 517.0625 550.96875L517.0625 549.6719L516.21875 549.6719Q514.21875 549.6719 514.21875 550.84375Q514.21875 551.34375 514.5625 551.6406Q514.90625 551.9219 515.4375 551.9219ZM523.3906 547.375Q523.1406 547.34375 522.8594 547.34375Q521.78125 547.34375 521.40625 548.25L521.40625 552.75L520.3281 552.75L520.3281 546.40625L521.375 546.40625L521.3906 547.1406Q521.9219 546.2969 522.90625 546.2969Q523.21875 546.2969 523.3906 546.375L523.3906 547.375Z" fill-rule="nonzero"/><path fill="#424242" d="M33.640625 361.35938L33.640625 364.10938L41.25 364.10938L41.25 365.21875L33.640625 365.21875L33.640625 367.96875L32.71875 367.96875L32.71875 361.35938L33.640625 361.35938ZM38.015625 360.71875Q37.09375 360.71875 36.34375 360.35938Q35.59375 359.98438 35.203125 359.32812Q34.796875 358.67188 34.796875 357.84375Q34.796875 356.54688 35.6875 355.75Q36.578125 354.9375 38.078125 354.9375L38.15625 354.9375Q39.078125 354.9375 39.8125 355.29688Q40.546875 355.65625 40.96875 356.3125Q41.375 356.96875 41.375 357.82812Q41.375 359.10938 40.484375 359.92188Q39.578125 360.71875 38.09375 360.71875L38.015625 360.71875ZM38.15625 359.625Q39.203125 359.625 39.84375 359.14062Q40.484375 358.64062 40.484375 357.82812Q40.484375 357.0 39.84375 356.51562Q39.1875 356.03125 38.015625 356.03125Q36.984375 356.03125 36.34375 356.53125Q35.6875 357.01562 35.6875 357.84375Q35.6875 358.64062 36.328125 359.14062Q36.953125 359.625 38.15625 359.625ZM33.375 351.95312L34.90625 351.95312L34.90625 350.78125L35.75 350.78125L35.75 351.95312L39.671875 351.95312Q40.0625 351.95312 40.25 351.79688Q40.4375 351.64062 40.4375 351.26562Q40.4375 351.07812 40.375 350.75L41.25 350.75Q41.375 351.17188 41.375 351.57812Q41.375 352.29688 40.9375 352.67188Q40.484375 353.04688 39.671875 353.04688L35.75 353.04688L35.75 354.20312L34.90625 354.20312L34.90625 353.04688L33.375 353.04688L33.375 351.95312ZM41.25 345.51562Q41.0625 345.60938 40.578125 345.67188Q41.375 346.42188 41.375 347.46875Q41.375 348.40625 40.84375 349.01562Q40.3125 349.60938 39.484375 349.60938Q38.5 349.60938 37.953125 348.85938Q37.40625 348.10938 37.40625 346.73438L37.40625 345.6875L36.90625 345.6875Q36.34375 345.6875 36.015625 346.03125Q35.671875 346.35938 35.671875 347.03125Q35.671875 347.60938 35.96875 348.0Q36.25 348.39062 36.671875 348.39062L36.671875 349.48438Q36.1875 349.48438 35.75 349.15625Q35.3125 348.8125 35.0625 348.23438Q34.796875 347.65625 34.796875 346.96875Q34.796875 345.85938 35.34375 345.25Q35.890625 344.625 36.84375 344.59375L39.765625 344.59375Q40.640625 344.59375 41.15625 344.375L41.25 344.375L41.25 345.51562ZM40.421875 347.3125Q40.421875 346.79688 40.15625 346.34375Q39.890625 345.89062 39.46875 345.6875L38.171875 345.6875L38.171875 346.53125Q38.171875 348.53125 39.34375 348.53125Q39.84375 348.53125 40.140625 348.1875Q40.421875 347.84375 40.421875 347.3125ZM41.25 341.25L41.25 342.32812L32.25 342.32812L32.25 341.25L41.25 341.25ZM41.25 329.70312L41.25 330.82812L34.671875 335.125L41.25 335.125L41.25 336.26562L32.71875 336.26562L32.71875 335.125L39.328125 330.82812L32.71875 330.82812L32.71875 329.70312L41.25 329.70312ZM40.625 323.51562Q41.375 324.14062 41.375 325.375Q41.375 326.39062 40.78125 326.92188Q40.1875 327.45312 39.03125 327.45312L34.90625 327.45312L34.90625 326.375L39.0 326.375Q40.453125 326.375 40.453125 325.20312Q40.453125 323.95312 39.515625 323.54688L34.90625 323.54688L34.90625 322.45312L41.25 322.45312L41.25 323.48438L40.625 323.51562ZM34.90625 319.40625L35.609375 319.375Q34.796875 318.6875 34.796875 317.5Q34.796875 316.17188 35.8125 315.6875Q35.359375 315.375 35.078125 314.875Q34.796875 314.35938 34.796875 313.67188Q34.796875 311.57812 37.0 311.54688L41.25 311.54688L41.25 312.625L37.0625 312.625Q36.390625 312.625 36.0625 312.9375Q35.71875 313.25 35.71875 313.98438Q35.71875 314.59375 36.078125 315.0Q36.4375 315.39062 37.046875 315.45312L41.25 315.45312L41.25 316.53125L37.09375 316.53125Q35.71875 316.53125 35.71875 317.89062Q35.71875 318.95312 36.625 319.34375L41.25 319.34375L41.25 320.4375L34.90625 320.4375L34.90625 319.40625ZM38.15625 304.0625Q39.609375 304.0625 40.5 304.73438Q41.375 305.39062 41.375 306.51562Q41.375 307.71875 40.515625 308.375L41.25 308.4375L41.25 309.42188L32.25 309.42188L32.25 308.34375L35.609375 308.34375Q34.796875 307.6875 34.796875 306.53125Q34.796875 305.375 35.671875 304.71875Q36.53125 304.0625 38.0625 304.0625L38.15625 304.0625ZM38.03125 305.14062Q36.921875 305.14062 36.328125 305.57812Q35.71875 306.0 35.71875 306.79688Q35.71875 307.875 36.703125 308.34375L39.453125 308.34375Q40.453125 307.84375 40.453125 306.79688Q40.453125 306.01562 39.84375 305.57812Q39.234375 305.14062 38.03125 305.14062ZM41.375 299.79688Q41.375 301.09375 40.53125 301.90625Q39.671875 302.70312 38.25 302.70312L38.0625 302.70312Q37.109375 302.70312 36.375 302.34375Q35.625 301.98438 35.21875 301.34375Q34.796875 300.6875 34.796875 299.9375Q34.796875 298.70312 35.609375 298.01562Q36.421875 297.32812 37.9375 297.32812L38.390625 297.32812L38.390625 301.625Q39.328125 301.59375 39.90625 301.07812Q40.484375 300.54688 40.484375 299.73438Q40.484375 299.17188 40.25 298.78125Q40.015625 298.375 39.625 298.0625L40.140625 297.40625Q41.375 298.20312 41.375 299.79688ZM35.6875 299.9375Q35.6875 300.59375 36.171875 301.04688Q36.640625 301.48438 37.5 301.57812L37.5 298.40625L37.421875 298.40625Q36.59375 298.45312 36.140625 298.85938Q35.6875 299.25 35.6875 299.9375ZM35.875 293.35938Q35.84375 293.60938 35.84375 293.89062Q35.84375 294.96875 36.75 295.34375L41.25 295.34375L41.25 296.42188L34.90625 296.42188L34.90625 295.375L35.640625 295.35938Q34.796875 294.82812 34.796875 293.84375Q34.796875 293.53125 34.875 293.35938L35.875 293.35938ZM38.015625 289.71875Q37.09375 289.71875 36.34375 289.35938Q35.59375 288.98438 35.203125 288.32812Q34.796875 287.67188 34.796875 286.84375Q34.796875 285.54688 35.6875 284.75Q36.578125 283.9375 38.078125 283.9375L38.15625 283.9375Q39.078125 283.9375 39.8125 284.29688Q40.546875 284.65625 40.96875 285.3125Q41.375 285.96875 41.375 286.82812Q41.375 288.10938 40.484375 288.92188Q39.578125 289.71875 38.09375 289.71875L38.015625 289.71875ZM38.15625 288.625Q39.203125 288.625 39.84375 288.14062Q40.484375 287.64062 40.484375 286.82812Q40.484375 286.0 39.84375 285.51562Q39.1875 285.03125 38.015625 285.03125Q36.984375 285.03125 36.34375 285.53125Q35.6875 286.01562 35.6875 286.84375Q35.6875 287.64062 36.328125 288.14062Q36.953125 288.625 38.15625 288.625ZM41.25 281.89062L35.75 281.89062L35.75 282.89062L34.90625 282.89062L34.90625 281.89062L34.265625 281.89062Q33.234375 281.89062 32.6875 281.35938Q32.125 280.8125 32.125 279.8125Q32.125 279.4375 32.21875 279.0625L33.109375 279.125Q33.046875 279.40625 33.046875 279.70312Q33.046875 280.23438 33.359375 280.53125Q33.671875 280.8125 34.234375 280.8125L34.90625 280.8125L34.90625 279.45312L35.75 279.45312L35.75 280.8125L41.25 280.8125L41.25 281.89062ZM38.5625 273.42188L39.6875 273.25L38.671875 273.01562L32.71875 271.32812L32.71875 270.375L38.671875 268.73438L39.703125 268.5L38.546875 268.3125L32.71875 266.98438L32.71875 265.85938L41.25 267.92188L41.25 268.95312L35.03125 270.71875L34.375 270.84375L35.03125 270.98438L41.25 272.79688L41.25 273.82812L32.71875 275.89062L32.71875 274.76562L38.5625 273.42188ZM41.375 261.79688Q41.375 263.09375 40.53125 263.90625Q39.671875 264.70312 38.25 264.70312L38.0625 264.70312Q37.109375 264.70312 36.375 264.34375Q35.625 263.98438 35.21875 263.34375Q34.796875 262.6875 34.796875 261.9375Q34.796875 260.70312 35.609375 260.01562Q36.421875 259.32812 37.9375 259.32812L38.390625 259.32812L38.390625 263.625Q39.328125 263.59375 39.90625 263.07812Q40.484375 262.54688 40.484375 261.73438Q40.484375 261.17188 40.25 260.78125Q40.015625 260.375 39.625 260.0625L40.140625 259.40625Q41.375 260.20312 41.375 261.79688ZM35.6875 261.9375Q35.6875 262.59375 36.171875 263.04688Q36.640625 263.48438 37.5 263.57812L37.5 260.40625L37.421875 260.40625Q36.59375 260.45312 36.140625 260.85938Q35.6875 261.25 35.6875 261.9375ZM38.15625 253.0625Q39.609375 253.0625 40.5 253.73438Q41.375 254.39062 41.375 255.51562Q41.375 256.71875 40.515625 257.375L41.25 257.4375L41.25 258.42188L32.25 258.42188L32.25 257.34375L35.609375 257.34375Q34.796875 256.6875 34.796875 255.53125Q34.796875 254.375 35.671875 253.71875Q36.53125 253.0625 38.0625 253.0625L38.15625 253.0625ZM38.03125 254.14062Q36.921875 254.14062 36.328125 254.57812Q35.71875 255.0 35.71875 255.79688Q35.71875 256.875 36.703125 257.34375L39.453125 257.34375Q40.453125 256.84375 40.453125 255.79688Q40.453125 255.01562 39.84375 254.57812Q39.234375 254.14062 38.03125 254.14062ZM39.5625 247.73438Q39.125 247.73438 38.890625 248.07812Q38.640625 248.40625 38.46875 249.23438Q38.296875 250.04688 38.046875 250.53125Q37.796875 251.01562 37.46875 251.25Q37.125 251.46875 36.65625 251.46875Q35.875 251.46875 35.34375 250.8125Q34.796875 250.15625 34.796875 249.125Q34.796875 248.04688 35.359375 247.39062Q35.90625 246.71875 36.765625 246.71875L36.765625 247.79688Q36.328125 247.79688 36.015625 248.1875Q35.6875 248.5625 35.6875 249.125Q35.6875 249.71875 35.953125 250.0625Q36.203125 250.39062 36.609375 250.39062Q37.0 250.39062 37.203125 250.07812Q37.40625 249.76562 37.59375 248.95312Q37.765625 248.14062 38.015625 247.64062Q38.265625 247.14062 38.625 246.90625Q38.984375 246.65625 39.484375 246.65625Q40.34375 246.65625 40.859375 247.34375Q41.375 248.01562 41.375 249.09375Q41.375 249.85938 41.109375 250.45312Q40.828125 251.03125 40.34375 251.35938Q39.859375 251.6875 39.296875 251.6875L39.296875 250.60938Q39.84375 250.57812 40.171875 250.17188Q40.484375 249.76562 40.484375 249.09375Q40.484375 248.48438 40.234375 248.10938Q39.984375 247.73438 39.5625 247.73438ZM41.25 244.25L41.25 245.32812L34.90625 245.32812L34.90625 244.25L41.25 244.25ZM33.234375 245.42188Q32.96875 245.42188 32.78125 245.26562Q32.59375 245.09375 32.59375 244.78125Q32.59375 244.46875 32.78125 244.3125Q32.96875 244.14062 33.234375 244.14062Q33.484375 244.14062 33.671875 244.3125Q33.84375 244.46875 33.84375 244.78125Q33.84375 245.09375 33.671875 245.26562Q33.484375 245.42188 33.234375 245.42188ZM33.375 240.95312L34.90625 240.95312L34.90625 239.78125L35.75 239.78125L35.75 240.95312L39.671875 240.95312Q40.0625 240.95312 40.25 240.79688Q40.4375 240.64062 40.4375 240.26562Q40.4375 240.07812 40.375 239.75L41.25 239.75Q41.375 240.17188 41.375 240.57812Q41.375 241.29688 40.9375 241.67188Q40.484375 242.04688 39.671875 242.04688L35.75 242.04688L35.75 243.20312L34.90625 243.20312L34.90625 242.04688L33.375 242.04688L33.375 240.95312ZM41.375 235.79688Q41.375 237.09375 40.53125 237.90625Q39.671875 238.70312 38.25 238.70312L38.0625 238.70312Q37.109375 238.70312 36.375 238.34375Q35.625 237.98438 35.21875 237.34375Q34.796875 236.6875 34.796875 235.9375Q34.796875 234.70312 35.609375 234.01562Q36.421875 233.32812 37.9375 233.32812L38.390625 233.32812L38.390625 237.625Q39.328125 237.59375 39.90625 237.07812Q40.484375 236.54688 40.484375 235.73438Q40.484375 235.17188 40.25 234.78125Q40.015625 234.375 39.625 234.0625L40.140625 233.40625Q41.375 234.20312 41.375 235.79688ZM35.6875 235.9375Q35.6875 236.59375 36.171875 237.04688Q36.640625 237.48438 37.5 237.57812L37.5 234.40625L37.421875 234.40625Q36.59375 234.45312 36.140625 234.85938Q35.6875 235.25 35.6875 235.9375ZM39.5625 228.73438Q39.125 228.73438 38.890625 229.07812Q38.640625 229.40625 38.46875 230.23438Q38.296875 231.04688 38.046875 231.53125Q37.796875 232.01562 37.46875 232.25Q37.125 232.46875 36.65625 232.46875Q35.875 232.46875 35.34375 231.8125Q34.796875 231.15625 34.796875 230.125Q34.796875 229.04688 35.359375 228.39062Q35.90625 227.71875 36.765625 227.71875L36.765625 228.79688Q36.328125 228.79688 36.015625 229.1875Q35.6875 229.5625 35.6875 230.125Q35.6875 230.71875 35.953125 231.0625Q36.203125 231.39062 36.609375 231.39062Q37.0 231.39062 37.203125 231.07812Q37.40625 230.76562 37.59375 229.95312Q37.765625 229.14062 38.015625 228.64062Q38.265625 228.14062 38.625 227.90625Q38.984375 227.65625 39.484375 227.65625Q40.34375 227.65625 40.859375 228.34375Q41.375 229.01562 41.375 230.09375Q41.375 230.85938 41.109375 231.45312Q40.828125 232.03125 40.34375 232.35938Q39.859375 232.6875 39.296875 232.6875L39.296875 231.60938Q39.84375 231.57812 40.171875 231.17188Q40.484375 230.76562 40.484375 230.09375Q40.484375 229.48438 40.234375 229.10938Q39.984375 228.73438 39.5625 228.73438Z" fill-rule="nonzero"/><path fill="#757575" d="M99.3125 502.60938Q99.3125 504.51562 98.65625 505.45312Q98.015625 506.375 96.625 506.375Q95.265625 506.375 94.609375 505.46875Q93.953125 504.5625 93.921875 502.75L93.921875 501.3125Q93.921875 499.42188 94.5625 498.51562Q95.21875 497.59375 96.609375 497.59375Q97.984375 497.59375 98.640625 498.48438Q99.296875 499.35938 99.3125 501.20312L99.3125 502.60938ZM98.21875 501.125Q98.21875 499.75 97.828125 499.125Q97.453125 498.48438 96.609375 498.48438Q95.78125 498.48438 95.390625 499.125Q95.015625 499.75 95.015625 501.04688L95.015625 502.78125Q95.015625 504.15625 95.40625 504.82812Q95.8125 505.48438 96.625 505.48438Q97.421875 505.48438 97.8125 504.85938Q98.203125 504.23438 98.21875 502.90625L98.21875 501.125Z" fill-rule="nonzero"/><path fill="#757575" d="M63.453125 396.59375L63.890625 392.34375L68.265625 392.34375L68.265625 393.34375L64.8125 393.34375L64.546875 395.67188Q65.1875 395.29688 65.984375 395.29688Q67.140625 395.29688 67.828125 396.07812Q68.515625 396.84375 68.515625 398.15625Q68.515625 399.46875 67.796875 400.23438Q67.09375 401.0 65.8125 401.0Q64.6875 401.0 63.96875 400.375Q63.25 399.73438 63.15625 398.625L64.171875 398.625Q64.28125 399.35938 64.703125 399.73438Q65.125 400.10938 65.8125 400.10938Q66.5625 400.10938 67.0 399.59375Q67.4375 399.07812 67.4375 398.17188Q67.4375 397.3125 66.96875 396.79688Q66.5 396.28125 65.71875 396.28125Q65.015625 396.28125 64.609375 396.57812L64.328125 396.8125L63.453125 396.59375ZM70.09375 400.3125Q70.09375 400.03125 70.25 399.84375Q70.421875 399.65625 70.75 399.65625Q71.09375 399.65625 71.265625 399.84375Q71.4375 400.03125 71.4375 400.3125Q71.4375 400.57812 71.265625 400.76562Q71.09375 400.9375 70.75 400.9375Q70.421875 400.9375 70.25 400.76562Q70.09375 400.57812 70.09375 400.3125ZM78.3125 397.23438Q78.3125 399.14062 77.65625 400.07812Q77.015625 401.0 75.625 401.0Q74.265625 401.0 73.609375 400.09375Q72.953125 399.1875 72.921875 397.375L72.921875 395.9375Q72.921875 394.04688 73.5625 393.14062Q74.21875 392.21875 75.609375 392.21875Q76.984375 392.21875 77.640625 393.10938Q78.296875 393.98438 78.3125 395.82812L78.3125 397.23438ZM77.21875 395.75Q77.21875 394.375 76.828125 393.75Q76.453125 393.10938 75.609375 393.10938Q74.78125 393.10938 74.390625 393.75Q74.015625 394.375 74.015625 395.67188L74.015625 397.40625Q74.015625 398.78125 74.40625 399.45312Q74.8125 400.10938 75.625 400.10938Q76.421875 400.10938 76.8125 399.48438Q77.203125 398.85938 77.21875 397.53125L77.21875 395.75ZM85.0625 396.9375L81.359375 396.9375L81.359375 399.95312L85.65625 399.95312L85.65625 400.875L80.234375 400.875L80.234375 392.34375L85.609375 392.34375L85.609375 393.26562L81.359375 393.26562L81.359375 396.01562L85.0625 396.01562L85.0625 396.9375ZM90.171875 396.29688L92.5625 396.29688L92.5625 397.32812L90.171875 397.32812L90.171875 400.01562L89.09375 400.01562L89.09375 397.32812L86.703125 397.32812L86.703125 396.29688L89.09375 396.29688L89.09375 393.8125L90.171875 393.8125L90.171875 396.29688ZM99.140625 394.5625Q99.140625 395.20312 98.796875 395.70312Q98.453125 396.20312 97.890625 396.48438Q98.546875 396.76562 98.9375 397.32812Q99.328125 397.875 99.328125 398.57812Q99.328125 399.67188 98.578125 400.34375Q97.84375 401.0 96.625 401.0Q95.390625 401.0 94.640625 400.34375Q93.90625 399.67188 93.90625 398.57812Q93.90625 397.875 94.28125 397.32812Q94.65625 396.76562 95.328125 396.48438Q94.765625 396.20312 94.4375 395.70312Q94.109375 395.20312 94.109375 394.5625Q94.109375 393.48438 94.796875 392.85938Q95.484375 392.21875 96.625 392.21875Q97.75 392.21875 98.4375 392.85938Q99.140625 393.48438 99.140625 394.5625ZM98.25 398.54688Q98.25 397.82812 97.796875 397.39062Q97.34375 396.9375 96.609375 396.9375Q95.875 396.9375 95.421875 397.39062Q94.984375 397.82812 94.984375 398.5625Q94.984375 399.28125 95.421875 399.70312Q95.859375 400.10938 96.625 400.10938Q97.375 400.10938 97.8125 399.6875Q98.25 399.26562 98.25 398.54688ZM96.625 393.10938Q95.984375 393.10938 95.578125 393.51562Q95.1875 393.90625 95.1875 394.59375Q95.1875 395.23438 95.578125 395.64062Q95.96875 396.04688 96.609375 396.04688Q97.265625 396.04688 97.65625 395.64062Q98.046875 395.23438 98.046875 394.59375Q98.046875 393.9375 97.640625 393.53125Q97.234375 393.10938 96.625 393.10938Z" fill-rule="nonzero"/><path fill="#757575" d="M66.515625 295.5L65.4375 295.5L65.4375 288.28125L63.25 289.07812L63.25 288.09375L66.359375 286.92188L66.515625 286.92188L66.515625 295.5ZM70.09375 294.9375Q70.09375 294.65625 70.25 294.46875Q70.421875 294.28125 70.75 294.28125Q71.09375 294.28125 71.265625 294.46875Q71.4375 294.65625 71.4375 294.9375Q71.4375 295.20312 71.265625 295.39062Q71.09375 295.5625 70.75 295.5625Q70.421875 295.5625 70.25 295.39062Q70.09375 295.20312 70.09375 294.9375ZM78.3125 291.85938Q78.3125 293.76562 77.65625 294.70312Q77.015625 295.625 75.625 295.625Q74.265625 295.625 73.609375 294.71875Q72.953125 293.8125 72.921875 292.0L72.921875 290.5625Q72.921875 288.67188 73.5625 287.76562Q74.21875 286.84375 75.609375 286.84375Q76.984375 286.84375 77.640625 287.73438Q78.296875 288.60938 78.3125 290.45312L78.3125 291.85938ZM77.21875 290.375Q77.21875 289.0 76.828125 288.375Q76.453125 287.73438 75.609375 287.73438Q74.78125 287.73438 74.390625 288.375Q74.015625 289.0 74.015625 290.29688L74.015625 292.03125Q74.015625 293.40625 74.40625 294.07812Q74.8125 294.73438 75.625 294.73438Q76.421875 294.73438 76.8125 294.10938Q77.203125 293.48438 77.21875 292.15625L77.21875 290.375ZM85.0625 291.5625L81.359375 291.5625L81.359375 294.57812L85.65625 294.57812L85.65625 295.5L80.234375 295.5L80.234375 286.96875L85.609375 286.96875L85.609375 287.89062L81.359375 287.89062L81.359375 290.64062L85.0625 290.64062L85.0625 291.5625ZM90.171875 290.92188L92.5625 290.92188L92.5625 291.95312L90.171875 291.95312L90.171875 294.64062L89.09375 294.64062L89.09375 291.95312L86.703125 291.95312L86.703125 290.92188L89.09375 290.92188L89.09375 288.4375L90.171875 288.4375L90.171875 290.92188ZM98.109375 291.75Q97.78125 292.15625 97.296875 292.40625Q96.828125 292.64062 96.265625 292.64062Q95.53125 292.64062 94.984375 292.28125Q94.4375 291.92188 94.140625 291.26562Q93.84375 290.59375 93.84375 289.79688Q93.84375 288.95312 94.15625 288.26562Q94.484375 287.57812 95.078125 287.21875Q95.6875 286.84375 96.484375 286.84375Q97.75 286.84375 98.46875 287.79688Q99.203125 288.75 99.203125 290.375L99.203125 290.6875Q99.203125 293.1875 98.21875 294.32812Q97.234375 295.46875 95.25 295.5L95.03125 295.5L95.03125 294.59375L95.265625 294.59375Q96.609375 294.5625 97.328125 293.89062Q98.046875 293.21875 98.109375 291.75ZM96.4375 291.75Q96.984375 291.75 97.4375 291.42188Q97.90625 291.07812 98.125 290.59375L98.125 290.15625Q98.125 289.09375 97.65625 288.42188Q97.1875 287.75 96.484375 287.75Q95.765625 287.75 95.328125 288.29688Q94.90625 288.84375 94.90625 289.75Q94.90625 290.625 95.3125 291.1875Q95.734375 291.75 96.4375 291.75Z" fill-rule="nonzero"/><path fill="#757575" d="M66.515625 190.125L65.4375 190.125L65.4375 182.90625L63.25 183.70312L63.25 182.71875L66.359375 181.54688L66.515625 181.54688L66.515625 190.125ZM70.09375 189.5625Q70.09375 189.28125 70.25 189.09375Q70.421875 188.90625 70.75 188.90625Q71.09375 188.90625 71.265625 189.09375Q71.4375 189.28125 71.4375 189.5625Q71.4375 189.82812 71.265625 190.01562Q71.09375 190.1875 70.75 190.1875Q70.421875 190.1875 70.25 190.01562Q70.09375 189.82812 70.09375 189.5625ZM73.453125 185.84375L73.890625 181.59375L78.265625 181.59375L78.265625 182.59375L74.8125 182.59375L74.546875 184.92188Q75.1875 184.54688 75.984375 184.54688Q77.140625 184.54688 77.828125 185.32812Q78.515625 186.09375 78.515625 187.40625Q78.515625 188.71875 77.796875 189.48438Q77.09375 190.25 75.8125 190.25Q74.6875 190.25 73.96875 189.625Q73.25 188.98438 73.15625 187.875L74.171875 187.875Q74.28125 188.60938 74.703125 188.98438Q75.125 189.35938 75.8125 189.35938Q76.5625 189.35938 77.0 188.84375Q77.4375 188.32812 77.4375 187.42188Q77.4375 186.5625 76.96875 186.04688Q76.5 185.53125 75.71875 185.53125Q75.015625 185.53125 74.609375 185.82812L74.328125 186.0625L73.453125 185.84375ZM85.0625 186.1875L81.359375 186.1875L81.359375 189.20312L85.65625 189.20312L85.65625 190.125L80.234375 190.125L80.234375 181.59375L85.609375 181.59375L85.609375 182.51562L81.359375 182.51562L81.359375 185.26562L85.0625 185.26562L85.0625 186.1875ZM90.171875 185.54688L92.5625 185.54688L92.5625 186.57812L90.171875 186.57812L90.171875 189.26562L89.09375 189.26562L89.09375 186.57812L86.703125 186.57812L86.703125 185.54688L89.09375 185.54688L89.09375 183.0625L90.171875 183.0625L90.171875 185.54688ZM98.109375 186.375Q97.78125 186.78125 97.296875 187.03125Q96.828125 187.26562 96.265625 187.26562Q95.53125 187.26562 94.984375 186.90625Q94.4375 186.54688 94.140625 185.89062Q93.84375 185.21875 93.84375 184.42188Q93.84375 183.57812 94.15625 182.89062Q94.484375 182.20312 95.078125 181.84375Q95.6875 181.46875 96.484375 181.46875Q97.75 181.46875 98.46875 182.42188Q99.203125 183.375 99.203125 185.0L99.203125 185.3125Q99.203125 187.8125 98.21875 188.95312Q97.234375 190.09375 95.25 190.125L95.03125 190.125L95.03125 189.21875L95.265625 189.21875Q96.609375 189.1875 97.328125 188.51562Q98.046875 187.84375 98.109375 186.375ZM96.4375 186.375Q96.984375 186.375 97.4375 186.04688Q97.90625 185.70312 98.125 185.21875L98.125 184.78125Q98.125 183.71875 97.65625 183.04688Q97.1875 182.375 96.484375 182.375Q95.765625 182.375 95.328125 182.92188Q94.90625 183.46875 94.90625 184.375Q94.90625 185.25 95.3125 185.8125Q95.734375 186.375 96.4375 186.375Z" fill-rule="nonzero"/><path fill="#757575" d="M68.546875 84.75L62.953125 84.75L62.953125 83.96875L65.90625 80.6875Q66.5625 79.9375 66.8125 79.484375Q67.0625 79.015625 67.0625 78.515625Q67.0625 77.84375 66.65625 77.421875Q66.265625 76.984375 65.578125 76.984375Q64.78125 76.984375 64.328125 77.453125Q63.875 77.90625 63.875 78.734375L62.796875 78.734375Q62.796875 77.546875 63.546875 76.828125Q64.3125 76.09375 65.578125 76.09375Q66.78125 76.09375 67.46875 76.71875Q68.15625 77.34375 68.15625 78.390625Q68.15625 79.640625 66.546875 81.390625L64.265625 83.859375L68.546875 83.859375L68.546875 84.75ZM70.09375 84.1875Q70.09375 83.90625 70.25 83.71875Q70.421875 83.53125 70.75 83.53125Q71.09375 83.53125 71.265625 83.71875Q71.4375 83.90625 71.4375 84.1875Q71.4375 84.453125 71.265625 84.640625Q71.09375 84.8125 70.75 84.8125Q70.421875 84.8125 70.25 84.640625Q70.09375 84.453125 70.09375 84.1875ZM78.3125 81.109375Q78.3125 83.015625 77.65625 83.953125Q77.015625 84.875 75.625 84.875Q74.265625 84.875 73.609375 83.96875Q72.953125 83.0625 72.921875 81.25L72.921875 79.8125Q72.921875 77.921875 73.5625 77.015625Q74.21875 76.09375 75.609375 76.09375Q76.984375 76.09375 77.640625 76.984375Q78.296875 77.859375 78.3125 79.703125L78.3125 81.109375ZM77.21875 79.625Q77.21875 78.25 76.828125 77.625Q76.453125 76.984375 75.609375 76.984375Q74.78125 76.984375 74.390625 77.625Q74.015625 78.25 74.015625 79.546875L74.015625 81.28125Q74.015625 82.65625 74.40625 83.328125Q74.8125 83.984375 75.625 83.984375Q76.421875 83.984375 76.8125 83.359375Q77.203125 82.734375 77.21875 81.40625L77.21875 79.625ZM85.0625 80.8125L81.359375 80.8125L81.359375 83.828125L85.65625 83.828125L85.65625 84.75L80.234375 84.75L80.234375 76.21875L85.609375 76.21875L85.609375 77.140625L81.359375 77.140625L81.359375 79.890625L85.0625 79.890625L85.0625 80.8125ZM90.171875 80.171875L92.5625 80.171875L92.5625 81.203125L90.171875 81.203125L90.171875 83.890625L89.09375 83.890625L89.09375 81.203125L86.703125 81.203125L86.703125 80.171875L89.09375 80.171875L89.09375 77.6875L90.171875 77.6875L90.171875 80.171875ZM98.109375 81.0Q97.78125 81.40625 97.296875 81.65625Q96.828125 81.890625 96.265625 81.890625Q95.53125 81.890625 94.984375 81.53125Q94.4375 81.171875 94.140625 80.515625Q93.84375 79.84375 93.84375 79.046875Q93.84375 78.203125 94.15625 77.515625Q94.484375 76.828125 95.078125 76.46875Q95.6875 76.09375 96.484375 76.09375Q97.75 76.09375 98.46875 77.046875Q99.203125 78.0 99.203125 79.625L99.203125 79.9375Q99.203125 82.4375 98.21875 83.578125Q97.234375 84.71875 95.25 84.75L95.03125 84.75L95.03125 83.84375L95.265625 83.84375Q96.609375 83.8125 97.328125 83.140625Q98.046875 82.46875 98.109375 81.0ZM96.4375 81.0Q96.984375 81.0 97.4375 80.671875Q97.90625 80.328125 98.125 79.84375L98.125 79.40625Q98.125 78.34375 97.65625 77.671875Q97.1875 77.0 96.484375 77.0Q95.765625 77.0 95.328125 77.546875Q94.90625 78.09375 94.90625 79.0Q94.90625 79.875 95.3125 80.4375Q95.734375 81.0 96.4375 81.0Z" fill-rule="nonzero"/><path fill="#757575" d="M126.82013 519.75L121.22638 519.75L121.22638 518.96875L124.179504 515.6875Q124.835754 514.9375 125.085754 514.4844Q125.335754 514.0156 125.335754 513.5156Q125.335754 512.84375 124.929504 512.4219Q124.53888 511.98438 123.85138 511.98438Q123.054504 511.98438 122.60138 512.4531Q122.148254 512.90625 122.148254 513.7344L121.07013 513.7344Q121.07013 512.5469 121.82013 511.82812Q122.585754 511.09375 123.85138 511.09375Q125.054504 511.09375 125.742004 511.71875Q126.429504 512.34375 126.429504 513.3906Q126.429504 514.6406 124.82013 516.3906L122.53888 518.8594L126.82013 518.8594L126.82013 519.75ZM133.58575 516.1094Q133.58575 518.0156 132.9295 518.9531Q132.28888 519.875 130.89825 519.875Q129.53888 519.875 128.88263 518.96875Q128.22638 518.0625 128.19513 516.25L128.19513 514.8125Q128.19513 512.9219 128.83575 512.0156Q129.492 511.09375 130.88263 511.09375Q132.25763 511.09375 132.91388 511.98438Q133.57013 512.8594 133.58575 514.7031L133.58575 516.1094ZM132.492 514.625Q132.492 513.25 132.10138 512.625Q131.72638 511.98438 130.88263 511.98438Q130.0545 511.98438 129.66388 512.625Q129.28888 513.25 129.28888 514.5469L129.28888 516.28125Q129.28888 517.65625 129.6795 518.3281Q130.08575 518.9844 130.89825 518.9844Q131.69513 518.9844 132.08575 518.3594Q132.47638 517.7344 132.492 516.40625L132.492 514.625ZM140.58575 516.1094Q140.58575 518.0156 139.9295 518.9531Q139.28888 519.875 137.89825 519.875Q136.53888 519.875 135.88263 518.96875Q135.22638 518.0625 135.19513 516.25L135.19513 514.8125Q135.19513 512.9219 135.83575 512.0156Q136.492 511.09375 137.88263 511.09375Q139.25763 511.09375 139.91388 511.98438Q140.57013 512.8594 140.58575 514.7031L140.58575 516.1094ZM139.492 514.625Q139.492 513.25 139.10138 512.625Q138.72638 511.98438 137.88263 511.98438Q137.0545 511.98438 136.66388 512.625Q136.28888 513.25 136.28888 514.5469L136.28888 516.28125Q136.28888 517.65625 136.6795 518.3281Q137.08575 518.9844 137.89825 518.9844Q138.69513 518.9844 139.08575 518.3594Q139.47638 517.7344 139.492 516.40625L139.492 514.625ZM147.58575 516.1094Q147.58575 518.0156 146.9295 518.9531Q146.28888 519.875 144.89825 519.875Q143.53888 519.875 142.88263 518.96875Q142.22638 518.0625 142.19513 516.25L142.19513 514.8125Q142.19513 512.9219 142.83575 512.0156Q143.492 511.09375 144.88263 511.09375Q146.25763 511.09375 146.91388 511.98438Q147.57013 512.8594 147.58575 514.7031L147.58575 516.1094ZM146.492 514.625Q146.492 513.25 146.10138 512.625Q145.72638 511.98438 144.88263 511.98438Q144.0545 511.98438 143.66388 512.625Q143.28888 513.25 143.28888 514.5469L143.28888 516.28125Q143.28888 517.65625 143.6795 518.3281Q144.08575 518.9844 144.89825 518.9844Q145.69513 518.9844 146.08575 518.3594Q146.47638 517.7344 146.492 516.40625L146.492 514.625Z" fill-rule="nonzero"/><path fill="#757575" d="M168.70644 519.75L163.11269 519.75L163.11269 518.96875L166.06581 515.6875Q166.72206 514.9375 166.97206 514.4844Q167.22206 514.0156 167.22206 513.5156Q167.22206 512.84375 166.81581 512.4219Q166.42519 511.98438 165.73769 511.98438Q164.94081 511.98438 164.48769 512.4531Q164.03456 512.90625 164.03456 513.7344L162.95644 513.7344Q162.95644 512.5469 163.70644 511.82812Q164.47206 511.09375 165.73769 511.09375Q166.94081 511.09375 167.62831 511.71875Q168.31581 512.34375 168.31581 513.3906Q168.31581 514.6406 166.70644 516.3906L164.42519 518.8594L168.70644 518.8594L168.70644 519.75ZM175.47206 516.1094Q175.47206 518.0156 174.81581 518.9531Q174.17519 519.875 172.78456 519.875Q171.42519 519.875 170.76894 518.96875Q170.11269 518.0625 170.08144 516.25L170.08144 514.8125Q170.08144 512.9219 170.72206 512.0156Q171.37831 511.09375 172.76894 511.09375Q174.14394 511.09375 174.80019 511.98438Q175.45644 512.8594 175.47206 514.7031L175.47206 516.1094ZM174.37831 514.625Q174.37831 513.25 173.98769 512.625Q173.61269 511.98438 172.76894 511.98438Q171.94081 511.98438 171.55019 512.625Q171.17519 513.25 171.17519 514.5469L171.17519 516.28125Q171.17519 517.65625 171.56581 518.3281Q171.97206 518.9844 172.78456 518.9844Q173.58144 518.9844 173.97206 518.3594Q174.36269 517.7344 174.37831 516.40625L174.37831 514.625ZM182.47206 516.1094Q182.47206 518.0156 181.81581 518.9531Q181.17519 519.875 179.78456 519.875Q178.42519 519.875 177.76894 518.96875Q177.11269 518.0625 177.08144 516.25L177.08144 514.8125Q177.08144 512.9219 177.72206 512.0156Q178.37831 511.09375 179.76894 511.09375Q181.14394 511.09375 181.80019 511.98438Q182.45644 512.8594 182.47206 514.7031L182.47206 516.1094ZM181.37831 514.625Q181.37831 513.25 180.98769 512.625Q180.61269 511.98438 179.76894 511.98438Q178.94081 511.98438 178.55019 512.625Q178.17519 513.25 178.17519 514.5469L178.17519 516.28125Q178.17519 517.65625 178.56581 518.3281Q178.97206 518.9844 179.78456 518.9844Q180.58144 518.9844 180.97206 518.3594Q181.36269 517.7344 181.37831 516.40625L181.37831 514.625ZM187.67519 519.75L186.59706 519.75L186.59706 512.53125L184.40956 513.3281L184.40956 512.34375L187.51894 511.17188L187.67519 511.17188L187.67519 519.75Z" fill-rule="nonzero"/><path fill="#757575" d="M210.59274 519.75L204.999 519.75L204.999 518.96875L207.95212 515.6875Q208.60837 514.9375 208.85837 514.4844Q209.10837 514.0156 209.10837 513.5156Q209.10837 512.84375 208.70212 512.4219Q208.3115 511.98438 207.624 511.98438Q206.82712 511.98438 206.374 512.4531Q205.92087 512.90625 205.92087 513.7344L204.84274 513.7344Q204.84274 512.5469 205.59274 511.82812Q206.35837 511.09375 207.624 511.09375Q208.82712 511.09375 209.51462 511.71875Q210.20212 512.34375 210.20212 513.3906Q210.20212 514.6406 208.59274 516.3906L206.3115 518.8594L210.59274 518.8594L210.59274 519.75ZM217.35837 516.1094Q217.35837 518.0156 216.70212 518.9531Q216.0615 519.875 214.67087 519.875Q213.3115 519.875 212.65524 518.96875Q211.999 518.0625 211.96774 516.25L211.96774 514.8125Q211.96774 512.9219 212.60837 512.0156Q213.26462 511.09375 214.65524 511.09375Q216.03024 511.09375 216.6865 511.98438Q217.34274 512.8594 217.35837 514.7031L217.35837 516.1094ZM216.26462 514.625Q216.26462 513.25 215.874 512.625Q215.499 511.98438 214.65524 511.98438Q213.82712 511.98438 213.4365 512.625Q213.0615 513.25 213.0615 514.5469L213.0615 516.28125Q213.0615 517.65625 213.45212 518.3281Q213.85837 518.9844 214.67087 518.9844Q215.46774 518.9844 215.85837 518.3594Q216.249 517.7344 216.26462 516.40625L216.26462 514.625ZM224.35837 516.1094Q224.35837 518.0156 223.70212 518.9531Q223.0615 519.875 221.67087 519.875Q220.3115 519.875 219.65524 518.96875Q218.999 518.0625 218.96774 516.25L218.96774 514.8125Q218.96774 512.9219 219.60837 512.0156Q220.26462 511.09375 221.65524 511.09375Q223.03024 511.09375 223.6865 511.98438Q224.34274 512.8594 224.35837 514.7031L224.35837 516.1094ZM223.26462 514.625Q223.26462 513.25 222.874 512.625Q222.499 511.98438 221.65524 511.98438Q220.82712 511.98438 220.4365 512.625Q220.0615 513.25 220.0615 514.5469L220.0615 516.28125Q220.0615 517.65625 220.45212 518.3281Q220.85837 518.9844 221.67087 518.9844Q222.46774 518.9844 222.85837 518.3594Q223.249 517.7344 223.26462 516.40625L223.26462 514.625ZM231.59274 519.75L225.999 519.75L225.999 518.96875L228.95212 515.6875Q229.60837 514.9375 229.85837 514.4844Q230.10837 514.0156 230.10837 513.5156Q230.10837 512.84375 229.70212 512.4219Q229.3115 511.98438 228.624 511.98438Q227.82712 511.98438 227.374 512.4531Q226.92087 512.90625 226.92087 513.7344L225.84274 513.7344Q225.84274 512.5469 226.59274 511.82812Q227.35837 511.09375 228.624 511.09375Q229.82712 511.09375 230.51462 511.71875Q231.20212 512.34375 231.20212 513.3906Q231.20212 514.6406 229.59274 516.3906L227.3115 518.8594L231.59274 518.8594L231.59274 519.75Z" fill-rule="nonzero"/><path fill="#757575" d="M252.47905 519.75L246.8853 519.75L246.8853 518.96875L249.83842 515.6875Q250.49467 514.9375 250.74467 514.4844Q250.99467 514.0156 250.99467 513.5156Q250.99467 512.84375 250.58842 512.4219Q250.1978 511.98438 249.5103 511.98438Q248.71342 511.98438 248.2603 512.4531Q247.80717 512.90625 247.80717 513.7344L246.72905 513.7344Q246.72905 512.5469 247.47905 511.82812Q248.24467 511.09375 249.5103 511.09375Q250.71342 511.09375 251.40092 511.71875Q252.08842 512.34375 252.08842 513.3906Q252.08842 514.6406 250.47905 516.3906L248.1978 518.8594L252.47905 518.8594L252.47905 519.75ZM259.2447 516.1094Q259.2447 518.0156 258.58844 518.9531Q257.9478 519.875 256.5572 519.875Q255.1978 519.875 254.54155 518.96875Q253.8853 518.0625 253.85405 516.25L253.85405 514.8125Q253.85405 512.9219 254.49467 512.0156Q255.15092 511.09375 256.54156 511.09375Q257.91656 511.09375 258.5728 511.98438Q259.22906 512.8594 259.2447 514.7031L259.2447 516.1094ZM258.15094 514.625Q258.15094 513.25 257.7603 512.625Q257.3853 511.98438 256.54156 511.98438Q255.71342 511.98438 255.3228 512.625Q254.9478 513.25 254.9478 514.5469L254.9478 516.28125Q254.9478 517.65625 255.33842 518.3281Q255.74467 518.9844 256.5572 518.9844Q257.35406 518.9844 257.7447 518.3594Q258.1353 517.7344 258.15094 516.40625L258.15094 514.625ZM266.2447 516.1094Q266.2447 518.0156 265.58844 518.9531Q264.9478 519.875 263.5572 519.875Q262.1978 519.875 261.54156 518.96875Q260.8853 518.0625 260.85406 516.25L260.85406 514.8125Q260.85406 512.9219 261.4947 512.0156Q262.15094 511.09375 263.54156 511.09375Q264.91656 511.09375 265.5728 511.98438Q266.22906 512.8594 266.2447 514.7031L266.2447 516.1094ZM265.15094 514.625Q265.15094 513.25 264.7603 512.625Q264.3853 511.98438 263.54156 511.98438Q262.71344 511.98438 262.3228 512.625Q261.9478 513.25 261.9478 514.5469L261.9478 516.28125Q261.9478 517.65625 262.33844 518.3281Q262.7447 518.9844 263.5572 518.9844Q264.35406 518.9844 264.7447 518.3594Q265.1353 517.7344 265.15094 516.40625L265.15094 514.625ZM269.46344 514.9531L270.27594 514.9531Q271.0572 514.9375 271.4947 514.5469Q271.9322 514.15625 271.9322 513.4844Q271.9322 511.98438 270.4322 511.98438Q269.72906 511.98438 269.3072 512.3906Q268.90094 512.7969 268.90094 513.4531L267.8072 513.4531Q267.8072 512.4375 268.54156 511.76562Q269.29156 511.09375 270.4322 511.09375Q271.6353 511.09375 272.3228 511.73438Q273.0103 512.375 273.0103 513.5156Q273.0103 514.0781 272.65094 514.59375Q272.29156 515.1094 271.66656 515.375Q272.3697 515.59375 272.7447 516.1094Q273.1353 516.625 273.1353 517.375Q273.1353 518.5156 272.3853 519.2031Q271.6353 519.875 270.4322 519.875Q269.2447 519.875 268.47906 519.21875Q267.72906 518.5625 267.72906 517.5L268.8228 517.5Q268.8228 518.1719 269.2603 518.5781Q269.6978 518.9844 270.4478 518.9844Q271.22906 518.9844 271.6353 518.5781Q272.0572 518.15625 272.0572 517.3906Q272.0572 516.65625 271.60406 516.2656Q271.15094 515.8594 270.27594 515.84375L269.46344 515.84375L269.46344 514.9531Z" fill-rule="nonzero"/><path fill="#757575" d="M294.36536 519.75L288.7716 519.75L288.7716 518.96875L291.72473 515.6875Q292.38098 514.9375 292.63098 514.4844Q292.88098 514.0156 292.88098 513.5156Q292.88098 512.84375 292.47473 512.4219Q292.0841 511.98438 291.3966 511.98438Q290.59973 511.98438 290.1466 512.4531Q289.69348 512.90625 289.69348 513.7344L288.61536 513.7344Q288.61536 512.5469 289.36536 511.82812Q290.13098 511.09375 291.3966 511.09375Q292.59973 511.09375 293.28723 511.71875Q293.97473 512.34375 293.97473 513.3906Q293.97473 514.6406 292.36536 516.3906L290.0841 518.8594L294.36536 518.8594L294.36536 519.75ZM301.13098 516.1094Q301.13098 518.0156 300.47473 518.9531Q299.8341 519.875 298.44348 519.875Q297.0841 519.875 296.42786 518.96875Q295.7716 518.0625 295.74036 516.25L295.74036 514.8125Q295.74036 512.9219 296.38098 512.0156Q297.03723 511.09375 298.42786 511.09375Q299.80286 511.09375 300.4591 511.98438Q301.11536 512.8594 301.13098 514.7031L301.13098 516.1094ZM300.03723 514.625Q300.03723 513.25 299.6466 512.625Q299.2716 511.98438 298.42786 511.98438Q297.59973 511.98438 297.2091 512.625Q296.8341 513.25 296.8341 514.5469L296.8341 516.28125Q296.8341 517.65625 297.22473 518.3281Q297.63098 518.9844 298.44348 518.9844Q299.24036 518.9844 299.63098 518.3594Q300.0216 517.7344 300.03723 516.40625L300.03723 514.625ZM308.13098 516.1094Q308.13098 518.0156 307.47473 518.9531Q306.8341 519.875 305.44348 519.875Q304.0841 519.875 303.42786 518.96875Q302.7716 518.0625 302.74036 516.25L302.74036 514.8125Q302.74036 512.9219 303.38098 512.0156Q304.03723 511.09375 305.42786 511.09375Q306.80286 511.09375 307.4591 511.98438Q308.11536 512.8594 308.13098 514.7031L308.13098 516.1094ZM307.03723 514.625Q307.03723 513.25 306.6466 512.625Q306.2716 511.98438 305.42786 511.98438Q304.59973 511.98438 304.2091 512.625Q303.8341 513.25 303.8341 514.5469L303.8341 516.28125Q303.8341 517.65625 304.22473 518.3281Q304.63098 518.9844 305.44348 518.9844Q306.24036 518.9844 306.63098 518.3594Q307.0216 517.7344 307.03723 516.40625L307.03723 514.625ZM314.34973 516.8906L315.53723 516.8906L315.53723 517.7656L314.34973 517.7656L314.34973 519.75L313.2716 519.75L313.2716 517.7656L309.38098 517.7656L309.38098 517.125L313.19348 511.21875L314.34973 511.21875L314.34973 516.8906ZM310.61536 516.8906L313.2716 516.8906L313.2716 512.7031L313.13098 512.9375L310.61536 516.8906Z" fill-rule="nonzero"/><path fill="#757575" d="M336.25165 519.75L330.6579 519.75L330.6579 518.96875L333.61102 515.6875Q334.26727 514.9375 334.51727 514.4844Q334.76727 514.0156 334.76727 513.5156Q334.76727 512.84375 334.36102 512.4219Q333.9704 511.98438 333.2829 511.98438Q332.48602 511.98438 332.0329 512.4531Q331.57977 512.90625 331.57977 513.7344L330.50165 513.7344Q330.50165 512.5469 331.25165 511.82812Q332.01727 511.09375 333.2829 511.09375Q334.48602 511.09375 335.17352 511.71875Q335.86102 512.34375 335.86102 513.3906Q335.86102 514.6406 334.25165 516.3906L331.9704 518.8594L336.25165 518.8594L336.25165 519.75ZM343.01727 516.1094Q343.01727 518.0156 342.36102 518.9531Q341.7204 519.875 340.32977 519.875Q338.9704 519.875 338.31415 518.96875Q337.6579 518.0625 337.62665 516.25L337.62665 514.8125Q337.62665 512.9219 338.26727 512.0156Q338.92352 511.09375 340.31415 511.09375Q341.68915 511.09375 342.3454 511.98438Q343.00165 512.8594 343.01727 514.7031L343.01727 516.1094ZM341.92352 514.625Q341.92352 513.25 341.5329 512.625Q341.1579 511.98438 340.31415 511.98438Q339.48602 511.98438 339.0954 512.625Q338.7204 513.25 338.7204 514.5469L338.7204 516.28125Q338.7204 517.65625 339.11102 518.3281Q339.51727 518.9844 340.32977 518.9844Q341.12665 518.9844 341.51727 518.3594Q341.9079 517.7344 341.92352 516.40625L341.92352 514.625ZM350.01727 516.1094Q350.01727 518.0156 349.36102 518.9531Q348.7204 519.875 347.32977 519.875Q345.9704 519.875 345.31415 518.96875Q344.6579 518.0625 344.62665 516.25L344.62665 514.8125Q344.62665 512.9219 345.26727 512.0156Q345.92352 511.09375 347.31415 511.09375Q348.68915 511.09375 349.3454 511.98438Q350.00165 512.8594 350.01727 514.7031L350.01727 516.1094ZM348.92352 514.625Q348.92352 513.25 348.5329 512.625Q348.1579 511.98438 347.31415 511.98438Q346.48602 511.98438 346.0954 512.625Q345.7204 513.25 345.7204 514.5469L345.7204 516.28125Q345.7204 517.65625 346.11102 518.3281Q346.51727 518.9844 347.32977 518.9844Q348.12665 518.9844 348.51727 518.3594Q348.9079 517.7344 348.92352 516.40625L348.92352 514.625ZM352.1579 515.46875L352.5954 511.21875L356.9704 511.21875L356.9704 512.21875L353.51727 512.21875L353.25165 514.5469Q353.89227 514.1719 354.68915 514.1719Q355.8454 514.1719 356.5329 514.9531Q357.2204 515.71875 357.2204 517.03125Q357.2204 518.34375 356.50165 519.1094Q355.79852 519.875 354.51727 519.875Q353.39227 519.875 352.67352 519.25Q351.95477 518.6094 351.86102 517.5L352.87665 517.5Q352.98602 518.2344 353.4079 518.6094Q353.82977 518.9844 354.51727 518.9844Q355.26727 518.9844 355.70477 518.46875Q356.14227 517.9531 356.14227 517.0469Q356.14227 516.1875 355.67352 515.6719Q355.20477 515.15625 354.42352 515.15625Q353.7204 515.15625 353.31415 515.4531L353.0329 515.6875L352.1579 515.46875Z" fill-rule="nonzero"/><path fill="#757575" d="M378.13797 519.75L372.54422 519.75L372.54422 518.96875L375.49734 515.6875Q376.1536 514.9375 376.4036 514.4844Q376.6536 514.0156 376.6536 513.5156Q376.6536 512.84375 376.24734 512.4219Q375.85672 511.98438 375.16922 511.98438Q374.37234 511.98438 373.91922 512.4531Q373.4661 512.90625 373.4661 513.7344L372.38797 513.7344Q372.38797 512.5469 373.13797 511.82812Q373.9036 511.09375 375.16922 511.09375Q376.37234 511.09375 377.05984 511.71875Q377.74734 512.34375 377.74734 513.3906Q377.74734 514.6406 376.13797 516.3906L373.85672 518.8594L378.13797 518.8594L378.13797 519.75ZM384.9036 516.1094Q384.9036 518.0156 384.24734 518.9531Q383.60672 519.875 382.2161 519.875Q380.85672 519.875 380.20047 518.96875Q379.54422 518.0625 379.51297 516.25L379.51297 514.8125Q379.51297 512.9219 380.1536 512.0156Q380.80984 511.09375 382.20047 511.09375Q383.57547 511.09375 384.23172 511.98438Q384.88797 512.8594 384.9036 514.7031L384.9036 516.1094ZM383.80984 514.625Q383.80984 513.25 383.41922 512.625Q383.04422 511.98438 382.20047 511.98438Q381.37234 511.98438 380.98172 512.625Q380.60672 513.25 380.60672 514.5469L380.60672 516.28125Q380.60672 517.65625 380.99734 518.3281Q381.4036 518.9844 382.2161 518.9844Q383.01297 518.9844 383.4036 518.3594Q383.79422 517.7344 383.80984 516.40625L383.80984 514.625ZM391.9036 516.1094Q391.9036 518.0156 391.24734 518.9531Q390.60672 519.875 389.2161 519.875Q387.85672 519.875 387.20047 518.96875Q386.54422 518.0625 386.51297 516.25L386.51297 514.8125Q386.51297 512.9219 387.1536 512.0156Q387.80984 511.09375 389.20047 511.09375Q390.57547 511.09375 391.23172 511.98438Q391.88797 512.8594 391.9036 514.7031L391.9036 516.1094ZM390.80984 514.625Q390.80984 513.25 390.41922 512.625Q390.04422 511.98438 389.20047 511.98438Q388.37234 511.98438 387.98172 512.625Q387.60672 513.25 387.60672 514.5469L387.60672 516.28125Q387.60672 517.65625 387.99734 518.3281Q388.4036 518.9844 389.2161 518.9844Q390.01297 518.9844 390.4036 518.3594Q390.79422 517.7344 390.80984 516.40625L390.80984 514.625ZM397.80984 511.21875L397.80984 512.125L397.60672 512.125Q396.3411 512.15625 395.5911 512.8906Q394.8411 513.6094 394.7161 514.9219Q395.4036 514.15625 396.55984 514.15625Q397.66922 514.15625 398.3411 514.9375Q399.01297 515.71875 399.01297 516.96875Q399.01297 518.28125 398.29422 519.0781Q397.57547 519.875 396.35672 519.875Q395.13797 519.875 394.37234 518.9375Q393.62234 517.9844 393.62234 516.5L393.62234 516.09375Q393.62234 513.7344 394.62234 512.4844Q395.62234 511.23438 397.60672 511.21875L397.80984 511.21875ZM396.38797 515.0625Q395.82547 515.0625 395.35672 515.3906Q394.88797 515.71875 394.70047 516.2344L394.70047 516.625Q394.70047 517.6875 395.16922 518.3281Q395.6536 518.96875 396.35672 518.96875Q397.0911 518.96875 397.51297 518.4375Q397.93484 517.8906 397.93484 517.0156Q397.93484 516.1406 397.51297 515.6094Q397.0911 515.0625 396.38797 515.0625Z" fill-rule="nonzero"/><path fill="#757575" d="M420.02426 519.75L414.4305 519.75L414.4305 518.96875L417.38364 515.6875Q418.0399 514.9375 418.2899 514.4844Q418.5399 514.0156 418.5399 513.5156Q418.5399 512.84375 418.13364 512.4219Q417.743 511.98438 417.0555 511.98438Q416.25864 511.98438 415.8055 512.4531Q415.3524 512.90625 415.3524 513.7344L414.27426 513.7344Q414.27426 512.5469 415.02426 511.82812Q415.7899 511.09375 417.0555 511.09375Q418.25864 511.09375 418.94614 511.71875Q419.63364 512.34375 419.63364 513.3906Q419.63364 514.6406 418.02426 516.3906L415.743 518.8594L420.02426 518.8594L420.02426 519.75ZM426.7899 516.1094Q426.7899 518.0156 426.13364 518.9531Q425.493 519.875 424.1024 519.875Q422.743 519.875 422.08676 518.96875Q421.4305 518.0625 421.39926 516.25L421.39926 514.8125Q421.39926 512.9219 422.0399 512.0156Q422.69614 511.09375 424.08676 511.09375Q425.46176 511.09375 426.118 511.98438Q426.77426 512.8594 426.7899 514.7031L426.7899 516.1094ZM425.69614 514.625Q425.69614 513.25 425.3055 512.625Q424.9305 511.98438 424.08676 511.98438Q423.25864 511.98438 422.868 512.625Q422.493 513.25 422.493 514.5469L422.493 516.28125Q422.493 517.65625 422.88364 518.3281Q423.2899 518.9844 424.1024 518.9844Q424.89926 518.9844 425.2899 518.3594Q425.6805 517.7344 425.69614 516.40625L425.69614 514.625ZM433.7899 516.1094Q433.7899 518.0156 433.13364 518.9531Q432.493 519.875 431.1024 519.875Q429.743 519.875 429.08676 518.96875Q428.4305 518.0625 428.39926 516.25L428.39926 514.8125Q428.39926 512.9219 429.0399 512.0156Q429.69614 511.09375 431.08676 511.09375Q432.46176 511.09375 433.118 511.98438Q433.77426 512.8594 433.7899 514.7031L433.7899 516.1094ZM432.69614 514.625Q432.69614 513.25 432.3055 512.625Q431.9305 511.98438 431.08676 511.98438Q430.25864 511.98438 429.868 512.625Q429.493 513.25 429.493 514.5469L429.493 516.28125Q429.493 517.65625 429.88364 518.3281Q430.2899 518.9844 431.1024 518.9844Q431.89926 518.9844 432.2899 518.3594Q432.6805 517.7344 432.69614 516.40625L432.69614 514.625ZM440.94614 511.82812L437.4149 519.75L436.27426 519.75L439.7899 512.1094L435.1805 512.1094L435.1805 511.21875L440.94614 511.21875L440.94614 511.82812Z" fill-rule="nonzero"/><path fill="#757575" d="M461.91058 519.75L456.31683 519.75L456.31683 518.96875L459.26996 515.6875Q459.9262 514.9375 460.1762 514.4844Q460.4262 514.0156 460.4262 513.5156Q460.4262 512.84375 460.01996 512.4219Q459.62933 511.98438 458.94183 511.98438Q458.14496 511.98438 457.69183 512.4531Q457.2387 512.90625 457.2387 513.7344L456.16058 513.7344Q456.16058 512.5469 456.91058 511.82812Q457.6762 511.09375 458.94183 511.09375Q460.14496 511.09375 460.83246 511.71875Q461.51996 512.34375 461.51996 513.3906Q461.51996 514.6406 459.91058 516.3906L457.62933 518.8594L461.91058 518.8594L461.91058 519.75ZM468.6762 516.1094Q468.6762 518.0156 468.01996 518.9531Q467.37933 519.875 465.9887 519.875Q464.62933 519.875 463.97308 518.96875Q463.31683 518.0625 463.28558 516.25L463.28558 514.8125Q463.28558 512.9219 463.9262 512.0156Q464.58246 511.09375 465.97308 511.09375Q467.34808 511.09375 468.00433 511.98438Q468.66058 512.8594 468.6762 514.7031L468.6762 516.1094ZM467.58246 514.625Q467.58246 513.25 467.19183 512.625Q466.81683 511.98438 465.97308 511.98438Q465.14496 511.98438 464.75433 512.625Q464.37933 513.25 464.37933 514.5469L464.37933 516.28125Q464.37933 517.65625 464.76996 518.3281Q465.1762 518.9844 465.9887 518.9844Q466.78558 518.9844 467.1762 518.3594Q467.56683 517.7344 467.58246 516.40625L467.58246 514.625ZM475.6762 516.1094Q475.6762 518.0156 475.01996 518.9531Q474.37933 519.875 472.9887 519.875Q471.62933 519.875 470.97308 518.96875Q470.31683 518.0625 470.28558 516.25L470.28558 514.8125Q470.28558 512.9219 470.9262 512.0156Q471.58246 511.09375 472.97308 511.09375Q474.34808 511.09375 475.00433 511.98438Q475.66058 512.8594 475.6762 514.7031L475.6762 516.1094ZM474.58246 514.625Q474.58246 513.25 474.19183 512.625Q473.81683 511.98438 472.97308 511.98438Q472.14496 511.98438 471.75433 512.625Q471.37933 513.25 471.37933 514.5469L471.37933 516.28125Q471.37933 517.65625 471.76996 518.3281Q472.1762 518.9844 472.9887 518.9844Q473.78558 518.9844 474.1762 518.3594Q474.56683 517.7344 474.58246 516.40625L474.58246 514.625ZM482.50433 513.4375Q482.50433 514.0781 482.16058 514.5781Q481.81683 515.0781 481.25433 515.3594Q481.91058 515.6406 482.3012 516.2031Q482.69183 516.75 482.69183 517.4531Q482.69183 518.5469 481.94183 519.21875Q481.20746 519.875 479.9887 519.875Q478.75433 519.875 478.00433 519.21875Q477.26996 518.5469 477.26996 517.4531Q477.26996 516.75 477.64496 516.2031Q478.01996 515.6406 478.69183 515.3594Q478.12933 515.0781 477.8012 514.5781Q477.47308 514.0781 477.47308 513.4375Q477.47308 512.3594 478.16058 511.73438Q478.84808 511.09375 479.9887 511.09375Q481.1137 511.09375 481.8012 511.73438Q482.50433 512.3594 482.50433 513.4375ZM481.6137 517.4219Q481.6137 516.7031 481.16058 516.2656Q480.70746 515.8125 479.97308 515.8125Q479.2387 515.8125 478.78558 516.2656Q478.34808 516.7031 478.34808 517.4375Q478.34808 518.15625 478.78558 518.5781Q479.22308 518.9844 479.9887 518.9844Q480.7387 518.9844 481.1762 518.5625Q481.6137 518.1406 481.6137 517.4219ZM479.9887 511.98438Q479.34808 511.98438 478.94183 512.3906Q478.5512 512.78125 478.5512 513.46875Q478.5512 514.1094 478.94183 514.5156Q479.33246 514.9219 479.97308 514.9219Q480.62933 514.9219 481.01996 514.5156Q481.41058 514.1094 481.41058 513.46875Q481.41058 512.8125 481.00433 512.40625Q480.59808 511.98438 479.9887 511.98438Z" fill-rule="nonzero"/><path fill="#757575" d="M503.79688 519.75L498.20312 519.75L498.20312 518.96875L501.15625 515.6875Q501.8125 514.9375 502.0625 514.4844Q502.3125 514.0156 502.3125 513.5156Q502.3125 512.84375 501.90625 512.4219Q501.51562 511.98438 500.82812 511.98438Q500.03125 511.98438 499.57812 512.4531Q499.125 512.90625 499.125 513.7344L498.04688 513.7344Q498.04688 512.5469 498.79688 511.82812Q499.5625 511.09375 500.82812 511.09375Q502.03125 511.09375 502.71875 511.71875Q503.40625 512.34375 503.40625 513.3906Q503.40625 514.6406 501.79688 516.3906L499.51562 518.8594L503.79688 518.8594L503.79688 519.75ZM510.5625 516.1094Q510.5625 518.0156 509.90625 518.9531Q509.26562 519.875 507.875 519.875Q506.51562 519.875 505.85938 518.96875Q505.20312 518.0625 505.17188 516.25L505.17188 514.8125Q505.17188 512.9219 505.8125 512.0156Q506.46875 511.09375 507.85938 511.09375Q509.23438 511.09375 509.89062 511.98438Q510.54688 512.8594 510.5625 514.7031L510.5625 516.1094ZM509.46875 514.625Q509.46875 513.25 509.07812 512.625Q508.70312 511.98438 507.85938 511.98438Q507.03125 511.98438 506.64062 512.625Q506.26562 513.25 506.26562 514.5469L506.26562 516.28125Q506.26562 517.65625 506.65625 518.3281Q507.0625 518.9844 507.875 518.9844Q508.67188 518.9844 509.0625 518.3594Q509.45312 517.7344 509.46875 516.40625L509.46875 514.625ZM517.5625 516.1094Q517.5625 518.0156 516.90625 518.9531Q516.2656 519.875 514.875 519.875Q513.5156 519.875 512.8594 518.96875Q512.2031 518.0625 512.1719 516.25L512.1719 514.8125Q512.1719 512.9219 512.8125 512.0156Q513.46875 511.09375 514.8594 511.09375Q516.2344 511.09375 516.8906 511.98438Q517.5469 512.8594 517.5625 514.7031L517.5625 516.1094ZM516.46875 514.625Q516.46875 513.25 516.0781 512.625Q515.7031 511.98438 514.8594 511.98438Q514.03125 511.98438 513.6406 512.625Q513.2656 513.25 513.2656 514.5469L513.2656 516.28125Q513.2656 517.65625 513.65625 518.3281Q514.0625 518.9844 514.875 518.9844Q515.6719 518.9844 516.0625 518.3594Q516.4531 517.7344 516.46875 516.40625L516.46875 514.625ZM523.3594 516.0Q523.03125 516.40625 522.5469 516.65625Q522.0781 516.8906 521.5156 516.8906Q520.78125 516.8906 520.2344 516.53125Q519.6875 516.1719 519.3906 515.5156Q519.09375 514.84375 519.09375 514.0469Q519.09375 513.2031 519.40625 512.5156Q519.7344 511.82812 520.3281 511.46875Q520.9375 511.09375 521.7344 511.09375Q523.0 511.09375 523.71875 512.0469Q524.4531 513.0 524.4531 514.625L524.4531 514.9375Q524.4531 517.4375 523.46875 518.5781Q522.4844 519.71875 520.5 519.75L520.28125 519.75L520.28125 518.84375L520.5156 518.84375Q521.8594 518.8125 522.5781 518.1406Q523.2969 517.46875 523.3594 516.0ZM521.6875 516.0Q522.2344 516.0 522.6875 515.6719Q523.15625 515.3281 523.375 514.84375L523.375 514.40625Q523.375 513.34375 522.90625 512.6719Q522.4375 512.0 521.7344 512.0Q521.0156 512.0 520.5781 512.5469Q520.15625 513.09375 520.15625 514.0Q520.15625 514.875 520.5625 515.4375Q520.9844 516.0 521.6875 516.0Z" fill-rule="nonzero"/><path fill="#757575" d="M545.68317 519.75L540.0894 519.75L540.0894 518.96875L543.04254 515.6875Q543.6988 514.9375 543.9488 514.4844Q544.1988 514.0156 544.1988 513.5156Q544.1988 512.84375 543.79254 512.4219Q543.4019 511.98438 542.7144 511.98438Q541.91754 511.98438 541.4644 512.4531Q541.0113 512.90625 541.0113 513.7344L539.93317 513.7344Q539.93317 512.5469 540.68317 511.82812Q541.4488 511.09375 542.7144 511.09375Q543.91754 511.09375 544.60504 511.71875Q545.29254 512.34375 545.29254 513.3906Q545.29254 514.6406 543.68317 516.3906L541.4019 518.8594L545.68317 518.8594L545.68317 519.75ZM552.4488 516.1094Q552.4488 518.0156 551.79254 518.9531Q551.1519 519.875 549.7613 519.875Q548.4019 519.875 547.74567 518.96875Q547.0894 518.0625 547.05817 516.25L547.05817 514.8125Q547.05817 512.9219 547.6988 512.0156Q548.35504 511.09375 549.74567 511.09375Q551.12067 511.09375 551.7769 511.98438Q552.43317 512.8594 552.4488 514.7031L552.4488 516.1094ZM551.35504 514.625Q551.35504 513.25 550.9644 512.625Q550.5894 511.98438 549.74567 511.98438Q548.91754 511.98438 548.5269 512.625Q548.1519 513.25 548.1519 514.5469L548.1519 516.28125Q548.1519 517.65625 548.54254 518.3281Q548.9488 518.9844 549.7613 518.9844Q550.55817 518.9844 550.9488 518.3594Q551.3394 517.7344 551.35504 516.40625L551.35504 514.625ZM557.6519 519.75L556.5738 519.75L556.5738 512.53125L554.3863 513.3281L554.3863 512.34375L557.49567 511.17188L557.6519 511.17188L557.6519 519.75ZM566.4488 516.1094Q566.4488 518.0156 565.79254 518.9531Q565.1519 519.875 563.7613 519.875Q562.4019 519.875 561.74567 518.96875Q561.0894 518.0625 561.05817 516.25L561.05817 514.8125Q561.05817 512.9219 561.6988 512.0156Q562.35504 511.09375 563.74567 511.09375Q565.12067 511.09375 565.7769 511.98438Q566.43317 512.8594 566.4488 514.7031L566.4488 516.1094ZM565.35504 514.625Q565.35504 513.25 564.9644 512.625Q564.5894 511.98438 563.74567 511.98438Q562.91754 511.98438 562.5269 512.625Q562.1519 513.25 562.1519 514.5469L562.1519 516.28125Q562.1519 517.65625 562.54254 518.3281Q562.9488 518.9844 563.7613 518.9844Q564.55817 518.9844 564.9488 518.3594Q565.3394 517.7344 565.35504 516.40625L565.35504 514.625Z" fill-rule="nonzero"/><path fill="#757575" d="M587.56946 519.75L581.9757 519.75L581.9757 518.96875L584.92883 515.6875Q585.5851 514.9375 585.8351 514.4844Q586.0851 514.0156 586.0851 513.5156Q586.0851 512.84375 585.67883 512.4219Q585.2882 511.98438 584.6007 511.98438Q583.80383 511.98438 583.3507 512.4531Q582.8976 512.90625 582.8976 513.7344L581.81946 513.7344Q581.81946 512.5469 582.56946 511.82812Q583.3351 511.09375 584.6007 511.09375Q585.80383 511.09375 586.49133 511.71875Q587.17883 512.34375 587.17883 513.3906Q587.17883 514.6406 585.56946 516.3906L583.2882 518.8594L587.56946 518.8594L587.56946 519.75ZM594.3351 516.1094Q594.3351 518.0156 593.67883 518.9531Q593.0382 519.875 591.6476 519.875Q590.2882 519.875 589.63196 518.96875Q588.9757 518.0625 588.94446 516.25L588.94446 514.8125Q588.94446 512.9219 589.5851 512.0156Q590.24133 511.09375 591.63196 511.09375Q593.00696 511.09375 593.6632 511.98438Q594.31946 512.8594 594.3351 514.7031L594.3351 516.1094ZM593.24133 514.625Q593.24133 513.25 592.8507 512.625Q592.4757 511.98438 591.63196 511.98438Q590.80383 511.98438 590.4132 512.625Q590.0382 513.25 590.0382 514.5469L590.0382 516.28125Q590.0382 517.65625 590.42883 518.3281Q590.8351 518.9844 591.6476 518.9844Q592.44446 518.9844 592.8351 518.3594Q593.2257 517.7344 593.24133 516.40625L593.24133 514.625ZM599.5382 519.75L598.4601 519.75L598.4601 512.53125L596.2726 513.3281L596.2726 512.34375L599.38196 511.17188L599.5382 511.17188L599.5382 519.75ZM606.5382 519.75L605.4601 519.75L605.4601 512.53125L603.2726 513.3281L603.2726 512.34375L606.38196 511.17188L606.5382 511.17188L606.5382 519.75Z" fill-rule="nonzero"/><path fill="#757575" d="M629.4558 519.75L623.86206 519.75L623.86206 518.96875L626.8152 515.6875Q627.47144 514.9375 627.72144 514.4844Q627.97144 514.0156 627.97144 513.5156Q627.97144 512.84375 627.5652 512.4219Q627.17456 511.98438 626.48706 511.98438Q625.6902 511.98438 625.23706 512.4531Q624.78394 512.90625 624.78394 513.7344L623.7058 513.7344Q623.7058 512.5469 624.4558 511.82812Q625.22144 511.09375 626.48706 511.09375Q627.6902 511.09375 628.3777 511.71875Q629.0652 512.34375 629.0652 513.3906Q629.0652 514.6406 627.4558 516.3906L625.17456 518.8594L629.4558 518.8594L629.4558 519.75ZM636.22144 516.1094Q636.22144 518.0156 635.5652 518.9531Q634.92456 519.875 633.53394 519.875Q632.17456 519.875 631.5183 518.96875Q630.86206 518.0625 630.8308 516.25L630.8308 514.8125Q630.8308 512.9219 631.47144 512.0156Q632.1277 511.09375 633.5183 511.09375Q634.8933 511.09375 635.54956 511.98438Q636.2058 512.8594 636.22144 514.7031L636.22144 516.1094ZM635.1277 514.625Q635.1277 513.25 634.73706 512.625Q634.36206 511.98438 633.5183 511.98438Q632.6902 511.98438 632.29956 512.625Q631.92456 513.25 631.92456 514.5469L631.92456 516.28125Q631.92456 517.65625 632.3152 518.3281Q632.72144 518.9844 633.53394 518.9844Q634.3308 518.9844 634.72144 518.3594Q635.11206 517.7344 635.1277 516.40625L635.1277 514.625ZM641.42456 519.75L640.34644 519.75L640.34644 512.53125L638.15894 513.3281L638.15894 512.34375L641.2683 511.17188L641.42456 511.17188L641.42456 519.75ZM650.4558 519.75L644.86206 519.75L644.86206 518.96875L647.8152 515.6875Q648.47144 514.9375 648.72144 514.4844Q648.97144 514.0156 648.97144 513.5156Q648.97144 512.84375 648.5652 512.4219Q648.17456 511.98438 647.48706 511.98438Q646.6902 511.98438 646.23706 512.4531Q645.78394 512.90625 645.78394 513.7344L644.7058 513.7344Q644.7058 512.5469 645.4558 511.82812Q646.22144 511.09375 647.48706 511.09375Q648.6902 511.09375 649.3777 511.71875Q650.0652 512.34375 650.0652 513.3906Q650.0652 514.6406 648.4558 516.3906L646.17456 518.8594L650.4558 518.8594L650.4558 519.75Z" fill-rule="nonzero"/><path fill="#757575" d="M671.3421 519.75L665.74835 519.75L665.74835 518.96875L668.7015 515.6875Q669.3577 514.9375 669.6077 514.4844Q669.8577 514.0156 669.8577 513.5156Q669.8577 512.84375 669.4515 512.4219Q669.06085 511.98438 668.37335 511.98438Q667.5765 511.98438 667.12335 512.4531Q666.6702 512.90625 666.6702 513.7344L665.5921 513.7344Q665.5921 512.5469 666.3421 511.82812Q667.1077 511.09375 668.37335 511.09375Q669.5765 511.09375 670.264 511.71875Q670.9515 512.34375 670.9515 513.3906Q670.9515 514.6406 669.3421 516.3906L667.06085 518.8594L671.3421 518.8594L671.3421 519.75ZM678.1077 516.1094Q678.1077 518.0156 677.4515 518.9531Q676.81085 519.875 675.4202 519.875Q674.06085 519.875 673.4046 518.96875Q672.74835 518.0625 672.7171 516.25L672.7171 514.8125Q672.7171 512.9219 673.3577 512.0156Q674.014 511.09375 675.4046 511.09375Q676.7796 511.09375 677.43585 511.98438Q678.0921 512.8594 678.1077 514.7031L678.1077 516.1094ZM677.014 514.625Q677.014 513.25 676.62335 512.625Q676.24835 511.98438 675.4046 511.98438Q674.5765 511.98438 674.18585 512.625Q673.81085 513.25 673.81085 514.5469L673.81085 516.28125Q673.81085 517.65625 674.2015 518.3281Q674.6077 518.9844 675.4202 518.9844Q676.2171 518.9844 676.6077 518.3594Q676.99835 517.7344 677.014 516.40625L677.014 514.625ZM683.31085 519.75L682.2327 519.75L682.2327 512.53125L680.0452 513.3281L680.0452 512.34375L683.1546 511.17188L683.31085 511.17188L683.31085 519.75ZM688.3265 514.9531L689.139 514.9531Q689.9202 514.9375 690.3577 514.5469Q690.7952 514.15625 690.7952 513.4844Q690.7952 511.98438 689.2952 511.98438Q688.5921 511.98438 688.1702 512.3906Q687.764 512.7969 687.764 513.4531L686.6702 513.4531Q686.6702 512.4375 687.4046 511.76562Q688.1546 511.09375 689.2952 511.09375Q690.49835 511.09375 691.18585 511.73438Q691.87335 512.375 691.87335 513.5156Q691.87335 514.0781 691.514 514.59375Q691.1546 515.1094 690.5296 515.375Q691.2327 515.59375 691.6077 516.1094Q691.99835 516.625 691.99835 517.375Q691.99835 518.5156 691.24835 519.2031Q690.49835 519.875 689.2952 519.875Q688.1077 519.875 687.3421 519.21875Q686.5921 518.5625 686.5921 517.5L687.68585 517.5Q687.68585 518.1719 688.12335 518.5781Q688.56085 518.9844 689.31085 518.9844Q690.0921 518.9844 690.49835 518.5781Q690.9202 518.15625 690.9202 517.3906Q690.9202 516.65625 690.4671 516.2656Q690.014 515.8594 689.139 515.84375L688.3265 515.84375L688.3265 514.9531Z" fill-rule="nonzero"/><path fill="#757575" d="M713.2284 519.75L707.63464 519.75L707.63464 518.96875L710.58777 515.6875Q711.244 514.9375 711.494 514.4844Q711.744 514.0156 711.744 513.5156Q711.744 512.84375 711.33777 512.4219Q710.94714 511.98438 710.25964 511.98438Q709.46277 511.98438 709.00964 512.4531Q708.5565 512.90625 708.5565 513.7344L707.4784 513.7344Q707.4784 512.5469 708.2284 511.82812Q708.994 511.09375 710.25964 511.09375Q711.46277 511.09375 712.15027 511.71875Q712.83777 512.34375 712.83777 513.3906Q712.83777 514.6406 711.2284 516.3906L708.94714 518.8594L713.2284 518.8594L713.2284 519.75ZM719.994 516.1094Q719.994 518.0156 719.33777 518.9531Q718.69714 519.875 717.3065 519.875Q715.94714 519.875 715.2909 518.96875Q714.63464 518.0625 714.6034 516.25L714.6034 514.8125Q714.6034 512.9219 715.244 512.0156Q715.90027 511.09375 717.2909 511.09375Q718.6659 511.09375 719.32214 511.98438Q719.9784 512.8594 719.994 514.7031L719.994 516.1094ZM718.90027 514.625Q718.90027 513.25 718.50964 512.625Q718.13464 511.98438 717.2909 511.98438Q716.46277 511.98438 716.07214 512.625Q715.69714 513.25 715.69714 514.5469L715.69714 516.28125Q715.69714 517.65625 716.08777 518.3281Q716.494 518.9844 717.3065 518.9844Q718.1034 518.9844 718.494 518.3594Q718.88464 517.7344 718.90027 516.40625L718.90027 514.625ZM725.19714 519.75L724.119 519.75L724.119 512.53125L721.9315 513.3281L721.9315 512.34375L725.0409 511.17188L725.19714 511.17188L725.19714 519.75ZM733.21277 516.8906L734.40027 516.8906L734.40027 517.7656L733.21277 517.7656L733.21277 519.75L732.13464 519.75L732.13464 517.7656L728.244 517.7656L728.244 517.125L732.0565 511.21875L733.21277 511.21875L733.21277 516.8906ZM729.4784 516.8906L732.13464 516.8906L732.13464 512.7031L731.994 512.9375L729.4784 516.8906Z" fill-rule="nonzero"/><path fill="#757575" d="M755.1147 519.75L749.52094 519.75L749.52094 518.96875L752.47406 515.6875Q753.1303 514.9375 753.3803 514.4844Q753.6303 514.0156 753.6303 513.5156Q753.6303 512.84375 753.22406 512.4219Q752.83344 511.98438 752.14594 511.98438Q751.34906 511.98438 750.89594 512.4531Q750.4428 512.90625 750.4428 513.7344L749.3647 513.7344Q749.3647 512.5469 750.1147 511.82812Q750.8803 511.09375 752.14594 511.09375Q753.34906 511.09375 754.03656 511.71875Q754.72406 512.34375 754.72406 513.3906Q754.72406 514.6406 753.1147 516.3906L750.83344 518.8594L755.1147 518.8594L755.1147 519.75ZM761.8803 516.1094Q761.8803 518.0156 761.22406 518.9531Q760.58344 519.875 759.1928 519.875Q757.83344 519.875 757.1772 518.96875Q756.52094 518.0625 756.4897 516.25L756.4897 514.8125Q756.4897 512.9219 757.1303 512.0156Q757.78656 511.09375 759.1772 511.09375Q760.5522 511.09375 761.20844 511.98438Q761.8647 512.8594 761.8803 514.7031L761.8803 516.1094ZM760.78656 514.625Q760.78656 513.25 760.39594 512.625Q760.02094 511.98438 759.1772 511.98438Q758.34906 511.98438 757.95844 512.625Q757.58344 513.25 757.58344 514.5469L757.58344 516.28125Q757.58344 517.65625 757.97406 518.3281Q758.3803 518.9844 759.1928 518.9844Q759.9897 518.9844 760.3803 518.3594Q760.77094 517.7344 760.78656 516.40625L760.78656 514.625ZM767.08344 519.75L766.0053 519.75L766.0053 512.53125L763.8178 513.3281L763.8178 512.34375L766.9272 511.17188L767.08344 511.17188L767.08344 519.75ZM771.02094 515.46875L771.45844 511.21875L775.83344 511.21875L775.83344 512.21875L772.3803 512.21875L772.1147 514.5469Q772.7553 514.1719 773.5522 514.1719Q774.70844 514.1719 775.39594 514.9531Q776.08344 515.71875 776.08344 517.03125Q776.08344 518.34375 775.3647 519.1094Q774.66156 519.875 773.3803 519.875Q772.2553 519.875 771.53656 519.25Q770.8178 518.6094 770.72406 517.5L771.7397 517.5Q771.84906 518.2344 772.27094 518.6094Q772.6928 518.9844 773.3803 518.9844Q774.1303 518.9844 774.5678 518.46875Q775.0053 517.9531 775.0053 517.0469Q775.0053 516.1875 774.53656 515.6719Q774.0678 515.15625 773.28656 515.15625Q772.58344 515.15625 772.1772 515.4531L771.89594 515.6875L771.02094 515.46875Z" fill-rule="nonzero"/><path fill="#757575" d="M797.00104 519.75L791.4073 519.75L791.4073 518.96875L794.3604 515.6875Q795.01666 514.9375 795.26666 514.4844Q795.51666 514.0156 795.51666 513.5156Q795.51666 512.84375 795.1104 512.4219Q794.7198 511.98438 794.0323 511.98438Q793.2354 511.98438 792.7823 512.4531Q792.32916 512.90625 792.32916 513.7344L791.25104 513.7344Q791.25104 512.5469 792.00104 511.82812Q792.76666 511.09375 794.0323 511.09375Q795.2354 511.09375 795.9229 511.71875Q796.6104 512.34375 796.6104 513.3906Q796.6104 514.6406 795.00104 516.3906L792.7198 518.8594L797.00104 518.8594L797.00104 519.75ZM803.76666 516.1094Q803.76666 518.0156 803.1104 518.9531Q802.4698 519.875 801.07916 519.875Q799.7198 519.875 799.06354 518.96875Q798.4073 518.0625 798.37604 516.25L798.37604 514.8125Q798.37604 512.9219 799.01666 512.0156Q799.6729 511.09375 801.06354 511.09375Q802.43854 511.09375 803.0948 511.98438Q803.75104 512.8594 803.76666 514.7031L803.76666 516.1094ZM802.6729 514.625Q802.6729 513.25 802.2823 512.625Q801.9073 511.98438 801.06354 511.98438Q800.2354 511.98438 799.8448 512.625Q799.4698 513.25 799.4698 514.5469L799.4698 516.28125Q799.4698 517.65625 799.8604 518.3281Q800.26666 518.9844 801.07916 518.9844Q801.87604 518.9844 802.26666 518.3594Q802.6573 517.7344 802.6729 516.40625L802.6729 514.625ZM808.9698 519.75L807.89166 519.75L807.89166 512.53125L805.70416 513.3281L805.70416 512.34375L808.81354 511.17188L808.9698 511.17188L808.9698 519.75ZM816.6729 511.21875L816.6729 512.125L816.4698 512.125Q815.20416 512.15625 814.45416 512.8906Q813.70416 513.6094 813.57916 514.9219Q814.26666 514.15625 815.4229 514.15625Q816.5323 514.15625 817.20416 514.9375Q817.87604 515.71875 817.87604 516.96875Q817.87604 518.28125 817.1573 519.0781Q816.43854 519.875 815.2198 519.875Q814.00104 519.875 813.2354 518.9375Q812.4854 517.9844 812.4854 516.5L812.4854 516.09375Q812.4854 513.7344 813.4854 512.4844Q814.4854 511.23438 816.4698 511.21875L816.6729 511.21875ZM815.25104 515.0625Q814.68854 515.0625 814.2198 515.3906Q813.75104 515.71875 813.56354 516.2344L813.56354 516.625Q813.56354 517.6875 814.0323 518.3281Q814.51666 518.96875 815.2198 518.96875Q815.95416 518.96875 816.37604 518.4375Q816.7979 517.8906 816.7979 517.0156Q816.7979 516.1406 816.37604 515.6094Q815.95416 515.0625 815.25104 515.0625Z" fill-rule="nonzero"/><path fill="#757575" d="M838.8873 519.75L833.2936 519.75L833.2936 518.96875L836.2467 515.6875Q836.90295 514.9375 837.15295 514.4844Q837.40295 514.0156 837.40295 513.5156Q837.40295 512.84375 836.9967 512.4219Q836.6061 511.98438 835.9186 511.98438Q835.1217 511.98438 834.6686 512.4531Q834.21545 512.90625 834.21545 513.7344L833.1373 513.7344Q833.1373 512.5469 833.8873 511.82812Q834.65295 511.09375 835.9186 511.09375Q837.1217 511.09375 837.8092 511.71875Q838.4967 512.34375 838.4967 513.3906Q838.4967 514.6406 836.8873 516.3906L834.6061 518.8594L838.8873 518.8594L838.8873 519.75ZM845.65295 516.1094Q845.65295 518.0156 844.9967 518.9531Q844.3561 519.875 842.96545 519.875Q841.6061 519.875 840.9498 518.96875Q840.2936 518.0625 840.2623 516.25L840.2623 514.8125Q840.2623 512.9219 840.90295 512.0156Q841.5592 511.09375 842.9498 511.09375Q844.3248 511.09375 844.9811 511.98438Q845.6373 512.8594 845.65295 514.7031L845.65295 516.1094ZM844.5592 514.625Q844.5592 513.25 844.1686 512.625Q843.7936 511.98438 842.9498 511.98438Q842.1217 511.98438 841.7311 512.625Q841.3561 513.25 841.3561 514.5469L841.3561 516.28125Q841.3561 517.65625 841.7467 518.3281Q842.15295 518.9844 842.96545 518.9844Q843.7623 518.9844 844.15295 518.3594Q844.5436 517.7344 844.5592 516.40625L844.5592 514.625ZM850.8561 519.75L849.77795 519.75L849.77795 512.53125L847.59045 513.3281L847.59045 512.34375L850.6998 511.17188L850.8561 511.17188L850.8561 519.75ZM859.8092 511.82812L856.27795 519.75L855.1373 519.75L858.65295 512.1094L854.0436 512.1094L854.0436 511.21875L859.8092 511.21875L859.8092 511.82812Z" fill-rule="nonzero"/><path fill="#757575" d="M880.7736 519.75L875.1799 519.75L875.1799 518.96875L878.133 515.6875Q878.78925 514.9375 879.03925 514.4844Q879.28925 514.0156 879.28925 513.5156Q879.28925 512.84375 878.883 512.4219Q878.4924 511.98438 877.8049 511.98438Q877.008 511.98438 876.5549 512.4531Q876.10175 512.90625 876.10175 513.7344L875.0236 513.7344Q875.0236 512.5469 875.7736 511.82812Q876.53925 511.09375 877.8049 511.09375Q879.008 511.09375 879.6955 511.71875Q880.383 512.34375 880.383 513.3906Q880.383 514.6406 878.7736 516.3906L876.4924 518.8594L880.7736 518.8594L880.7736 519.75ZM887.53925 516.1094Q887.53925 518.0156 886.883 518.9531Q886.2424 519.875 884.85175 519.875Q883.4924 519.875 882.8361 518.96875Q882.1799 518.0625 882.1486 516.25L882.1486 514.8125Q882.1486 512.9219 882.78925 512.0156Q883.4455 511.09375 884.8361 511.09375Q886.2111 511.09375 886.8674 511.98438Q887.5236 512.8594 887.53925 514.7031L887.53925 516.1094ZM886.4455 514.625Q886.4455 513.25 886.0549 512.625Q885.6799 511.98438 884.8361 511.98438Q884.008 511.98438 883.6174 512.625Q883.2424 513.25 883.2424 514.5469L883.2424 516.28125Q883.2424 517.65625 883.633 518.3281Q884.03925 518.9844 884.85175 518.9844Q885.6486 518.9844 886.03925 518.3594Q886.4299 517.7344 886.4455 516.40625L886.4455 514.625ZM892.7424 519.75L891.66425 519.75L891.66425 512.53125L889.47675 513.3281L889.47675 512.34375L892.5861 511.17188L892.7424 511.17188L892.7424 519.75ZM901.3674 513.4375Q901.3674 514.0781 901.0236 514.5781Q900.6799 515.0781 900.1174 515.3594Q900.7736 515.6406 901.16425 516.2031Q901.5549 516.75 901.5549 517.4531Q901.5549 518.5469 900.8049 519.21875Q900.0705 519.875 898.85175 519.875Q897.6174 519.875 896.8674 519.21875Q896.133 518.5469 896.133 517.4531Q896.133 516.75 896.508 516.2031Q896.883 515.6406 897.5549 515.3594Q896.9924 515.0781 896.66425 514.5781Q896.3361 514.0781 896.3361 513.4375Q896.3361 512.3594 897.0236 511.73438Q897.7111 511.09375 898.85175 511.09375Q899.97675 511.09375 900.66425 511.73438Q901.3674 512.3594 901.3674 513.4375ZM900.47675 517.4219Q900.47675 516.7031 900.0236 516.2656Q899.5705 515.8125 898.8361 515.8125Q898.10175 515.8125 897.6486 516.2656Q897.2111 516.7031 897.2111 517.4375Q897.2111 518.15625 897.6486 518.5781Q898.0861 518.9844 898.85175 518.9844Q899.60175 518.9844 900.03925 518.5625Q900.47675 518.1406 900.47675 517.4219ZM898.85175 511.98438Q898.2111 511.98438 897.8049 512.3906Q897.41425 512.78125 897.41425 513.46875Q897.41425 514.1094 897.8049 514.5156Q898.1955 514.9219 898.8361 514.9219Q899.4924 514.9219 899.883 514.5156Q900.2736 514.1094 900.2736 513.46875Q900.2736 512.8125 899.8674 512.40625Q899.4611 511.98438 898.85175 511.98438Z" fill-rule="nonzero"/><path fill="#757575" d="M326.46875 35.578125L321.90625 35.578125L321.90625 48.25L320.04688 48.25L320.04688 35.578125L315.48438 35.578125L315.48438 34.03125L326.46875 34.03125L326.46875 35.578125ZM327.89062 42.875Q327.89062 41.3125 328.5 40.078125Q329.10938 38.828125 330.1875 38.15625Q331.28125 37.484375 332.6875 37.484375Q334.84375 37.484375 336.17188 38.984375Q337.51562 40.46875 337.51562 42.953125L337.51562 43.078125Q337.51562 44.625 336.92188 45.859375Q336.32812 47.078125 335.21875 47.765625Q334.125 48.453125 332.70312 48.453125Q330.5625 48.453125 329.21875 46.953125Q327.89062 45.453125 327.89062 43.0L327.89062 42.875ZM329.70312 43.078125Q329.70312 44.84375 330.51562 45.90625Q331.34375 46.96875 332.70312 46.96875Q334.07812 46.96875 334.89062 45.890625Q335.70312 44.8125 335.70312 42.875Q335.70312 41.125 334.875 40.046875Q334.04688 38.96875 332.6875 38.96875Q331.34375 38.96875 330.51562 40.03125Q329.70312 41.09375 329.70312 43.078125ZM341.8125 35.125L341.8125 37.6875L343.79688 37.6875L343.79688 39.078125L341.8125 39.078125L341.8125 45.625Q341.8125 46.265625 342.07812 46.59375Q342.34375 46.90625 342.98438 46.90625Q343.29688 46.90625 343.84375 46.78125L343.84375 48.25Q343.125 48.453125 342.45312 48.453125Q341.25 48.453125 340.625 47.71875Q340.01562 46.984375 340.01562 45.625L340.01562 39.078125L338.09375 39.078125L338.09375 37.6875L340.01562 37.6875L340.01562 35.125L341.8125 35.125ZM352.89062 48.25Q352.73438 47.9375 352.64062 47.140625Q351.375 48.453125 349.625 48.453125Q348.0625 48.453125 347.0625 47.5625Q346.0625 46.671875 346.0625 45.3125Q346.0625 43.671875 347.3125 42.765625Q348.57812 41.84375 350.84375 41.84375L352.60938 41.84375L352.60938 41.015625Q352.60938 40.0625 352.03125 39.5Q351.46875 38.9375 350.375 38.9375Q349.40625 38.9375 348.75 39.4375Q348.09375 39.921875 348.09375 40.609375L346.28125 40.609375Q346.28125 39.828125 346.84375 39.09375Q347.40625 38.34375 348.35938 37.921875Q349.32812 37.484375 350.48438 37.484375Q352.3125 37.484375 353.34375 38.40625Q354.375 39.3125 354.42188 40.921875L354.42188 45.78125Q354.42188 47.234375 354.78125 48.09375L354.78125 48.25L352.89062 48.25ZM349.89062 46.875Q350.75 46.875 351.5 46.4375Q352.26562 46.0 352.60938 45.296875L352.60938 43.125L351.1875 43.125Q347.875 43.125 347.875 45.0625Q347.875 45.921875 348.4375 46.40625Q349.0 46.875 349.89062 46.875ZM359.32812 48.25L357.53125 48.25L357.53125 33.25L359.32812 33.25L359.32812 48.25ZM378.57812 48.25L376.6875 48.25L369.53125 37.296875L369.53125 48.25L367.65625 48.25L367.65625 34.03125L369.53125 34.03125L376.71875 45.03125L376.71875 34.03125L378.57812 34.03125L378.57812 48.25ZM387.89062 47.203125Q386.84375 48.453125 384.79688 48.453125Q383.10938 48.453125 382.21875 47.46875Q381.34375 46.484375 381.32812 44.5625L381.32812 37.6875L383.14062 37.6875L383.14062 44.515625Q383.14062 46.90625 385.09375 46.90625Q387.15625 46.90625 387.84375 45.375L387.84375 37.6875L389.65625 37.6875L389.65625 48.25L387.9375 48.25L387.89062 47.203125ZM394.0625 37.6875L394.10938 38.859375Q395.28125 37.484375 397.25 37.484375Q399.46875 37.484375 400.26562 39.1875Q400.79688 38.421875 401.64062 37.953125Q402.48438 37.484375 403.64062 37.484375Q407.10938 37.484375 407.17188 41.171875L407.17188 48.25L405.35938 48.25L405.35938 41.28125Q405.35938 40.140625 404.84375 39.578125Q404.32812 39.015625 403.10938 39.015625Q402.10938 39.015625 401.4375 39.625Q400.78125 40.21875 400.67188 41.234375L400.67188 48.25L398.85938 48.25L398.85938 41.328125Q398.85938 39.015625 396.59375 39.015625Q394.8125 39.015625 394.17188 40.53125L394.17188 48.25L392.35938 48.25L392.35938 37.6875L394.0625 37.6875ZM419.3125 43.078125Q419.3125 45.5 418.20312 46.984375Q417.09375 48.453125 415.21875 48.453125Q413.20312 48.453125 412.10938 47.03125L412.03125 48.25L410.375 48.25L410.375 33.25L412.17188 33.25L412.17188 38.84375Q413.26562 37.484375 415.1875 37.484375Q417.10938 37.484375 418.20312 38.9375Q419.3125 40.390625 419.3125 42.921875L419.3125 43.078125ZM417.5 42.875Q417.5 41.03125 416.78125 40.03125Q416.07812 39.015625 414.75 39.015625Q412.95312 39.015625 412.17188 40.6875L412.17188 45.25Q413.0 46.90625 414.76562 46.90625Q416.0625 46.90625 416.78125 45.90625Q417.5 44.90625 417.5 42.875ZM425.75 48.453125Q423.60938 48.453125 422.25 47.046875Q420.90625 45.625 420.90625 43.265625L420.90625 42.921875Q420.90625 41.359375 421.5 40.125Q422.10938 38.890625 423.1875 38.1875Q424.26562 37.484375 425.53125 37.484375Q427.59375 37.484375 428.73438 38.84375Q429.875 40.203125 429.875 42.734375L429.875 43.484375L422.71875 43.484375Q422.75 45.046875 423.625 46.015625Q424.5 46.96875 425.84375 46.96875Q426.8125 46.96875 427.46875 46.578125Q428.14062 46.1875 428.64062 45.546875L429.73438 46.40625Q428.40625 48.453125 425.75 48.453125ZM425.53125 38.96875Q424.4375 38.96875 423.6875 39.765625Q422.95312 40.5625 422.78125 42.0L428.0625 42.0L428.0625 41.859375Q427.98438 40.484375 427.3125 39.734375Q426.65625 38.96875 425.53125 38.96875ZM437.46875 39.296875Q437.0625 39.234375 436.59375 39.234375Q434.8125 39.234375 434.17188 40.75L434.17188 48.25L432.375 48.25L432.375 37.6875L434.125 37.6875L434.15625 38.90625Q435.04688 37.484375 436.67188 37.484375Q437.20312 37.484375 437.46875 37.625L437.46875 39.296875ZM443.89062 42.875Q443.89062 41.3125 444.5 40.078125Q445.10938 38.828125 446.1875 38.15625Q447.28125 37.484375 448.6875 37.484375Q450.84375 37.484375 452.17188 38.984375Q453.51562 40.46875 453.51562 42.953125L453.51562 43.078125Q453.51562 44.625 452.92188 45.859375Q452.32812 47.078125 451.21875 47.765625Q450.125 48.453125 448.70312 48.453125Q446.5625 48.453125 445.21875 46.953125Q443.89062 45.453125 443.89062 43.0L443.89062 42.875ZM445.70312 43.078125Q445.70312 44.84375 446.51562 45.90625Q447.34375 46.96875 448.70312 46.96875Q450.07812 46.96875 450.89062 45.890625Q451.70312 44.8125 451.70312 42.875Q451.70312 41.125 450.875 40.046875Q450.04688 38.96875 448.6875 38.96875Q447.34375 38.96875 446.51562 40.03125Q445.70312 41.09375 445.70312 43.078125ZM456.25 48.25L456.25 39.078125L454.59375 39.078125L454.59375 37.6875L456.25 37.6875L456.25 36.59375Q456.25 34.90625 457.15625 33.984375Q458.07812 33.046875 459.73438 33.046875Q460.35938 33.046875 460.96875 33.203125L460.875 34.671875Q460.42188 34.59375 459.90625 34.59375Q459.01562 34.59375 458.53125 35.109375Q458.0625 35.609375 458.0625 36.5625L458.0625 37.6875L460.3125 37.6875L460.3125 39.078125L458.0625 39.078125L458.0625 48.25L456.25 48.25ZM470.71875 43.765625L470.98438 45.640625L471.39062 43.953125L474.20312 34.03125L475.78125 34.03125L478.53125 43.953125L478.92188 45.671875L479.21875 43.75L481.4375 34.03125L483.3125 34.03125L479.875 48.25L478.15625 48.25L475.23438 37.890625L475.0 36.796875L474.78125 37.890625L471.75 48.25L470.03125 48.25L466.59375 34.03125L468.46875 34.03125L470.71875 43.765625ZM489.75 48.453125Q487.60938 48.453125 486.25 47.046875Q484.90625 45.625 484.90625 43.265625L484.90625 42.921875Q484.90625 41.359375 485.5 40.125Q486.10938 38.890625 487.1875 38.1875Q488.26562 37.484375 489.53125 37.484375Q491.59375 37.484375 492.73438 38.84375Q493.875 40.203125 493.875 42.734375L493.875 43.484375L486.71875 43.484375Q486.75 45.046875 487.625 46.015625Q488.5 46.96875 489.84375 46.96875Q490.8125 46.96875 491.46875 46.578125Q492.14062 46.1875 492.64062 45.546875L493.73438 46.40625Q492.40625 48.453125 489.75 48.453125ZM489.53125 38.96875Q488.4375 38.96875 487.6875 39.765625Q486.95312 40.5625 486.78125 42.0L492.0625 42.0L492.0625 41.859375Q491.98438 40.484375 491.3125 39.734375Q490.65625 38.96875 489.53125 38.96875ZM505.3125 43.078125Q505.3125 45.5 504.20312 46.984375Q503.09375 48.453125 501.21875 48.453125Q499.20312 48.453125 498.10938 47.03125L498.03125 48.25L496.375 48.25L496.375 33.25L498.17188 33.25L498.17188 38.84375Q499.26562 37.484375 501.1875 37.484375Q503.10938 37.484375 504.20312 38.9375Q505.3125 40.390625 505.3125 42.921875L505.3125 43.078125ZM503.5 42.875Q503.5 41.03125 502.78125 40.03125Q502.07812 39.015625 500.75 39.015625Q498.95312 39.015625 498.17188 40.6875L498.17188 45.25Q499.0 46.90625 500.76562 46.90625Q502.0625 46.90625 502.78125 45.90625Q503.5 44.90625 503.5 42.875ZM513.5156 45.453125Q513.5156 44.71875 512.96875 44.3125Q512.4219 43.90625 511.04688 43.609375Q509.67188 43.3125 508.85938 42.90625Q508.0625 42.5 507.67188 41.9375Q507.29688 41.359375 507.29688 40.578125Q507.29688 39.28125 508.39062 38.390625Q509.48438 37.484375 511.20312 37.484375Q513.0 37.484375 514.1094 38.421875Q515.2344 39.34375 515.2344 40.78125L513.40625 40.78125Q513.40625 40.046875 512.78125 39.515625Q512.15625 38.96875 511.20312 38.96875Q510.20312 38.96875 509.64062 39.40625Q509.09375 39.828125 509.09375 40.53125Q509.09375 41.171875 509.60938 41.515625Q510.125 41.84375 511.48438 42.15625Q512.84375 42.453125 513.6719 42.875Q514.5156 43.28125 514.9219 43.875Q515.3281 44.46875 515.3281 45.3125Q515.3281 46.734375 514.1875 47.59375Q513.0625 48.453125 511.25 48.453125Q509.98438 48.453125 509.0 48.0Q508.03125 47.546875 507.46875 46.75Q506.92188 45.9375 506.92188 45.0L508.73438 45.0Q508.78125 45.90625 509.45312 46.4375Q510.14062 46.96875 511.25 46.96875Q512.28125 46.96875 512.8906 46.5625Q513.5156 46.140625 513.5156 45.453125ZM519.3281 48.25L517.53125 48.25L517.53125 37.6875L519.3281 37.6875L519.3281 48.25ZM517.375 34.875Q517.375 34.4375 517.6406 34.140625Q517.9219 33.828125 518.4375 33.828125Q518.96875 33.828125 519.2344 34.140625Q519.5156 34.4375 519.5156 34.875Q519.5156 35.3125 519.2344 35.609375Q518.96875 35.90625 518.4375 35.90625Q517.9219 35.90625 517.6406 35.609375Q517.375 35.3125 517.375 34.875ZM524.8125 35.125L524.8125 37.6875L526.7969 37.6875L526.7969 39.078125L524.8125 39.078125L524.8125 45.625Q524.8125 46.265625 525.0781 46.59375Q525.34375 46.90625 525.9844 46.90625Q526.2969 46.90625 526.84375 46.78125L526.84375 48.25Q526.125 48.453125 525.4531 48.453125Q524.25 48.453125 523.625 47.71875Q523.0156 46.984375 523.0156 45.625L523.0156 39.078125L521.09375 39.078125L521.09375 37.6875L523.0156 37.6875L523.0156 35.125L524.8125 35.125ZM533.75 48.453125Q531.6094 48.453125 530.25 47.046875Q528.90625 45.625 528.90625 43.265625L528.90625 42.921875Q528.90625 41.359375 529.5 40.125Q530.1094 38.890625 531.1875 38.1875Q532.2656 37.484375 533.53125 37.484375Q535.59375 37.484375 536.7344 38.84375Q537.875 40.203125 537.875 42.734375L537.875 43.484375L530.71875 43.484375Q530.75 45.046875 531.625 46.015625Q532.5 46.96875 533.84375 46.96875Q534.8125 46.96875 535.46875 46.578125Q536.1406 46.1875 536.6406 45.546875L537.7344 46.40625Q536.40625 48.453125 533.75 48.453125ZM533.53125 38.96875Q532.4375 38.96875 531.6875 39.765625Q530.9531 40.5625 530.78125 42.0L536.0625 42.0L536.0625 41.859375Q535.9844 40.484375 535.3125 39.734375Q534.65625 38.96875 533.53125 38.96875ZM546.5156 45.453125Q546.5156 44.71875 545.96875 44.3125Q545.4219 43.90625 544.0469 43.609375Q542.6719 43.3125 541.8594 42.90625Q541.0625 42.5 540.6719 41.9375Q540.2969 41.359375 540.2969 40.578125Q540.2969 39.28125 541.3906 38.390625Q542.4844 37.484375 544.2031 37.484375Q546.0 37.484375 547.1094 38.421875Q548.2344 39.34375 548.2344 40.78125L546.40625 40.78125Q546.40625 40.046875 545.78125 39.515625Q545.15625 38.96875 544.2031 38.96875Q543.2031 38.96875 542.6406 39.40625Q542.09375 39.828125 542.09375 40.53125Q542.09375 41.171875 542.6094 41.515625Q543.125 41.84375 544.4844 42.15625Q545.84375 42.453125 546.6719 42.875Q547.5156 43.28125 547.9219 43.875Q548.3281 44.46875 548.3281 45.3125Q548.3281 46.734375 547.1875 47.59375Q546.0625 48.453125 544.25 48.453125Q542.9844 48.453125 542.0 48.0Q541.03125 47.546875 540.46875 46.75Q539.9219 45.9375 539.9219 45.0L541.7344 45.0Q541.78125 45.90625 542.4531 46.4375Q543.1406 46.96875 544.25 46.96875Q545.28125 46.96875 545.8906 46.5625Q546.5156 46.140625 546.5156 45.453125ZM557.53125 42.6875L557.53125 48.25L555.65625 48.25L555.65625 34.03125L560.8906 34.03125Q563.2344 34.03125 564.5469 35.21875Q565.875 36.40625 565.875 38.375Q565.875 40.453125 564.5781 41.578125Q563.28125 42.6875 560.875 42.6875L557.53125 42.6875ZM557.53125 41.15625L560.8906 41.15625Q562.40625 41.15625 563.2031 40.453125Q564.0 39.734375 564.0 38.390625Q564.0 37.125 563.2031 36.375Q562.40625 35.609375 561.0 35.578125L557.53125 35.578125L557.53125 41.15625ZM572.75 48.453125Q570.6094 48.453125 569.25 47.046875Q567.90625 45.625 567.90625 43.265625L567.90625 42.921875Q567.90625 41.359375 568.5 40.125Q569.1094 38.890625 570.1875 38.1875Q571.2656 37.484375 572.53125 37.484375Q574.59375 37.484375 575.7344 38.84375Q576.875 40.203125 576.875 42.734375L576.875 43.484375L569.71875 43.484375Q569.75 45.046875 570.625 46.015625Q571.5 46.96875 572.84375 46.96875Q573.8125 46.96875 574.46875 46.578125Q575.1406 46.1875 575.6406 45.546875L576.7344 46.40625Q575.40625 48.453125 572.75 48.453125ZM572.53125 38.96875Q571.4375 38.96875 570.6875 39.765625Q569.9531 40.5625 569.78125 42.0L575.0625 42.0L575.0625 41.859375Q574.9844 40.484375 574.3125 39.734375Q573.65625 38.96875 572.53125 38.96875ZM584.46875 39.296875Q584.0625 39.234375 583.59375 39.234375Q581.8125 39.234375 581.1719 40.75L581.1719 48.25L579.375 48.25L579.375 37.6875L581.125 37.6875L581.15625 38.90625Q582.0469 37.484375 583.6719 37.484375Q584.2031 37.484375 584.46875 37.625L584.46875 39.296875ZM595.9844 41.171875L599.7031 34.03125L601.8281 34.03125L596.9219 42.953125L596.9219 48.25L595.0469 48.25L595.0469 42.953125L590.1406 34.03125L592.2969 34.03125L595.9844 41.171875ZM607.75 48.453125Q605.6094 48.453125 604.25 47.046875Q602.90625 45.625 602.90625 43.265625L602.90625 42.921875Q602.90625 41.359375 603.5 40.125Q604.1094 38.890625 605.1875 38.1875Q606.2656 37.484375 607.53125 37.484375Q609.59375 37.484375 610.7344 38.84375Q611.875 40.203125 611.875 42.734375L611.875 43.484375L604.71875 43.484375Q604.75 45.046875 605.625 46.015625Q606.5 46.96875 607.84375 46.96875Q608.8125 46.96875 609.46875 46.578125Q610.1406 46.1875 610.6406 45.546875L611.7344 46.40625Q610.40625 48.453125 607.75 48.453125ZM607.53125 38.96875Q606.4375 38.96875 605.6875 39.765625Q604.9531 40.5625 604.78125 42.0L610.0625 42.0L610.0625 41.859375Q609.9844 40.484375 609.3125 39.734375Q608.65625 38.96875 607.53125 38.96875ZM620.8906 48.25Q620.7344 47.9375 620.6406 47.140625Q619.375 48.453125 617.625 48.453125Q616.0625 48.453125 615.0625 47.5625Q614.0625 46.671875 614.0625 45.3125Q614.0625 43.671875 615.3125 42.765625Q616.5781 41.84375 618.84375 41.84375L620.6094 41.84375L620.6094 41.015625Q620.6094 40.0625 620.03125 39.5Q619.46875 38.9375 618.375 38.9375Q617.40625 38.9375 616.75 39.4375Q616.09375 39.921875 616.09375 40.609375L614.28125 40.609375Q614.28125 39.828125 614.84375 39.09375Q615.40625 38.34375 616.3594 37.921875Q617.3281 37.484375 618.4844 37.484375Q620.3125 37.484375 621.34375 38.40625Q622.375 39.3125 622.4219 40.921875L622.4219 45.78125Q622.4219 47.234375 622.78125 48.09375L622.78125 48.25L620.8906 48.25ZM617.8906 46.875Q618.75 46.875 619.5 46.4375Q620.2656 46.0 620.6094 45.296875L620.6094 43.125L619.1875 43.125Q615.875 43.125 615.875 45.0625Q615.875 45.921875 616.4375 46.40625Q617.0 46.875 617.8906 46.875ZM630.46875 39.296875Q630.0625 39.234375 629.59375 39.234375Q627.8125 39.234375 627.1719 40.75L627.1719 48.25L625.375 48.25L625.375 37.6875L627.125 37.6875L627.15625 38.90625Q628.0469 37.484375 629.6719 37.484375Q630.2031 37.484375 630.46875 37.625L630.46875 39.296875Z" fill-rule="nonzero"/></svg>