<svg xmlns="http://www.w3.org/2000/svg" version="1.1" style="font-family:Lato, &#x27;Helvetica Neue&#x27;, Helvetica, Arial, sans-serif;font-size:16px;background-color:white;text-rendering:optimizeLegibility;-webkit-font-smoothing:antialiased" width="850" height="600" viewBox="0 0 850 600"><g class="HeaderView"><g transform="translate(774, 15) scale(0.29)"><svg className="owidLog" width="210" height="120" viewBox="0 0 210 120" fill="none" xmlns="http://www.w3.org/2000/svg">
<g clip-path="url(#clip0)">
  <path d="M0 0h210v107.89H0V0z" fill="#002147" />
  <path
    d="M40.98 32.25c0 2.36-.38 4.53-1.12 6.51a14.26 14.26 0 0 1-8.1 8.4c-1.9.78-4.02 1.17-6.34 1.17-2.31 0-4.42-.39-6.33-1.17a14.31 14.31 0 0 1-8.08-8.4 18.29 18.29 0 0 1-1.12-6.51c0-2.36.38-4.53 1.12-6.5.75-1.97 1.8-3.67 3.17-5.1a14.32 14.32 0 0 1 4.9-3.34c1.92-.8 4.03-1.19 6.34-1.19 2.32 0 4.43.4 6.34 1.19 1.92.8 3.56 1.9 4.93 3.34a14.87 14.87 0 0 1 3.17 5.1 18.1 18.1 0 0 1 1.12 6.5zm-4.38 0c0-1.94-.26-3.68-.8-5.22a10.91 10.91 0 0 0-2.24-3.89 9.68 9.68 0 0 0-3.52-2.46 11.95 11.95 0 0 0-4.62-.86c-1.68 0-3.21.28-4.6.86a9.88 9.88 0 0 0-3.54 2.46 10.91 10.91 0 0 0-2.24 3.9c-.53 1.53-.8 3.27-.8 5.2 0 1.94.27 3.68.8 5.22a11.17 11.17 0 0 0 2.24 3.9 10.01 10.01 0 0 0 3.55 2.44c1.38.56 2.9.83 4.6.83s3.24-.27 4.61-.83a9.8 9.8 0 0 0 3.52-2.44 11.17 11.17 0 0 0 2.25-3.9c.53-1.54.8-3.28.8-5.21zm26.22-6.54V48H60.5c-.56 0-.9-.27-1.05-.81l-.31-2.4a12.45 12.45 0 0 1-3.26 2.6c-1.2.64-2.58.96-4.13.96-1.22 0-2.3-.2-3.24-.6a6.52 6.52 0 0 1-2.33-1.7 7.37 7.37 0 0 1-1.43-2.67c-.3-1.04-.46-2.2-.46-3.45V25.7h3.91v14.22c0 1.68.38 2.99 1.15 3.91.77.93 1.96 1.39 3.54 1.39 1.16 0 2.24-.27 3.23-.82a10.42 10.42 0 0 0 2.8-2.28V25.7h3.91zm8.61 4.47a9.94 9.94 0 0 1 2.6-3.56 5.64 5.64 0 0 1 3.76-1.3c.47 0 .92.05 1.34.15.44.1.83.27 1.17.49l-.3 2.92c-.09.37-.3.55-.66.55-.2 0-.5-.04-.9-.13a6.21 6.21 0 0 0-3.24.18 4.23 4.23 0 0 0-1.47.92c-.42.4-.81.9-1.17 1.5-.33.58-.64 1.26-.92 2.02V48H67.7V25.71h2.25c.42 0 .72.08.88.25.16.16.27.44.33.83l.26 3.39zm61.16-13.7L122.75 48h-3.82l-7.99-24.05a21.95 21.95 0 0 1-.42-1.58 38.36 38.36 0 0 1-.44 1.58L102.05 48h-3.83L88.4 16.47h3.54c.38 0 .7.1.95.29.26.2.43.43.5.73l6.52 21.9.28 1.28.29 1.46.3-1.46.38-1.27 7.41-21.91c.1-.25.26-.48.51-.69.27-.22.58-.33.95-.33h1.23c.38 0 .69.1.92.29a1.77 1.77 0 0 1 .53.73l7.4 21.9a28.4 28.4 0 0 1 .68 2.62 29.52 29.52 0 0 1 .52-2.61l6.54-21.91a1.31 1.31 0 0 1 .48-.7c.27-.21.58-.32.95-.32h3.32zm9.35 8.88c1.63 0 3.1.27 4.4.82a9.43 9.43 0 0 1 5.46 5.94c.5 1.4.74 2.98.74 4.73 0 1.76-.25 3.34-.74 4.75a9.43 9.43 0 0 1-5.46 5.92c-1.3.52-2.77.79-4.4.79-1.64 0-3.12-.27-4.44-.8a9.42 9.42 0 0 1-3.35-2.3c-.92-1-1.63-2.2-2.13-3.61-.49-1.41-.73-3-.73-4.75s.24-3.33.73-4.73c.5-1.43 1.2-2.64 2.13-3.63.93-1 2.04-1.77 3.35-2.31 1.32-.55 2.8-.82 4.44-.82zm0 19.89c2.2 0 3.84-.73 4.93-2.2 1.08-1.48 1.63-3.54 1.63-6.18 0-2.66-.55-4.72-1.63-6.2-1.09-1.49-2.73-2.23-4.93-2.23-1.12 0-2.09.2-2.93.57a5.71 5.71 0 0 0-2.06 1.65c-.55.72-.96 1.61-1.24 2.67-.26 1.04-.4 2.22-.4 3.54 0 2.64.55 4.7 1.64 6.18 1.1 1.47 2.76 2.2 4.99 2.2zm17.97-15.07a9.94 9.94 0 0 1 2.6-3.56 5.64 5.64 0 0 1 3.76-1.3c.47 0 .91.05 1.34.15.44.1.83.27 1.16.49l-.28 2.92c-.09.37-.31.55-.66.55-.2 0-.5-.04-.9-.13a6.2 6.2 0 0 0-3.24.18 4.23 4.23 0 0 0-1.47.92c-.43.4-.82.9-1.17 1.5a13.1 13.1 0 0 0-.92 2.02V48h-3.94V25.71h2.24c.43 0 .72.08.88.25.17.16.28.44.33.83l.27 3.39zm15.04-14.59V48h-3.92V15.6h3.92zm19.55 15.43a6.22 6.22 0 0 0-2.38-2.05 6.7 6.7 0 0 0-2.86-.6c-2.07 0-3.66.75-4.77 2.23-1.12 1.48-1.68 3.6-1.68 6.33 0 1.46.13 2.7.38 3.74a7.29 7.29 0 0 0 1.1 2.56 4.35 4.35 0 0 0 1.78 1.45c.7.3 1.5.46 2.4.46 1.29 0 2.41-.3 3.36-.88a9.6 9.6 0 0 0 2.67-2.49V31.02zm3.91-15.43V48h-2.33c-.56 0-.9-.27-1.06-.81l-.35-2.71a12.13 12.13 0 0 1-3.25 2.77 8.28 8.28 0 0 1-4.23 1.06 7.31 7.31 0 0 1-6.14-2.9c-.73-.96-1.3-2.15-1.69-3.57a18.35 18.35 0 0 1 .07-9.48 11.29 11.29 0 0 1 1.89-3.7 8.7 8.7 0 0 1 7.06-3.34 7.96 7.96 0 0 1 6.12 2.62V15.59h3.91zM46.61 70.71V93H42.7V70.71h3.91zm.84-7c0 .39-.08.75-.24 1.09-.15.32-.35.61-.62.88-.25.25-.55.44-.9.59a2.67 2.67 0 0 1-2.16 0 2.9 2.9 0 0 1-1.45-1.47 2.67 2.67 0 0 1 0-2.16c.15-.35.35-.65.6-.9.25-.27.53-.47.85-.62a2.67 2.67 0 0 1 2.16 0c.35.15.65.35.9.62.27.25.47.55.62.9.16.34.24.7.24 1.08zm7.97 10.24c.49-.54 1-1.04 1.54-1.48a9.85 9.85 0 0 1 3.66-1.84 8.96 8.96 0 0 1 5.43.35c.94.4 1.72.97 2.33 1.71.63.74 1.11 1.62 1.43 2.67.32 1.04.49 2.19.49 3.45V93h-3.94V78.81c0-1.69-.4-3-1.17-3.92-.76-.93-1.93-1.4-3.5-1.4-1.15 0-2.24.27-3.25.83-1 .56-1.92 1.31-2.77 2.27V93h-3.94V70.71h2.35c.56 0 .9.28 1.04.82l.3 2.42zm57.7 3.3c0 2.36-.37 4.5-1.11 6.44a14.3 14.3 0 0 1-3.17 4.98c-1.37 1.37-3 2.45-4.93 3.2-1.9.76-4.02 1.13-6.33 1.13H85.8V61.47h11.77c2.31 0 4.42.39 6.33 1.15a13.8 13.8 0 0 1 8.1 8.18 17.75 17.75 0 0 1 1.12 6.45zm-4.37 0c0-1.94-.26-3.67-.8-5.2a10.94 10.94 0 0 0-2.23-3.87 9.57 9.57 0 0 0-3.53-2.42 12.23 12.23 0 0 0-4.61-.83h-7.5v24.62h7.5c1.7 0 3.24-.28 4.61-.84a9.7 9.7 0 0 0 3.53-2.4 10.94 10.94 0 0 0 2.24-3.87c.53-1.53.8-3.26.8-5.2zm19.8 5.72c-1.8.06-3.34.2-4.62.44-1.26.22-2.3.51-3.1.88-.8.36-1.37.8-1.74 1.3-.35.5-.53 1.05-.53 1.67 0 .58.1 1.1.3 1.52a3 3 0 0 0 .76 1.05c.34.27.73.46 1.17.6a6.13 6.13 0 0 0 1.45.17 7.28 7.28 0 0 0 3.5-.81 11.95 11.95 0 0 0 2.82-2.2v-4.62zm-12.65-9.11a12.73 12.73 0 0 1 3.98-2.66c1.43-.59 3-.88 4.73-.88 1.25 0 2.36.2 3.33.61a6.81 6.81 0 0 1 3.94 4.38c.33 1.04.5 2.19.5 3.43V93h-1.74a1.8 1.8 0 0 1-.88-.18c-.2-.13-.36-.38-.48-.74l-.44-2.12-1.72 1.46a9.48 9.48 0 0 1-3.74 1.7c-.69.15-1.46.23-2.3.23-.87 0-1.69-.12-2.45-.35a5.34 5.34 0 0 1-3.34-2.93 6.64 6.64 0 0 1-.49-2.64c0-.88.25-1.72.73-2.53a6.33 6.33 0 0 1 2.35-2.17c1.09-.63 2.5-1.15 4.25-1.54 1.75-.41 3.89-.65 6.42-.7v-1.75c0-1.73-.37-3.03-1.12-3.91-.75-.9-1.84-1.34-3.28-1.34-.97 0-1.78.12-2.44.37-.64.23-1.2.5-1.7.81l-1.23.82c-.33.23-.67.35-1 .35-.27 0-.5-.07-.69-.2a2.1 2.1 0 0 1-.48-.53l-.7-1.25zm27.67 19.5c-1.76 0-3.12-.5-4.07-1.48-.94-.98-1.41-2.4-1.41-4.25V74h-2.68a.9.9 0 0 1-.6-.2c-.16-.14-.24-.36-.24-.66v-1.56l3.65-.46.9-6.89c.05-.22.14-.4.29-.52a.88.88 0 0 1 .62-.22H142v7.67h6.44V74H142v13.38c0 .94.22 1.63.68 2.09.45.45 1.04.68 1.76.68a3.21 3.21 0 0 0 1.85-.53l.55-.35c.16-.12.3-.18.41-.18.2 0 .4.13.55.38l1.15 1.87a7.45 7.45 0 0 1-2.44 1.5 8.53 8.53 0 0 1-2.95.52zm19.68-10.4c-1.8.07-3.34.21-4.62.45-1.26.22-2.3.51-3.1.88-.8.36-1.37.8-1.74 1.3-.35.5-.53 1.05-.53 1.67 0 .58.1 1.1.3 1.52a2.9 2.9 0 0 0 .76 1.05c.34.27.73.46 1.17.6a6.13 6.13 0 0 0 1.45.17 7.3 7.3 0 0 0 3.5-.81 12.04 12.04 0 0 0 2.82-2.2v-4.62zm-12.65-9.1a12.72 12.72 0 0 1 3.99-2.66c1.42-.59 3-.88 4.72-.88 1.25 0 2.36.2 3.33.61a6.81 6.81 0 0 1 3.94 4.38c.33 1.04.5 2.19.5 3.43V93h-1.74a1.8 1.8 0 0 1-.88-.18c-.2-.13-.36-.38-.48-.74l-.44-2.12-1.72 1.46a9.48 9.48 0 0 1-3.74 1.7c-.69.15-1.46.23-2.3.23-.87 0-1.69-.12-2.45-.35a5.33 5.33 0 0 1-3.34-2.93 6.62 6.62 0 0 1-.49-2.64c0-.88.25-1.72.73-2.53a6.33 6.33 0 0 1 2.35-2.17c1.09-.63 2.5-1.15 4.25-1.54 1.74-.41 3.89-.65 6.42-.7v-1.75c0-1.73-.37-3.03-1.12-3.91-.75-.9-1.84-1.34-3.28-1.34-.97 0-1.78.12-2.44.37-.64.23-1.2.5-1.7.81l-1.22.82c-.34.23-.68.35-1.02.35-.26 0-.49-.07-.68-.2a1.88 1.88 0 0 1-.48-.53l-.7-1.25zM40.98 32.25c0 2.36-.38 4.53-1.12 6.51a14.26 14.26 0 0 1-8.1 8.4c-1.9.78-4.02 1.17-6.34 1.17-2.31 0-4.42-.39-6.33-1.17a14.31 14.31 0 0 1-8.08-8.4 18.29 18.29 0 0 1-1.12-6.51c0-2.36.38-4.53 1.12-6.5.75-1.97 1.8-3.67 3.17-5.1a14.32 14.32 0 0 1 4.9-3.34c1.92-.8 4.03-1.19 6.34-1.19 2.32 0 4.43.4 6.34 1.19 1.92.8 3.56 1.9 4.93 3.34a14.87 14.87 0 0 1 3.17 5.1 18.1 18.1 0 0 1 1.12 6.5zm-4.38 0c0-1.94-.26-3.68-.8-5.22a10.91 10.91 0 0 0-2.24-3.89 9.68 9.68 0 0 0-3.52-2.46 11.95 11.95 0 0 0-4.62-.86c-1.68 0-3.21.28-4.6.86a9.88 9.88 0 0 0-3.54 2.46 10.91 10.91 0 0 0-2.24 3.9c-.53 1.53-.8 3.27-.8 5.2 0 1.94.27 3.68.8 5.22a11.17 11.17 0 0 0 2.24 3.9 10.01 10.01 0 0 0 3.55 2.44c1.38.56 2.9.83 4.6.83s3.24-.27 4.61-.83a9.8 9.8 0 0 0 3.52-2.44 11.17 11.17 0 0 0 2.25-3.9c.53-1.54.8-3.28.8-5.21zm26.22-6.54V48H60.5c-.56 0-.9-.27-1.05-.81l-.31-2.4a12.45 12.45 0 0 1-3.26 2.6c-1.2.64-2.58.96-4.13.96-1.22 0-2.3-.2-3.24-.6a6.52 6.52 0 0 1-2.33-1.7 7.37 7.37 0 0 1-1.43-2.67c-.3-1.04-.46-2.2-.46-3.45V25.7h3.91v14.22c0 1.68.38 2.99 1.15 3.91.77.93 1.96 1.39 3.54 1.39 1.16 0 2.24-.27 3.23-.82a10.42 10.42 0 0 0 2.8-2.28V25.7h3.91zm8.61 4.47a9.94 9.94 0 0 1 2.6-3.56 5.64 5.64 0 0 1 3.76-1.3c.47 0 .92.05 1.34.15.44.1.83.27 1.17.49l-.3 2.92c-.09.37-.3.55-.66.55-.2 0-.5-.04-.9-.13a6.21 6.21 0 0 0-3.24.18 4.23 4.23 0 0 0-1.47.92c-.42.4-.81.9-1.17 1.5-.33.58-.64 1.26-.92 2.02V48H67.7V25.71h2.25c.42 0 .72.08.88.25.16.16.27.44.33.83l.26 3.39zm61.16-13.7L122.75 48h-3.82l-7.99-24.05a21.95 21.95 0 0 1-.42-1.58 38.36 38.36 0 0 1-.44 1.58L102.05 48h-3.83L88.4 16.47h3.54c.38 0 .7.1.95.29.26.2.43.43.5.73l6.52 21.9.28 1.28.29 1.46.3-1.46.38-1.27 7.41-21.91c.1-.25.26-.48.51-.69.27-.22.58-.33.95-.33h1.23c.38 0 .69.1.92.29a1.77 1.77 0 0 1 .53.73l7.4 21.9a28.4 28.4 0 0 1 .68 2.62 29.52 29.52 0 0 1 .52-2.61l6.54-21.91a1.31 1.31 0 0 1 .48-.7c.27-.21.58-.32.95-.32h3.32zm9.35 8.88c1.63 0 3.1.27 4.4.82a9.43 9.43 0 0 1 5.46 5.94c.5 1.4.74 2.98.74 4.73 0 1.76-.25 3.34-.74 4.75a9.43 9.43 0 0 1-5.46 5.92c-1.3.52-2.77.79-4.4.79-1.64 0-3.12-.27-4.44-.8a9.42 9.42 0 0 1-3.35-2.3c-.92-1-1.63-2.2-2.13-3.61-.49-1.41-.73-3-.73-4.75s.24-3.33.73-4.73c.5-1.43 1.2-2.64 2.13-3.63.93-1 2.04-1.77 3.35-2.31 1.32-.55 2.8-.82 4.44-.82zm0 19.89c2.2 0 3.84-.73 4.93-2.2 1.08-1.48 1.63-3.54 1.63-6.18 0-2.66-.55-4.72-1.63-6.2-1.09-1.49-2.73-2.23-4.93-2.23-1.12 0-2.09.2-2.93.57a5.71 5.71 0 0 0-2.06 1.65c-.55.72-.96 1.61-1.24 2.67-.26 1.04-.4 2.22-.4 3.54 0 2.64.55 4.7 1.64 6.18 1.1 1.47 2.76 2.2 4.99 2.2zm17.97-15.07a9.94 9.94 0 0 1 2.6-3.56 5.64 5.64 0 0 1 3.76-1.3c.47 0 .91.05 1.34.15.44.1.83.27 1.16.49l-.28 2.92c-.09.37-.31.55-.66.55-.2 0-.5-.04-.9-.13a6.2 6.2 0 0 0-3.24.18 4.23 4.23 0 0 0-1.47.92c-.43.4-.82.9-1.17 1.5a13.1 13.1 0 0 0-.92 2.02V48h-3.94V25.71h2.24c.43 0 .72.08.88.25.17.16.28.44.33.83l.27 3.39zm15.04-14.59V48h-3.92V15.6h3.92zm19.55 15.43a6.22 6.22 0 0 0-2.38-2.05 6.7 6.7 0 0 0-2.86-.6c-2.07 0-3.66.75-4.77 2.23-1.12 1.48-1.68 3.6-1.68 6.33 0 1.46.13 2.7.38 3.74a7.29 7.29 0 0 0 1.1 2.56 4.35 4.35 0 0 0 1.78 1.45c.7.3 1.5.46 2.4.46 1.29 0 2.41-.3 3.36-.88a9.6 9.6 0 0 0 2.67-2.49V31.02zm3.91-15.43V48h-2.33c-.56 0-.9-.27-1.06-.81l-.35-2.71a12.13 12.13 0 0 1-3.25 2.77 8.28 8.28 0 0 1-4.23 1.06 7.31 7.31 0 0 1-6.14-2.9c-.73-.96-1.3-2.15-1.69-3.57a18.35 18.35 0 0 1 .07-9.48 11.29 11.29 0 0 1 1.89-3.7 8.7 8.7 0 0 1 7.06-3.34 7.96 7.96 0 0 1 6.12 2.62V15.59h3.91zM46.61 70.71V93H42.7V70.71h3.91zm.84-7c0 .39-.08.75-.24 1.09-.15.32-.35.61-.62.88-.25.25-.55.44-.9.59a2.67 2.67 0 0 1-2.16 0 2.9 2.9 0 0 1-1.45-1.47 2.67 2.67 0 0 1 0-2.16c.15-.35.35-.65.6-.9.25-.27.53-.47.85-.62a2.67 2.67 0 0 1 2.16 0c.35.15.65.35.9.62.27.25.47.55.62.9.16.34.24.7.24 1.08zm7.97 10.24c.49-.54 1-1.04 1.54-1.48a9.85 9.85 0 0 1 3.66-1.84 8.96 8.96 0 0 1 5.43.35c.94.4 1.72.97 2.33 1.71.63.74 1.11 1.62 1.43 2.67.32 1.04.49 2.19.49 3.45V93h-3.94V78.81c0-1.69-.4-3-1.17-3.92-.76-.93-1.93-1.4-3.5-1.4-1.15 0-2.24.27-3.25.83-1 .56-1.92 1.31-2.77 2.27V93h-3.94V70.71h2.35c.56 0 .9.28 1.04.82l.3 2.42zm57.7 3.3c0 2.36-.37 4.5-1.11 6.44a14.3 14.3 0 0 1-3.17 4.98c-1.37 1.37-3 2.45-4.93 3.2-1.9.76-4.02 1.13-6.33 1.13H85.8V61.47h11.77c2.31 0 4.42.39 6.33 1.15a13.8 13.8 0 0 1 8.1 8.18 17.75 17.75 0 0 1 1.12 6.45zm-4.37 0c0-1.94-.26-3.67-.8-5.2a10.94 10.94 0 0 0-2.23-3.87 9.57 9.57 0 0 0-3.53-2.42 12.23 12.23 0 0 0-4.61-.83h-7.5v24.62h7.5c1.7 0 3.24-.28 4.61-.84a9.7 9.7 0 0 0 3.53-2.4 10.94 10.94 0 0 0 2.24-3.87c.53-1.53.8-3.26.8-5.2zm19.8 5.72c-1.8.06-3.34.2-4.62.44-1.26.22-2.3.51-3.1.88-.8.36-1.37.8-1.74 1.3-.35.5-.53 1.05-.53 1.67 0 .58.1 1.1.3 1.52a3 3 0 0 0 .76 1.05c.34.27.73.46 1.17.6a6.13 6.13 0 0 0 1.45.17 7.28 7.28 0 0 0 3.5-.81 11.95 11.95 0 0 0 2.82-2.2v-4.62zm-12.65-9.11a12.73 12.73 0 0 1 3.98-2.66c1.43-.59 3-.88 4.73-.88 1.25 0 2.36.2 3.33.61a6.81 6.81 0 0 1 3.94 4.38c.33 1.04.5 2.19.5 3.43V93h-1.74a1.8 1.8 0 0 1-.88-.18c-.2-.13-.36-.38-.48-.74l-.44-2.12-1.72 1.46a9.48 9.48 0 0 1-3.74 1.7c-.69.15-1.46.23-2.3.23-.87 0-1.69-.12-2.45-.35a5.34 5.34 0 0 1-3.34-2.93 6.64 6.64 0 0 1-.49-2.64c0-.88.25-1.72.73-2.53a6.33 6.33 0 0 1 2.35-2.17c1.09-.63 2.5-1.15 4.25-1.54 1.75-.41 3.89-.65 6.42-.7v-1.75c0-1.73-.37-3.03-1.12-3.91-.75-.9-1.84-1.34-3.28-1.34-.97 0-1.78.12-2.44.37-.64.23-1.2.5-1.7.81l-1.23.82c-.33.23-.67.35-1 .35-.27 0-.5-.07-.69-.2a2.1 2.1 0 0 1-.48-.53l-.7-1.25zm27.67 19.5c-1.76 0-3.12-.5-4.07-1.48-.94-.98-1.41-2.4-1.41-4.25V74h-2.68a.9.9 0 0 1-.6-.2c-.16-.14-.24-.36-.24-.66v-1.56l3.65-.46.9-6.89c.05-.22.14-.4.29-.52a.88.88 0 0 1 .62-.22H142v7.67h6.44V74H142v13.38c0 .94.22 1.63.68 2.09.45.45 1.04.68 1.76.68a3.21 3.21 0 0 0 1.85-.53l.55-.35c.16-.12.3-.18.41-.18.2 0 .4.13.55.38l1.15 1.87a7.45 7.45 0 0 1-2.44 1.5 8.53 8.53 0 0 1-2.95.52zm19.68-10.4c-1.8.07-3.34.21-4.62.45-1.26.22-2.3.51-3.1.88-.8.36-1.37.8-1.74 1.3-.35.5-.53 1.05-.53 1.67 0 .58.1 1.1.3 1.52a2.9 2.9 0 0 0 .76 1.05c.34.27.73.46 1.17.6a6.13 6.13 0 0 0 1.45.17 7.3 7.3 0 0 0 3.5-.81 12.04 12.04 0 0 0 2.82-2.2v-4.62zm-12.65-9.1a12.72 12.72 0 0 1 3.99-2.66c1.42-.59 3-.88 4.72-.88 1.25 0 2.36.2 3.33.61a6.81 6.81 0 0 1 3.94 4.38c.33 1.04.5 2.19.5 3.43V93h-1.74a1.8 1.8 0 0 1-.88-.18c-.2-.13-.36-.38-.48-.74l-.44-2.12-1.72 1.46a9.48 9.48 0 0 1-3.74 1.7c-.69.15-1.46.23-2.3.23-.87 0-1.69-.12-2.45-.35a5.33 5.33 0 0 1-3.34-2.93 6.62 6.62 0 0 1-.49-2.64c0-.88.25-1.72.73-2.53a6.33 6.33 0 0 1 2.35-2.17c1.09-.63 2.5-1.15 4.25-1.54 1.74-.41 3.89-.65 6.42-.7v-1.75c0-1.73-.37-3.03-1.12-3.91-.75-.9-1.84-1.34-3.28-1.34-.97 0-1.78.12-2.44.37-.64.23-1.2.5-1.7.81l-1.22.82c-.34.23-.68.35-1.02.35-.26 0-.49-.07-.68-.2a1.88 1.88 0 0 1-.48-.53l-.7-1.25zM40.98 32.25c0 2.36-.38 4.53-1.12 6.51a14.26 14.26 0 0 1-8.1 8.4c-1.9.78-4.02 1.17-6.34 1.17-2.31 0-4.42-.39-6.33-1.17a14.31 14.31 0 0 1-8.08-8.4 18.29 18.29 0 0 1-1.12-6.51c0-2.36.38-4.53 1.12-6.5.75-1.97 1.8-3.67 3.17-5.1a14.32 14.32 0 0 1 4.9-3.34c1.92-.8 4.03-1.19 6.34-1.19 2.32 0 4.43.4 6.34 1.19 1.92.8 3.56 1.9 4.93 3.34a14.87 14.87 0 0 1 3.17 5.1 18.1 18.1 0 0 1 1.12 6.5zm-4.38 0c0-1.94-.26-3.68-.8-5.22a10.91 10.91 0 0 0-2.24-3.89 9.68 9.68 0 0 0-3.52-2.46 11.95 11.95 0 0 0-4.62-.86c-1.68 0-3.21.28-4.6.86a9.88 9.88 0 0 0-3.54 2.46 10.91 10.91 0 0 0-2.24 3.9c-.53 1.53-.8 3.27-.8 5.2 0 1.94.27 3.68.8 5.22a11.17 11.17 0 0 0 2.24 3.9 10.01 10.01 0 0 0 3.55 2.44c1.38.56 2.9.83 4.6.83s3.24-.27 4.61-.83a9.8 9.8 0 0 0 3.52-2.44 11.17 11.17 0 0 0 2.25-3.9c.53-1.54.8-3.28.8-5.21zm26.22-6.54V48H60.5c-.56 0-.9-.27-1.05-.81l-.31-2.4a12.45 12.45 0 0 1-3.26 2.6c-1.2.64-2.58.96-4.13.96-1.22 0-2.3-.2-3.24-.6a6.52 6.52 0 0 1-2.33-1.7 7.37 7.37 0 0 1-1.43-2.67c-.3-1.04-.46-2.2-.46-3.45V25.7h3.91v14.22c0 1.68.38 2.99 1.15 3.91.77.93 1.96 1.39 3.54 1.39 1.16 0 2.24-.27 3.23-.82a10.42 10.42 0 0 0 2.8-2.28V25.7h3.91zm8.61 4.47a9.94 9.94 0 0 1 2.6-3.56 5.64 5.64 0 0 1 3.76-1.3c.47 0 .92.05 1.34.15.44.1.83.27 1.17.49l-.3 2.92c-.09.37-.3.55-.66.55-.2 0-.5-.04-.9-.13a6.21 6.21 0 0 0-3.24.18 4.23 4.23 0 0 0-1.47.92c-.42.4-.81.9-1.17 1.5-.33.58-.64 1.26-.92 2.02V48H67.7V25.71h2.25c.42 0 .72.08.88.25.16.16.27.44.33.83l.26 3.39zm61.16-13.7L122.75 48h-3.82l-7.99-24.05a21.95 21.95 0 0 1-.42-1.58 38.36 38.36 0 0 1-.44 1.58L102.05 48h-3.83L88.4 16.47h3.54c.38 0 .7.1.95.29.26.2.43.43.5.73l6.52 21.9.28 1.28.29 1.46.3-1.46.38-1.27 7.41-21.91c.1-.25.26-.48.51-.69.27-.22.58-.33.95-.33h1.23c.38 0 .69.1.92.29a1.77 1.77 0 0 1 .53.73l7.4 21.9a28.4 28.4 0 0 1 .68 2.62 29.52 29.52 0 0 1 .52-2.61l6.54-21.91a1.31 1.31 0 0 1 .48-.7c.27-.21.58-.32.95-.32h3.32zm9.35 8.88c1.63 0 3.1.27 4.4.82a9.43 9.43 0 0 1 5.46 5.94c.5 1.4.74 2.98.74 4.73 0 1.76-.25 3.34-.74 4.75a9.43 9.43 0 0 1-5.46 5.92c-1.3.52-2.77.79-4.4.79-1.64 0-3.12-.27-4.44-.8a9.42 9.42 0 0 1-3.35-2.3c-.92-1-1.63-2.2-2.13-3.61-.49-1.41-.73-3-.73-4.75s.24-3.33.73-4.73c.5-1.43 1.2-2.64 2.13-3.63.93-1 2.04-1.77 3.35-2.31 1.32-.55 2.8-.82 4.44-.82zm0 19.89c2.2 0 3.84-.73 4.93-2.2 1.08-1.48 1.63-3.54 1.63-6.18 0-2.66-.55-4.72-1.63-6.2-1.09-1.49-2.73-2.23-4.93-2.23-1.12 0-2.09.2-2.93.57a5.71 5.71 0 0 0-2.06 1.65c-.55.72-.96 1.61-1.24 2.67-.26 1.04-.4 2.22-.4 3.54 0 2.64.55 4.7 1.64 6.18 1.1 1.47 2.76 2.2 4.99 2.2zm17.97-15.07a9.94 9.94 0 0 1 2.6-3.56 5.64 5.64 0 0 1 3.76-1.3c.47 0 .91.05 1.34.15.44.1.83.27 1.16.49l-.28 2.92c-.09.37-.31.55-.66.55-.2 0-.5-.04-.9-.13a6.2 6.2 0 0 0-3.24.18 4.23 4.23 0 0 0-1.47.92c-.43.4-.82.9-1.17 1.5a13.1 13.1 0 0 0-.92 2.02V48h-3.94V25.71h2.24c.43 0 .72.08.88.25.17.16.28.44.33.83l.27 3.39zm15.04-14.59V48h-3.92V15.6h3.92zm19.55 15.43a6.22 6.22 0 0 0-2.38-2.05 6.7 6.7 0 0 0-2.86-.6c-2.07 0-3.66.75-4.77 2.23-1.12 1.48-1.68 3.6-1.68 6.33 0 1.46.13 2.7.38 3.74a7.29 7.29 0 0 0 1.1 2.56 4.35 4.35 0 0 0 1.78 1.45c.7.3 1.5.46 2.4.46 1.29 0 2.41-.3 3.36-.88a9.6 9.6 0 0 0 2.67-2.49V31.02zm3.91-15.43V48h-2.33c-.56 0-.9-.27-1.06-.81l-.35-2.71a12.13 12.13 0 0 1-3.25 2.77 8.28 8.28 0 0 1-4.23 1.06 7.31 7.31 0 0 1-6.14-2.9c-.73-.96-1.3-2.15-1.69-3.57a18.35 18.35 0 0 1 .07-9.48 11.29 11.29 0 0 1 1.89-3.7 8.7 8.7 0 0 1 7.06-3.34 7.96 7.96 0 0 1 6.12 2.62V15.59h3.91zM46.61 70.71V93H42.7V70.71h3.91zm.84-7c0 .39-.08.75-.24 1.09-.15.32-.35.61-.62.88-.25.25-.55.44-.9.59a2.67 2.67 0 0 1-2.16 0 2.9 2.9 0 0 1-1.45-1.47 2.67 2.67 0 0 1 0-2.16c.15-.35.35-.65.6-.9.25-.27.53-.47.85-.62a2.67 2.67 0 0 1 2.16 0c.35.15.65.35.9.62.27.25.47.55.62.9.16.34.24.7.24 1.08zm7.97 10.24c.49-.54 1-1.04 1.54-1.48a9.85 9.85 0 0 1 3.66-1.84 8.96 8.96 0 0 1 5.43.35c.94.4 1.72.97 2.33 1.71.63.74 1.11 1.62 1.43 2.67.32 1.04.49 2.19.49 3.45V93h-3.94V78.81c0-1.69-.4-3-1.17-3.92-.76-.93-1.93-1.4-3.5-1.4-1.15 0-2.24.27-3.25.83-1 .56-1.92 1.31-2.77 2.27V93h-3.94V70.71h2.35c.56 0 .9.28 1.04.82l.3 2.42zm57.7 3.3c0 2.36-.37 4.5-1.11 6.44a14.3 14.3 0 0 1-3.17 4.98c-1.37 1.37-3 2.45-4.93 3.2-1.9.76-4.02 1.13-6.33 1.13H85.8V61.47h11.77c2.31 0 4.42.39 6.33 1.15a13.8 13.8 0 0 1 8.1 8.18 17.75 17.75 0 0 1 1.12 6.45zm-4.37 0c0-1.94-.26-3.67-.8-5.2a10.94 10.94 0 0 0-2.23-3.87 9.57 9.57 0 0 0-3.53-2.42 12.23 12.23 0 0 0-4.61-.83h-7.5v24.62h7.5c1.7 0 3.24-.28 4.61-.84a9.7 9.7 0 0 0 3.53-2.4 10.94 10.94 0 0 0 2.24-3.87c.53-1.53.8-3.26.8-5.2zm19.8 5.72c-1.8.06-3.34.2-4.62.44-1.26.22-2.3.51-3.1.88-.8.36-1.37.8-1.74 1.3-.35.5-.53 1.05-.53 1.67 0 .58.1 1.1.3 1.52a3 3 0 0 0 .76 1.05c.34.27.73.46 1.17.6a6.13 6.13 0 0 0 1.45.17 7.28 7.28 0 0 0 3.5-.81 11.95 11.95 0 0 0 2.82-2.2v-4.62zm-12.65-9.11a12.73 12.73 0 0 1 3.98-2.66c1.43-.59 3-.88 4.73-.88 1.25 0 2.36.2 3.33.61a6.81 6.81 0 0 1 3.94 4.38c.33 1.04.5 2.19.5 3.43V93h-1.74a1.8 1.8 0 0 1-.88-.18c-.2-.13-.36-.38-.48-.74l-.44-2.12-1.72 1.46a9.48 9.48 0 0 1-3.74 1.7c-.69.15-1.46.23-2.3.23-.87 0-1.69-.12-2.45-.35a5.34 5.34 0 0 1-3.34-2.93 6.64 6.64 0 0 1-.49-2.64c0-.88.25-1.72.73-2.53a6.33 6.33 0 0 1 2.35-2.17c1.09-.63 2.5-1.15 4.25-1.54 1.75-.41 3.89-.65 6.42-.7v-1.75c0-1.73-.37-3.03-1.12-3.91-.75-.9-1.84-1.34-3.28-1.34-.97 0-1.78.12-2.44.37-.64.23-1.2.5-1.7.81l-1.23.82c-.33.23-.67.35-1 .35-.27 0-.5-.07-.69-.2a2.1 2.1 0 0 1-.48-.53l-.7-1.25zm27.67 19.5c-1.76 0-3.12-.5-4.07-1.48-.94-.98-1.41-2.4-1.41-4.25V74h-2.68a.9.9 0 0 1-.6-.2c-.16-.14-.24-.36-.24-.66v-1.56l3.65-.46.9-6.89c.05-.22.14-.4.29-.52a.88.88 0 0 1 .62-.22H142v7.67h6.44V74H142v13.38c0 .94.22 1.63.68 2.09.45.45 1.04.68 1.76.68a3.21 3.21 0 0 0 1.85-.53l.55-.35c.16-.12.3-.18.41-.18.2 0 .4.13.55.38l1.15 1.87a7.45 7.45 0 0 1-2.44 1.5 8.53 8.53 0 0 1-2.95.52zm19.68-10.4c-1.8.07-3.34.21-4.62.45-1.26.22-2.3.51-3.1.88-.8.36-1.37.8-1.74 1.3-.35.5-.53 1.05-.53 1.67 0 .58.1 1.1.3 1.52a2.9 2.9 0 0 0 .76 1.05c.34.27.73.46 1.17.6a6.13 6.13 0 0 0 1.45.17 7.3 7.3 0 0 0 3.5-.81 12.04 12.04 0 0 0 2.82-2.2v-4.62zm-12.65-9.1a12.72 12.72 0 0 1 3.99-2.66c1.42-.59 3-.88 4.72-.88 1.25 0 2.36.2 3.33.61a6.81 6.81 0 0 1 3.94 4.38c.33 1.04.5 2.19.5 3.43V93h-1.74a1.8 1.8 0 0 1-.88-.18c-.2-.13-.36-.38-.48-.74l-.44-2.12-1.72 1.46a9.48 9.48 0 0 1-3.74 1.7c-.69.15-1.46.23-2.3.23-.87 0-1.69-.12-2.45-.35a5.33 5.33 0 0 1-3.34-2.93 6.62 6.62 0 0 1-.49-2.64c0-.88.25-1.72.73-2.53a6.33 6.33 0 0 1 2.35-2.17c1.09-.63 2.5-1.15 4.25-1.54 1.74-.41 3.89-.65 6.42-.7v-1.75c0-1.73-.37-3.03-1.12-3.91-.75-.9-1.84-1.34-3.28-1.34-.97 0-1.78.12-2.44.37-.64.23-1.2.5-1.7.81l-1.22.82c-.34.23-.68.35-1.02.35-.26 0-.49-.07-.68-.2a1.88 1.88 0 0 1-.48-.53l-.7-1.25z"
    fill="#fff"
  />
  <path fill="#D42B21" d="M0 106.79h210V120H0z" />
</g>
<defs>
  <clipPath id="clip0"><path fill="#fff" d="M0 0h210v120H0z" /></clipPath>
</defs>
</svg></g><a href="https://ourworldindata.org/grapher/cancer-death-rates-in-the-us?country=~USA" style="font-family:&quot;Playfair Display&quot;, Georgia, &quot;Times New Roman&quot;, serif" target="_blank" rel="noopener"><text font-size="22.40" x="15.0" y="32.9" fill="#555"><tspan x="15" y="32.92">Cancer death rates in the United States over the long-run</tspan></text></a><text font-size="12.80" x="15.0" y="51.6" fill="#666"><tspan x="15" y="51.64">Age-standardized death rates from various forms of cancer in males and females, measured as the number of deaths per 100,000</tspan><tspan x="15" y="67">individuals. Age-standardization is based on normalisation to the standard US population structure in the year 2000.</tspan></text></g><g class="LineChart"><defs><clipPath id="boundsClip-2"><rect x="26.128" y="68.2" width="830" height="925.1999999999999"></rect></clipPath></defs><g class="DualAxisView"><g class="HorizontalAxis"><line x1="36.1" y1="529.4" x2="36.1" y2="533.4" stroke="#ccc"></line><line x1="111.7" y1="529.4" x2="111.7" y2="533.4" stroke="#ccc"></line><line x1="187.2" y1="529.4" x2="187.2" y2="533.4" stroke="#ccc"></line><line x1="262.7" y1="529.4" x2="262.7" y2="533.4" stroke="#ccc"></line><line x1="338.3" y1="529.4" x2="338.3" y2="533.4" stroke="#ccc"></line><line x1="413.8" y1="529.4" x2="413.8" y2="533.4" stroke="#ccc"></line><line x1="489.3" y1="529.4" x2="489.3" y2="533.4" stroke="#ccc"></line><line x1="564.9" y1="529.4" x2="564.9" y2="533.4" stroke="#ccc"></line><line x1="648" y1="529.4" x2="648" y2="533.4" stroke="#ccc"></line><text x="36.1" y="548.8" fill="#666" text-anchor="middle" font-size="14.4">1930</text><text x="111.7" y="548.8" fill="#666" text-anchor="middle" font-size="14.4">1940</text><text x="187.2" y="548.8" fill="#666" text-anchor="middle" font-size="14.4">1950</text><text x="262.7" y="548.8" fill="#666" text-anchor="middle" font-size="14.4">1960</text><text x="338.3" y="548.8" fill="#666" text-anchor="middle" font-size="14.4">1970</text><text x="413.8" y="548.8" fill="#666" text-anchor="middle" font-size="14.4">1980</text><text x="489.3" y="548.8" fill="#666" text-anchor="middle" font-size="14.4">1990</text><text x="564.9" y="548.8" fill="#666" text-anchor="middle" font-size="14.4">2000</text><text x="648" y="548.8" fill="#666" text-anchor="middle" font-size="14.4">2011</text></g><g class="VerticalAxis"><text x="31.13" y="529.4" fill="#666" dominant-baseline="middle" text-anchor="end" font-size="14.4">0</text><text x="31.13" y="432.1" fill="#666" dominant-baseline="middle" text-anchor="end" font-size="14.4">20</text><text x="31.13" y="334.8" fill="#666" dominant-baseline="middle" text-anchor="end" font-size="14.4">40</text><text x="31.13" y="237.5" fill="#666" dominant-baseline="middle" text-anchor="end" font-size="14.4">60</text><text x="31.13" y="140.2" fill="#666" dominant-baseline="middle" text-anchor="end" font-size="14.4">80</text></g><g class="AxisGridLines horizontalLines"><line x1="36.13" y1="529.4" x2="647.96" y2="529.4" stroke="#ccc"></line><line x1="36.13" y1="432.1" x2="647.96" y2="432.1" stroke="#d3d3d3" stroke-dasharray="3,2"></line><line x1="36.13" y1="334.8" x2="647.96" y2="334.8" stroke="#d3d3d3" stroke-dasharray="3,2"></line><line x1="36.13" y1="237.5" x2="647.96" y2="237.5" stroke="#d3d3d3" stroke-dasharray="3,2"></line><line x1="36.13" y1="140.2" x2="647.96" y2="140.2" stroke="#d3d3d3" stroke-dasharray="3,2"></line></g></g><g clip-path="url(#boundsClip-2)"><g class="LineLabels" style="cursor:default"><g class="legendMark"><g class="indicator"><path d="M651.96,246.7 H665.46 V246.7 H678.96" stroke="#999" stroke-width="0.5" fill="none"></path></g><rect x="647.96" y="240.7" width="176.96" height="12" fill="#fff" opacity="0"></rect><text font-size="12.00" x="683.0" y="250.3" fill="#f6a324"><tspan x="682.96" y="250.29999999999998">Lung and Bronchus (male)</tspan></text></g><g class="legendMark"><g class="indicator"><path d="M651.96,348.9 H665.46 V348.9 H678.96" stroke="#999" stroke-width="0.5" fill="none"></path></g><rect x="647.96" y="342.9" width="187.04" height="12" fill="#fff" opacity="0"></rect><text font-size="12.00" x="683.0" y="352.5" fill="#f6a324"><tspan x="682.96" y="352.5">Lung and Bronchus (female)</tspan></text></g><g class="legendMark"><g class="indicator"><path d="M651.96,424.8 H654.4145454545455 V369.4 H678.96" stroke="#999" stroke-width="0.5" fill="none"></path></g><rect x="647.96" y="363.4" width="117.2" height="12" fill="#fff" opacity="0"></rect><text font-size="12.00" x="683.0" y="373.0" fill="#df3c64"><tspan x="682.96" y="373">Breast (female)</tspan></text></g><g class="legendMark"><g class="indicator"><path d="M651.96,428.2 H656.869090909091 V383.4 H678.96" stroke="#999" stroke-width="0.5" fill="none"></path></g><rect x="647.96" y="377.4" width="117.2" height="12" fill="#fff" opacity="0"></rect><text font-size="12.00" x="683.0" y="387.0" fill="#ca2628"><tspan x="682.96" y="387">Prostate (male)</tspan></text></g><g class="legendMark"><g class="indicator"><path d="M651.96,439.4 H659.3236363636364 V397.4 H678.96" stroke="#999" stroke-width="0.5" fill="none"></path></g><rect x="647.96" y="391.4" width="172.04" height="12" fill="#fff" opacity="0"></rect><text font-size="12.00" x="683.0" y="401.0" fill="#a652ba"><tspan x="682.96" y="401">Colon and Rectum (male)</tspan></text></g><g class="legendMark"><g class="indicator"><path d="M651.96,465.7 H661.7781818181819 V411.4 H678.96" stroke="#999" stroke-width="0.5" fill="none"></path></g><rect x="647.96" y="405.4" width="182.12" height="12" fill="#fff" opacity="0"></rect><text font-size="12.00" x="683.0" y="415.0" fill="#a652ba"><tspan x="682.96" y="415">Colon and Rectum (female)</tspan></text></g><g class="legendMark"><g class="indicator"><path d="M651.96,468.6 H664.2327272727274 V425.4 H678.96" stroke="#999" stroke-width="0.5" fill="none"></path></g><rect x="647.96" y="419.4" width="123.2" height="12" fill="#fff" opacity="0"></rect><text font-size="12.00" x="683.0" y="429.0" fill="#3360a9"><tspan x="682.96" y="429">Pancreas (male)</tspan></text></g><g class="legendMark"><g class="indicator"><path d="M651.96,480.8 H666.6872727272728 V439.4 H678.96" stroke="#999" stroke-width="0.5" fill="none"></path></g><rect x="647.96" y="433.4" width="98.36" height="12" fill="#fff" opacity="0"></rect><text font-size="12.00" x="683.0" y="443.0" fill="#6bb537"><tspan x="682.96" y="443">Liver (male)</tspan></text></g><g class="legendMark"><g class="indicator"><path d="M651.96,483.2 H669.1418181818183 V453.4 H678.96" stroke="#999" stroke-width="0.5" fill="none"></path></g><rect x="647.96" y="447.4" width="133.28" height="12" fill="#fff" opacity="0"></rect><text font-size="12.00" x="683.0" y="457.0" fill="#3360a9"><tspan x="682.96" y="457">Pancreas (female)</tspan></text></g><g class="legendMark"><g class="indicator"><path d="M651.96,484.2 H671.5963636363637 V467.4 H678.96" stroke="#999" stroke-width="0.5" fill="none"></path></g><rect x="647.96" y="461.4" width="124.52" height="12" fill="#fff" opacity="0"></rect><text font-size="12.00" x="683.0" y="471.0" fill="#818282"><tspan x="682.96" y="471">Leukemia (male)</tspan></text></g><g class="legendMark"><g class="indicator"><path d="M651.96,496.3 H674.0509090909092 V481.4 H678.96" stroke="#999" stroke-width="0.5" fill="none"></path></g><rect x="647.96" y="475.4" width="117.8" height="12" fill="#fff" opacity="0"></rect><text font-size="12.00" x="683.0" y="485.0" fill="#3360a9"><tspan x="682.96" y="485">Uterus (female)</tspan></text></g><g class="legendMark"><g class="indicator"><path d="M651.96,506.5 H676.5054545454547 V495.4 H678.96" stroke="#999" stroke-width="0.5" fill="none"></path></g><rect x="647.96" y="489.4" width="108.44" height="12" fill="#fff" opacity="0"></rect><text font-size="12.00" x="683.0" y="499.0" fill="#6bb537"><tspan x="682.96" y="499">Liver (female)</tspan></text></g><g class="legendMark"><g class="indicator"><path d="M651.96,508 H676.5054545454547 V509.4 H678.96" stroke="#999" stroke-width="0.5" fill="none"></path></g><rect x="647.96" y="503.4" width="119.84" height="12" fill="#fff" opacity="0"></rect><text font-size="12.00" x="683.0" y="513.0" fill="#7ec7ce"><tspan x="682.96" y="513">Stomach (male)</tspan></text></g><g class="legendMark"><g class="indicator"><path d="M651.96,518.2 H674.0509090909092 V523.4 H678.96" stroke="#999" stroke-width="0.5" fill="none"></path></g><rect x="647.96" y="517.4" width="129.92000000000002" height="12" fill="#fff" opacity="0"></rect><text font-size="12.00" x="683.0" y="527.0" fill="#7ec7ce"><tspan x="682.96" y="527">Stomach (female)</tspan></text></g></g><g class="Lines"><rect x="36" y="86" width="612" height="443" fill="rgba(255,255,255,0)" opacity="0"></rect><g><path stroke-linecap="round" stroke="#ddd" d="M36 383L44 381L51 379L59 380L66 376L74 377L81 374L89 376L97 372L104 371L112 365L119 370L127 370L134 371L142 374L149 369L157 369L165 366L172 361L180 374L187 374L195 376L202 376L210 373L217 375L225 371L233 372L240 373L248 377L255 378L263 375L270 375L278 377L285 378L293 376L301 374L308 374L316 373L323 372L331 375L338 373L346 375L353 372L361 372L369 373L376 377L384 375L391 371L399 375L406 378L414 375L421 374L429 373L437 373L444 369L452 369L459 369L467 370L474 368L482 368L489 368L497 370L504 376L512 377L520 379L527 381L535 386L542 392L550 396L557 400L565 400L572 403L580 405L588 406L595 410L603 412L610 415L618 418L625 420L633 421L640 423L648 425" fill="none" stroke-width="1"></path></g><g><path stroke-linecap="round" stroke="#ddd" d="M36 398L44 395L51 391L59 390L66 385L74 383L81 376L89 374L97 372L104 369L112 366L119 368L127 368L134 364L142 363L149 362L157 362L165 358L172 360L180 368L187 372L195 374L202 376L210 377L217 378L225 378L233 382L240 382L248 384L255 386L263 384L270 386L278 388L285 389L293 392L301 394L308 393L316 396L323 397L331 398L338 399L346 401L353 401L361 404L369 404L376 407L384 404L391 407L399 405L406 408L414 409L421 411L429 413L437 415L444 413L452 416L459 420L467 421L474 423L482 425L489 427L497 429L504 431L512 432L520 434L527 435L535 438L542 439L550 440L557 442L565 443L572 445L580 447L588 449L595 454L603 456L610 456L618 458L625 460L633 463L640 465L648 466" fill="none" stroke-width="1"></path></g><g><path stroke-linecap="round" stroke="#ddd" d="M36 418L44 414L51 407L59 404L66 398L74 396L81 392L89 384L97 378L104 373L112 370L119 371L127 370L134 366L142 366L149 360L157 360L165 357L172 355L180 363L187 368L195 372L202 370L210 369L217 371L225 368L233 367L240 369L248 371L255 371L263 369L270 369L278 369L285 371L293 370L301 366L308 368L316 370L323 368L331 366L338 367L346 368L353 366L361 370L369 365L376 368L384 365L391 366L399 363L406 364L414 363L421 367L429 366L437 366L444 366L452 368L459 371L467 372L474 376L482 377L489 377L497 383L504 384L512 388L520 389L527 392L535 397L542 399L550 402L557 403L565 405L572 409L580 411L588 415L595 421L603 424L610 427L618 429L625 432L633 435L640 436L648 439" fill="none" stroke-width="1"></path></g><g><path stroke-linecap="round" stroke="#ddd" d="M36 515L44 514L51 514L59 513L66 512L74 511L81 510L89 510L97 508L104 506L112 503L119 504L127 502L134 502L142 501L149 500L157 498L165 494L172 493L180 492L187 490L195 487L202 487L210 485L217 484L225 483L233 482L240 481L248 479L255 480L263 478L270 476L278 478L285 476L293 477L301 476L308 475L316 474L323 475L331 474L338 476L346 476L353 476L361 476L369 477L376 476L384 477L391 477L399 477L406 476L414 475L421 476L429 476L437 476L444 477L452 477L459 477L467 479L474 478L482 478L489 477L497 478L504 477L512 477L520 478L527 477L535 478L542 479L550 480L557 480L565 479L572 480L580 480L588 481L595 482L603 482L610 482L618 483L625 483L633 483L640 484L648 484" fill="none" stroke-width="1"></path></g><g><path stroke-linecap="round" stroke="#ddd" d="M36 436L44 439L51 439L59 445L66 447L74 449L81 451L89 455L97 457L104 461L112 463L119 465L127 464L134 461L142 463L149 467L157 470L165 470L172 474L180 478L187 482L195 484L202 483L210 485L217 487L225 489L233 490L240 491L248 492L255 493L263 494L270 496L278 497L285 498L293 498L301 498L308 500L316 499L323 501L331 502L338 503L346 504L353 504L361 506L369 506L376 507L384 508L391 508L399 508L406 508L414 508L421 509L429 508L437 509L444 509L452 509L459 509L467 510L474 510L482 509L489 509L497 509L504 509L512 508L520 508L527 508L535 508L542 508L550 509L557 508L565 509L572 508L580 509L588 509L595 508L603 508L610 508L618 508L625 508L633 508L640 507L648 507" fill="none" stroke-width="1"></path></g><g><path stroke-linecap="round" stroke="#ddd" d="M36 461L44 464L51 466L59 466L66 467L74 470L81 471L89 474L97 474L104 475L112 478L119 478L127 478L134 476L142 475L149 475L157 480L165 483L172 482L180 486L187 488L195 489L202 490L210 491L217 492L225 493L233 493L240 493L248 495L255 496L263 494L270 496L278 497L285 496L293 496L301 496L308 496L316 496L323 496L331 497L338 498L346 498L353 498L361 500L369 500L376 501L384 501L391 500L399 500L406 501L414 501L421 500L429 500L437 499L444 499L452 499L459 499L467 499L474 498L482 497L489 496L497 496L504 494L512 494L520 493L527 492L535 492L542 492L550 491L557 492L565 491L572 490L580 489L588 488L595 488L603 487L610 487L618 486L625 484L633 483L640 482L648 481" fill="none" stroke-width="1"></path></g><g><path stroke-linecap="round" stroke="#ddd" d="M36 517L44 517L51 516L59 515L66 514L74 512L81 510L89 511L97 510L104 510L112 510L119 507L127 507L134 506L142 505L149 504L157 503L165 500L172 498L180 502L187 501L195 501L202 500L210 500L217 500L225 499L233 499L240 498L248 497L255 497L263 496L270 493L278 492L285 490L293 489L301 486L308 483L316 480L323 472L331 469L338 465L346 459L353 456L361 453L369 447L376 443L384 436L391 431L399 424L406 420L414 411L421 407L429 400L437 392L444 388L452 381L459 376L467 369L474 363L482 355L489 349L497 346L504 340L512 338L520 336L527 333L535 332L542 330L550 329L557 333L565 329L572 329L580 327L588 328L595 330L603 331L610 333L618 334L625 339L633 341L640 345L648 349" fill="none" stroke-width="1"></path></g><g><path stroke-linecap="round" stroke="#ddd" d="M36 509L44 507L51 503L59 502L66 498L74 493L81 491L89 486L97 481L104 478L112 473L119 470L127 466L134 461L142 457L149 452L157 441L165 430L172 420L180 421L187 411L195 404L202 393L210 382L217 375L225 365L233 352L240 345L248 339L255 329L263 318L270 308L278 296L285 287L293 278L301 266L308 254L316 241L323 221L331 210L338 198L346 187L353 176L361 171L369 161L376 154L384 144L391 134L399 127L406 123L414 114L421 113L429 104L437 103L444 97L452 96L459 94L467 89L474 90L482 90L489 86L497 90L504 98L512 101L520 111L527 117L535 124L542 131L550 139L557 153L565 156L572 161L580 169L588 178L595 185L603 190L610 201L618 211L625 219L633 229L640 236L648 247" fill="none" stroke-width="1"></path></g><g><path stroke-linecap="round" stroke="#ddd" d="M36 511L44 510L51 508L59 509L66 508L74 507L81 505L89 505L97 503L104 502L112 503L119 502L127 502L134 504L142 503L149 501L157 500L165 499L172 497L180 496L187 496L195 497L202 495L210 495L217 494L225 494L233 491L240 492L248 492L255 492L263 491L270 490L278 489L285 489L293 490L301 489L308 489L316 489L323 488L331 487L338 488L346 489L353 489L361 489L369 488L376 489L384 488L391 487L399 487L406 487L414 487L421 486L429 487L437 485L444 485L452 486L459 485L467 485L474 486L482 485L489 484L497 484L504 484L512 484L520 484L527 485L535 485L542 485L550 485L557 484L565 484L572 484L580 485L588 484L595 484L603 483L610 483L618 483L625 482L633 483L640 483L648 483" fill="none" stroke-width="1"></path></g><g><path stroke-linecap="round" stroke="#ddd" d="M36 508L44 507L51 506L59 505L66 503L74 502L81 500L89 499L97 497L104 495L112 496L119 494L127 494L134 495L142 494L149 492L157 491L165 486L172 484L180 482L187 481L195 479L202 479L210 477L217 475L225 474L233 470L240 471L248 471L255 468L263 468L270 466L278 465L285 464L293 465L301 463L308 462L316 461L323 460L331 461L338 461L346 463L353 464L361 461L369 464L376 462L384 463L391 462L399 463L406 464L414 465L421 465L429 466L437 467L444 466L452 467L459 469L467 469L474 469L482 468L489 468L497 468L504 468L512 469L520 469L527 471L535 471L542 470L550 470L557 470L565 471L572 470L580 470L588 471L595 469L603 469L610 469L618 468L625 469L633 469L640 468L648 469" fill="none" stroke-width="1"></path></g><g><path stroke-linecap="round" stroke="#ddd" d="M36 443L44 440L51 433L59 429L66 419L74 419L81 414L89 412L97 404L104 399L112 396L119 390L127 398L134 397L142 394L149 387L157 382L165 380L172 374L180 387L187 389L195 390L202 385L210 384L217 381L225 383L233 379L240 381L248 385L255 389L263 387L270 384L278 385L285 384L293 386L301 384L308 386L316 384L323 383L331 385L338 384L346 383L353 382L361 379L369 379L376 380L384 376L391 375L399 371L406 370L414 367L421 368L429 367L437 365L444 364L452 365L459 360L467 359L474 355L482 349L489 342L497 338L504 339L512 338L520 342L527 348L535 354L542 363L550 371L557 376L565 382L572 386L580 390L588 397L595 402L603 406L610 412L618 412L625 418L633 422L640 423L648 428" fill="none" stroke-width="1"></path></g><g><path stroke-linecap="round" stroke="#ddd" d="M36 358L44 365L51 366L59 371L66 376L74 377L81 379L89 387L97 389L104 399L112 404L119 410L127 408L134 415L142 420L149 421L157 427L165 429L172 429L180 439L187 444L195 449L202 451L210 454L217 457L225 463L233 464L240 468L248 470L255 472L263 474L270 477L278 479L285 480L293 485L301 486L308 487L316 490L323 491L331 493L338 495L346 496L353 497L361 499L369 500L376 501L384 502L391 503L399 503L406 504L414 505L421 505L429 506L437 506L444 507L452 508L459 509L467 509L474 509L482 509L489 509L497 510L504 510L512 511L520 511L527 511L535 512L542 513L550 513L557 513L565 514L572 514L580 515L588 515L595 515L603 516L610 516L618 517L625 517L633 518L640 517L648 518" fill="none" stroke-width="1"></path></g><g><path stroke-linecap="round" stroke="#ddd" d="M36 304L44 307L51 310L59 314L66 315L74 317L81 318L89 323L97 326L104 333L112 334L119 342L127 344L134 350L142 353L149 357L157 359L165 359L172 361L180 372L187 378L195 385L202 390L210 393L217 397L225 404L233 407L240 413L248 420L255 420L263 423L270 428L278 435L285 435L293 440L301 444L308 448L316 451L323 453L331 456L338 459L346 462L353 464L361 466L369 468L376 470L384 471L391 474L399 476L406 476L414 478L421 478L429 479L437 481L444 481L452 483L459 484L467 485L474 487L482 485L489 486L497 486L504 490L512 490L520 491L527 492L535 493L542 494L550 496L557 497L565 498L572 500L580 500L588 502L595 502L603 504L610 505L618 505L625 506L633 507L640 507L648 508" fill="none" stroke-width="1"></path></g><g><path stroke-linecap="round" stroke="#ddd" d="M36 353L44 352L51 351L59 356L66 356L74 356L81 354L89 356L97 362L104 363L112 364L119 370L127 373L134 372L142 374L149 376L157 379L165 381L172 386L180 398L187 402L195 410L202 414L210 415L217 420L225 422L233 427L240 429L248 431L255 436L263 438L270 440L278 443L285 445L293 447L301 450L308 454L316 456L323 460L331 463L338 466L346 467L353 468L361 471L369 473L376 476L384 477L391 480L399 481L406 483L414 483L421 485L429 486L437 486L444 488L452 488L459 489L467 490L474 491L482 491L489 491L497 492L504 492L512 492L520 493L527 493L535 494L542 495L550 495L557 496L565 496L572 496L580 497L588 497L595 497L603 498L610 497L618 497L625 497L633 498L640 497L648 496" fill="none" stroke-width="1"></path></g><g><path stroke="#df3c64" stroke-linecap="round" d="M36 383L44 381L51 379L59 380L66 376L74 377L81 374L89 376L97 372L104 371L112 365L119 370L127 370L134 371L142 374L149 369L157 369L165 366L172 361L180 374L187 374L195 376L202 376L210 373L217 375L225 371L233 372L240 373L248 377L255 378L263 375L270 375L278 377L285 378L293 376L301 374L308 374L316 373L323 372L331 375L338 373L346 375L353 372L361 372L369 373L376 377L384 375L391 371L399 375L406 378L414 375L421 374L429 373L437 373L444 369L452 369L459 369L467 370L474 368L482 368L489 368L497 370L504 376L512 377L520 379L527 381L535 386L542 392L550 396L557 400L565 400L572 403L580 405L588 406L595 410L603 412L610 415L618 418L625 420L633 421L640 423L648 425" fill="none" stroke-width="1.5"></path></g><g><path stroke="#a652ba" stroke-linecap="round" d="M36 398L44 395L51 391L59 390L66 385L74 383L81 376L89 374L97 372L104 369L112 366L119 368L127 368L134 364L142 363L149 362L157 362L165 358L172 360L180 368L187 372L195 374L202 376L210 377L217 378L225 378L233 382L240 382L248 384L255 386L263 384L270 386L278 388L285 389L293 392L301 394L308 393L316 396L323 397L331 398L338 399L346 401L353 401L361 404L369 404L376 407L384 404L391 407L399 405L406 408L414 409L421 411L429 413L437 415L444 413L452 416L459 420L467 421L474 423L482 425L489 427L497 429L504 431L512 432L520 434L527 435L535 438L542 439L550 440L557 442L565 443L572 445L580 447L588 449L595 454L603 456L610 456L618 458L625 460L633 463L640 465L648 466" fill="none" stroke-width="1.5"></path></g><g><path stroke="#a652ba" stroke-linecap="round" d="M36 418L44 414L51 407L59 404L66 398L74 396L81 392L89 384L97 378L104 373L112 370L119 371L127 370L134 366L142 366L149 360L157 360L165 357L172 355L180 363L187 368L195 372L202 370L210 369L217 371L225 368L233 367L240 369L248 371L255 371L263 369L270 369L278 369L285 371L293 370L301 366L308 368L316 370L323 368L331 366L338 367L346 368L353 366L361 370L369 365L376 368L384 365L391 366L399 363L406 364L414 363L421 367L429 366L437 366L444 366L452 368L459 371L467 372L474 376L482 377L489 377L497 383L504 384L512 388L520 389L527 392L535 397L542 399L550 402L557 403L565 405L572 409L580 411L588 415L595 421L603 424L610 427L618 429L625 432L633 435L640 436L648 439" fill="none" stroke-width="1.5"></path></g><g><path stroke="#818282" stroke-linecap="round" d="M36 515L44 514L51 514L59 513L66 512L74 511L81 510L89 510L97 508L104 506L112 503L119 504L127 502L134 502L142 501L149 500L157 498L165 494L172 493L180 492L187 490L195 487L202 487L210 485L217 484L225 483L233 482L240 481L248 479L255 480L263 478L270 476L278 478L285 476L293 477L301 476L308 475L316 474L323 475L331 474L338 476L346 476L353 476L361 476L369 477L376 476L384 477L391 477L399 477L406 476L414 475L421 476L429 476L437 476L444 477L452 477L459 477L467 479L474 478L482 478L489 477L497 478L504 477L512 477L520 478L527 477L535 478L542 479L550 480L557 480L565 479L572 480L580 480L588 481L595 482L603 482L610 482L618 483L625 483L633 483L640 484L648 484" fill="none" stroke-width="1.5"></path></g><g><path stroke="#6bb537" stroke-linecap="round" d="M36 436L44 439L51 439L59 445L66 447L74 449L81 451L89 455L97 457L104 461L112 463L119 465L127 464L134 461L142 463L149 467L157 470L165 470L172 474L180 478L187 482L195 484L202 483L210 485L217 487L225 489L233 490L240 491L248 492L255 493L263 494L270 496L278 497L285 498L293 498L301 498L308 500L316 499L323 501L331 502L338 503L346 504L353 504L361 506L369 506L376 507L384 508L391 508L399 508L406 508L414 508L421 509L429 508L437 509L444 509L452 509L459 509L467 510L474 510L482 509L489 509L497 509L504 509L512 508L520 508L527 508L535 508L542 508L550 509L557 508L565 509L572 508L580 509L588 509L595 508L603 508L610 508L618 508L625 508L633 508L640 507L648 507" fill="none" stroke-width="1.5"></path></g><g><path stroke="#6bb537" stroke-linecap="round" d="M36 461L44 464L51 466L59 466L66 467L74 470L81 471L89 474L97 474L104 475L112 478L119 478L127 478L134 476L142 475L149 475L157 480L165 483L172 482L180 486L187 488L195 489L202 490L210 491L217 492L225 493L233 493L240 493L248 495L255 496L263 494L270 496L278 497L285 496L293 496L301 496L308 496L316 496L323 496L331 497L338 498L346 498L353 498L361 500L369 500L376 501L384 501L391 500L399 500L406 501L414 501L421 500L429 500L437 499L444 499L452 499L459 499L467 499L474 498L482 497L489 496L497 496L504 494L512 494L520 493L527 492L535 492L542 492L550 491L557 492L565 491L572 490L580 489L588 488L595 488L603 487L610 487L618 486L625 484L633 483L640 482L648 481" fill="none" stroke-width="1.5"></path></g><g><path stroke="#f6a324" stroke-linecap="round" d="M36 517L44 517L51 516L59 515L66 514L74 512L81 510L89 511L97 510L104 510L112 510L119 507L127 507L134 506L142 505L149 504L157 503L165 500L172 498L180 502L187 501L195 501L202 500L210 500L217 500L225 499L233 499L240 498L248 497L255 497L263 496L270 493L278 492L285 490L293 489L301 486L308 483L316 480L323 472L331 469L338 465L346 459L353 456L361 453L369 447L376 443L384 436L391 431L399 424L406 420L414 411L421 407L429 400L437 392L444 388L452 381L459 376L467 369L474 363L482 355L489 349L497 346L504 340L512 338L520 336L527 333L535 332L542 330L550 329L557 333L565 329L572 329L580 327L588 328L595 330L603 331L610 333L618 334L625 339L633 341L640 345L648 349" fill="none" stroke-width="1.5"></path></g><g><path stroke="#f6a324" stroke-linecap="round" d="M36 509L44 507L51 503L59 502L66 498L74 493L81 491L89 486L97 481L104 478L112 473L119 470L127 466L134 461L142 457L149 452L157 441L165 430L172 420L180 421L187 411L195 404L202 393L210 382L217 375L225 365L233 352L240 345L248 339L255 329L263 318L270 308L278 296L285 287L293 278L301 266L308 254L316 241L323 221L331 210L338 198L346 187L353 176L361 171L369 161L376 154L384 144L391 134L399 127L406 123L414 114L421 113L429 104L437 103L444 97L452 96L459 94L467 89L474 90L482 90L489 86L497 90L504 98L512 101L520 111L527 117L535 124L542 131L550 139L557 153L565 156L572 161L580 169L588 178L595 185L603 190L610 201L618 211L625 219L633 229L640 236L648 247" fill="none" stroke-width="1.5"></path></g><g><path stroke="#3360a9" stroke-linecap="round" d="M36 511L44 510L51 508L59 509L66 508L74 507L81 505L89 505L97 503L104 502L112 503L119 502L127 502L134 504L142 503L149 501L157 500L165 499L172 497L180 496L187 496L195 497L202 495L210 495L217 494L225 494L233 491L240 492L248 492L255 492L263 491L270 490L278 489L285 489L293 490L301 489L308 489L316 489L323 488L331 487L338 488L346 489L353 489L361 489L369 488L376 489L384 488L391 487L399 487L406 487L414 487L421 486L429 487L437 485L444 485L452 486L459 485L467 485L474 486L482 485L489 484L497 484L504 484L512 484L520 484L527 485L535 485L542 485L550 485L557 484L565 484L572 484L580 485L588 484L595 484L603 483L610 483L618 483L625 482L633 483L640 483L648 483" fill="none" stroke-width="1.5"></path></g><g><path stroke="#3360a9" stroke-linecap="round" d="M36 508L44 507L51 506L59 505L66 503L74 502L81 500L89 499L97 497L104 495L112 496L119 494L127 494L134 495L142 494L149 492L157 491L165 486L172 484L180 482L187 481L195 479L202 479L210 477L217 475L225 474L233 470L240 471L248 471L255 468L263 468L270 466L278 465L285 464L293 465L301 463L308 462L316 461L323 460L331 461L338 461L346 463L353 464L361 461L369 464L376 462L384 463L391 462L399 463L406 464L414 465L421 465L429 466L437 467L444 466L452 467L459 469L467 469L474 469L482 468L489 468L497 468L504 468L512 469L520 469L527 471L535 471L542 470L550 470L557 470L565 471L572 470L580 470L588 471L595 469L603 469L610 469L618 468L625 469L633 469L640 468L648 469" fill="none" stroke-width="1.5"></path></g><g><path stroke="#ca2628" stroke-linecap="round" d="M36 443L44 440L51 433L59 429L66 419L74 419L81 414L89 412L97 404L104 399L112 396L119 390L127 398L134 397L142 394L149 387L157 382L165 380L172 374L180 387L187 389L195 390L202 385L210 384L217 381L225 383L233 379L240 381L248 385L255 389L263 387L270 384L278 385L285 384L293 386L301 384L308 386L316 384L323 383L331 385L338 384L346 383L353 382L361 379L369 379L376 380L384 376L391 375L399 371L406 370L414 367L421 368L429 367L437 365L444 364L452 365L459 360L467 359L474 355L482 349L489 342L497 338L504 339L512 338L520 342L527 348L535 354L542 363L550 371L557 376L565 382L572 386L580 390L588 397L595 402L603 406L610 412L618 412L625 418L633 422L640 423L648 428" fill="none" stroke-width="1.5"></path></g><g><path stroke="#7ec7ce" stroke-linecap="round" d="M36 358L44 365L51 366L59 371L66 376L74 377L81 379L89 387L97 389L104 399L112 404L119 410L127 408L134 415L142 420L149 421L157 427L165 429L172 429L180 439L187 444L195 449L202 451L210 454L217 457L225 463L233 464L240 468L248 470L255 472L263 474L270 477L278 479L285 480L293 485L301 486L308 487L316 490L323 491L331 493L338 495L346 496L353 497L361 499L369 500L376 501L384 502L391 503L399 503L406 504L414 505L421 505L429 506L437 506L444 507L452 508L459 509L467 509L474 509L482 509L489 509L497 510L504 510L512 511L520 511L527 511L535 512L542 513L550 513L557 513L565 514L572 514L580 515L588 515L595 515L603 516L610 516L618 517L625 517L633 518L640 517L648 518" fill="none" stroke-width="1.5"></path></g><g><path stroke="#7ec7ce" stroke-linecap="round" d="M36 304L44 307L51 310L59 314L66 315L74 317L81 318L89 323L97 326L104 333L112 334L119 342L127 344L134 350L142 353L149 357L157 359L165 359L172 361L180 372L187 378L195 385L202 390L210 393L217 397L225 404L233 407L240 413L248 420L255 420L263 423L270 428L278 435L285 435L293 440L301 444L308 448L316 451L323 453L331 456L338 459L346 462L353 464L361 466L369 468L376 470L384 471L391 474L399 476L406 476L414 478L421 478L429 479L437 481L444 481L452 483L459 484L467 485L474 487L482 485L489 486L497 486L504 490L512 490L520 491L527 492L535 493L542 494L550 496L557 497L565 498L572 500L580 500L588 502L595 502L603 504L610 505L618 505L625 506L633 507L640 507L648 508" fill="none" stroke-width="1.5"></path></g><g><path stroke="#3360a9" stroke-linecap="round" d="M36 353L44 352L51 351L59 356L66 356L74 356L81 354L89 356L97 362L104 363L112 364L119 370L127 373L134 372L142 374L149 376L157 379L165 381L172 386L180 398L187 402L195 410L202 414L210 415L217 420L225 422L233 427L240 429L248 431L255 436L263 438L270 440L278 443L285 445L293 447L301 450L308 454L316 456L323 460L331 463L338 466L346 467L353 468L361 471L369 473L376 476L384 477L391 480L399 481L406 483L414 483L421 485L429 486L437 486L444 488L452 488L459 489L467 490L474 491L482 491L489 491L497 492L504 492L512 492L520 493L527 493L535 494L542 495L550 495L557 496L565 496L572 496L580 497L588 497L595 497L603 498L610 497L618 497L625 497L633 498L640 497L648 496" fill="none" stroke-width="1.5"></path></g></g></g></g><g class="SourcesFooter" style="fill:#777"><g style="fill:#777"><text font-size="11.20" x="15.0" y="582.8"><tspan x="15" y="582.76">Source: American Cancer Society</tspan></text></g><text font-size="11.20" x="800.7" y="582.8"><tspan x="800.728" y="582.76"><a style="fill: #777;" class="cclogo" href="http://creativecommons.org/licenses/by/4.0/deed.en_US" target="_blank">CC BY</a></tspan></text></g></svg>